{"glyphs":{"0":{"ha":694,"x_min":50,"x_max":644,"o":"m 644 460 q 598 737 644 610 q 496 884 566 829 q 347 939 427 939 q 197 883 268 939 q 92 724 127 828 q 50 449 50 599 q 79 235 50 338 q 132 112 102 158 q 227 15 173 49 q 347 -19 280 -19 q 454 8 405 -19 q 543 83 504 36 q 605 203 582 130 q 644 460 644 322 m 435 461 l 432 170 q 399 52 428 90 q 349 31 382 31 q 298 47 317 31 q 269 111 279 63 q 256 373 256 178 q 264 792 256 732 q 298 876 273 852 q 345 892 315 892 q 399 870 382 892 q 432 743 425 837 q 435 461 435 703 "},"1":{"ha":694,"x_min":92,"x_max":588,"o":"m 452 939 l 430 939 l 92 784 l 104 760 q 188 781 153 781 q 226 770 210 781 q 249 743 243 759 q 255 663 255 727 l 255 186 q 246 76 255 100 q 212 39 237 52 q 128 25 187 25 l 104 25 l 104 0 l 588 0 l 588 25 l 567 25 q 491 40 515 25 q 460 78 467 55 q 452 186 452 102 l 452 939 "},"2":{"ha":694,"x_min":34,"x_max":627,"o":"m 575 0 l 627 266 l 602 266 q 565 204 579 219 q 529 184 551 190 q 433 178 507 178 l 235 178 q 534 528 465 402 q 584 711 584 621 q 551 817 584 760 q 461 906 519 873 q 334 939 404 939 q 161 876 236 939 q 50 684 87 814 l 75 675 q 237 779 133 779 q 345 732 301 779 q 389 614 389 685 q 336 414 389 516 q 34 15 283 311 l 34 0 l 575 0 "},"3":{"ha":694,"x_min":22,"x_max":614,"o":"m 205 461 q 396 353 331 431 q 461 182 461 275 q 425 81 461 121 q 339 41 389 41 q 215 95 281 41 q 138 155 149 149 q 96 164 119 164 q 45 142 67 164 q 22 89 22 120 q 61 19 22 46 q 231 -20 115 -20 q 510 81 406 -20 q 614 326 614 182 q 573 468 614 411 q 452 563 531 524 q 542 646 513 599 q 571 744 571 693 q 509 880 571 822 q 351 939 447 939 q 181 882 258 939 q 56 711 105 825 l 81 703 q 243 803 148 803 q 345 763 304 803 q 386 666 386 722 q 364 586 386 625 q 313 527 342 546 q 205 485 283 507 l 205 461 "},"4":{"ha":694,"x_min":35,"x_max":638,"o":"m 35 347 l 35 206 l 368 206 l 368 0 l 554 0 l 554 206 l 638 206 l 638 347 l 554 347 l 554 939 l 471 939 l 35 347 m 100 347 l 368 709 l 368 347 l 100 347 "},"5":{"ha":694,"x_min":47,"x_max":642,"o":"m 212 920 l 47 456 q 102 456 83 456 q 403 382 283 456 q 522 188 522 307 q 483 90 522 131 q 389 50 444 50 q 341 58 362 50 q 270 97 311 68 q 177 154 204 143 q 123 165 150 165 q 72 142 94 165 q 50 91 50 120 q 92 23 50 53 q 265 -19 153 -19 q 457 25 370 -19 q 593 150 545 68 q 641 315 641 231 q 537 536 641 448 q 177 653 411 644 l 212 745 l 574 745 l 642 920 l 212 920 "},"6":{"ha":694,"x_min":52,"x_max":652,"o":"m 652 939 q 337 858 473 937 q 126 646 200 779 q 52 358 52 513 q 92 163 52 253 q 204 27 132 74 q 361 -19 276 -19 q 507 22 439 -19 q 613 140 576 64 q 650 307 650 216 q 582 511 650 436 q 410 586 513 586 q 321 572 365 586 q 271 546 301 566 q 338 720 295 650 q 455 839 381 790 q 652 920 530 888 l 652 939 m 262 491 q 333 513 306 513 q 412 467 382 513 q 457 209 457 396 q 433 61 457 98 q 377 25 408 25 q 324 50 347 25 q 275 173 293 85 q 257 354 257 260 q 262 491 257 397 "},"7":{"ha":694,"x_min":47,"x_max":661,"o":"m 246 -19 l 353 -19 l 661 920 l 113 920 l 47 634 l 73 634 q 138 711 98 690 q 306 740 194 740 l 496 740 l 246 -19 "},"8":{"ha":694,"x_min":49,"x_max":646,"o":"m 473 519 q 592 609 554 559 q 631 724 631 659 q 560 873 631 811 q 357 935 489 935 q 143 865 221 935 q 64 703 64 795 q 95 580 64 633 q 235 444 126 527 q 92 342 135 397 q 49 212 49 286 q 123 48 49 115 q 334 -19 198 -19 q 562 58 478 -19 q 646 246 646 135 q 608 387 646 326 q 473 519 570 448 m 422 554 q 281 676 317 623 q 245 779 245 729 q 277 860 245 827 q 355 893 309 893 q 433 857 405 893 q 471 722 471 810 q 459 630 471 672 q 422 554 447 588 m 286 411 q 463 160 463 292 q 429 61 463 97 q 346 24 395 24 q 284 43 314 24 q 237 105 254 62 q 221 212 221 149 q 232 307 221 262 q 256 376 243 353 q 286 411 265 392 "},"9":{"ha":694,"x_min":43,"x_max":645,"o":"m 43 -19 q 368 68 231 -12 q 575 281 506 149 q 645 559 645 414 q 602 759 645 671 q 488 892 559 846 q 335 939 416 939 q 190 897 260 939 q 82 780 120 855 q 45 613 45 704 q 114 407 45 482 q 288 332 184 332 q 350 340 321 332 q 422 370 380 349 q 358 200 404 274 q 234 76 312 126 q 43 0 155 26 l 43 -19 m 432 427 q 362 406 389 406 q 283 452 313 406 q 239 711 239 523 q 265 863 239 823 q 318 892 284 892 q 362 878 345 892 q 410 791 394 850 q 439 561 439 684 q 432 427 439 503 "}," ":{"ha":347,"x_min":0,"x_max":0,"o":""},"!":{"ha":463,"x_min":119,"x_max":345,"o":"m 247 299 q 275 486 256 408 l 311 634 q 345 827 345 775 q 312 908 345 876 q 231 941 280 941 q 150 909 181 941 q 119 825 119 877 q 151 634 119 767 l 186 486 q 217 299 212 376 l 247 299 m 233 202 q 155 170 186 202 q 123 92 123 137 q 155 14 123 46 q 233 -18 187 -18 q 310 14 278 -18 q 342 92 342 46 q 310 170 342 138 q 233 202 278 202 "},"\"":{"ha":771,"x_min":119,"x_max":647,"o":"m 237 489 l 304 749 q 320 843 320 812 q 294 910 320 879 q 220 941 267 941 q 149 911 178 941 q 119 840 119 882 q 133 750 119 801 l 203 489 l 237 489 m 564 489 l 629 749 q 647 844 647 820 q 622 909 647 877 q 548 941 596 941 q 476 911 506 941 q 446 842 446 881 q 462 749 446 809 l 530 489 l 564 489 "},"#":{"ha":694,"x_min":27,"x_max":667,"o":"m 61 -19 l 149 -19 l 210 269 l 407 269 l 349 -19 l 439 -19 l 497 269 l 667 269 l 667 359 l 514 359 l 555 557 l 667 557 l 667 645 l 572 645 l 631 939 l 542 939 l 484 645 l 283 645 l 343 939 l 254 939 l 195 645 l 27 645 l 27 557 l 177 557 l 137 359 l 27 359 l 27 269 l 119 269 l 61 -19 m 227 359 l 267 557 l 466 557 l 427 359 l 227 359 "},"$":{"ha":694,"x_min":54,"x_max":650,"o":"m 384 566 l 384 865 q 471 828 438 850 q 542 755 515 798 q 589 646 570 712 l 616 646 l 616 842 q 384 913 499 905 l 384 945 l 325 945 l 325 913 q 121 828 189 896 q 54 673 54 761 q 107 530 54 591 q 325 366 161 469 l 325 31 q 215 60 259 37 q 141 130 170 83 q 98 250 112 176 l 70 250 l 70 31 q 197 -7 142 3 q 325 -19 253 -18 l 325 -94 l 384 -94 l 384 -14 q 580 69 509 -3 q 650 245 650 141 q 591 412 650 341 q 384 566 546 464 m 325 867 l 325 604 q 220 690 242 659 q 198 753 198 722 q 245 840 198 804 q 325 867 275 863 m 384 31 l 384 325 q 472 240 448 277 q 496 160 496 203 q 469 78 496 111 q 384 31 442 45 "},"%":{"ha":1389,"x_min":96,"x_max":1293,"o":"m 1067 941 l 975 941 l 323 -39 l 414 -39 l 1067 941 m 324 941 q 162 871 228 941 q 96 690 96 802 q 160 515 96 581 q 321 448 224 448 q 486 517 420 448 q 553 696 553 586 q 487 872 553 804 q 324 941 420 941 m 324 905 q 347 897 339 905 q 372 846 364 881 q 382 681 382 795 q 371 536 382 588 q 348 490 363 505 q 324 482 339 482 q 300 491 311 482 q 277 536 284 506 q 266 684 266 588 q 274 842 266 804 q 300 896 283 880 q 324 905 309 905 m 1062 455 q 901 387 966 455 q 837 209 837 318 q 903 31 837 100 q 1063 -38 969 -38 q 1225 31 1158 -38 q 1293 211 1293 100 q 1226 388 1293 320 q 1062 455 1160 455 m 1064 420 q 1088 412 1080 420 q 1112 363 1104 398 q 1123 208 1123 314 q 1112 58 1123 108 q 1086 7 1103 23 q 1065 0 1078 0 q 1042 8 1051 0 q 1017 58 1025 24 q 1007 218 1007 107 q 1016 360 1007 323 q 1041 412 1025 397 q 1064 420 1050 420 "},"&":{"ha":1157,"x_min":56,"x_max":1097,"o":"m 791 550 l 791 524 q 848 499 829 519 q 868 451 868 479 q 768 259 868 371 q 544 550 621 415 q 725 650 668 595 q 783 781 783 705 q 727 893 783 845 q 575 941 671 941 q 380 868 456 941 q 304 688 304 796 q 313 606 304 648 q 339 520 321 564 q 128 390 201 465 q 56 213 56 315 q 132 49 56 119 q 336 -21 208 -21 q 492 4 417 -21 q 651 87 566 30 q 767 2 720 24 q 868 -21 815 -21 q 978 14 930 -21 q 1097 169 1041 60 l 1069 184 q 978 118 1028 118 q 918 135 949 118 q 806 222 875 159 q 928 396 884 318 q 998 495 971 474 q 1073 524 1025 517 l 1073 550 l 791 550 m 521 591 q 469 719 480 681 q 458 790 458 757 q 481 858 458 833 q 536 883 504 883 q 601 848 574 883 q 641 720 641 796 q 616 647 641 677 q 521 591 592 617 m 358 477 q 608 129 445 296 q 538 95 570 106 q 480 84 506 84 q 376 119 428 84 q 287 216 323 153 q 250 343 250 279 q 281 428 250 390 q 358 477 304 454 "},"'":{"ha":386,"x_min":95,"x_max":295,"o":"m 212 490 l 279 749 q 295 842 295 811 q 269 909 295 878 q 195 941 243 941 q 124 911 153 941 q 95 838 95 882 q 109 749 95 797 l 180 490 l 212 490 "},"(":{"ha":463,"x_min":56,"x_max":446,"o":"m 446 941 q 169 719 282 886 q 56 335 56 552 q 169 -54 56 115 q 446 -278 283 -223 l 446 -244 q 348 -161 383 -208 q 268 19 297 -92 q 238 331 238 130 q 271 663 238 544 q 342 819 296 758 q 446 909 376 863 l 446 941 "},")":{"ha":463,"x_min":17,"x_max":408,"o":"m 17 -278 q 294 -56 180 -223 q 408 328 408 111 q 294 716 408 547 q 17 941 180 886 l 17 907 q 115 823 80 871 q 196 644 166 755 q 225 332 225 533 q 193 0 225 119 q 121 -156 166 -95 q 17 -247 87 -200 l 17 -278 "},"*":{"ha":694,"x_min":77,"x_max":617,"o":"m 334 673 q 281 701 297 689 q 230 750 269 709 q 148 791 191 791 q 97 771 117 791 q 77 723 77 751 q 102 671 77 693 q 165 650 126 650 q 220 652 180 650 q 256 653 237 653 l 328 650 q 283 609 298 621 q 226 575 267 597 q 170 531 185 552 q 155 482 155 509 q 175 437 155 456 q 222 418 195 418 q 275 441 252 418 q 306 526 297 464 q 319 582 311 562 q 349 637 326 602 q 376 584 370 602 q 388 526 382 566 q 420 440 397 464 q 473 416 444 416 q 520 436 500 416 q 540 485 540 456 q 527 528 540 511 q 469 572 509 551 q 413 605 429 592 q 368 650 397 617 q 444 653 418 653 q 479 652 463 653 q 527 650 513 650 q 592 673 567 650 q 617 724 617 695 q 597 771 617 751 q 547 791 576 791 q 465 745 507 791 q 416 700 433 711 q 362 673 400 688 q 371 734 366 713 q 398 794 377 755 q 419 861 419 833 q 398 919 419 897 q 347 941 376 941 q 299 917 321 941 q 277 862 277 893 q 299 795 277 838 q 327 732 321 753 q 334 673 332 712 "},"+":{"ha":791,"x_min":27,"x_max":768,"o":"m 27 505 l 27 415 l 353 415 l 353 92 l 442 92 l 442 415 l 768 415 l 768 505 l 442 505 l 442 830 l 353 830 l 353 505 l 27 505 "},",":{"ha":347,"x_min":45,"x_max":302,"o":"m 69 -243 q 243 -133 184 -208 q 302 39 302 -58 q 260 163 302 118 q 161 208 219 208 q 79 174 113 208 q 45 96 45 140 q 74 22 45 54 q 144 -9 104 -9 q 193 3 173 -9 q 205 7 201 7 q 214 2 210 7 q 219 -16 219 -4 q 183 -126 219 -72 q 69 -214 148 -180 l 69 -243 "},"-":{"ha":463,"x_min":34,"x_max":429,"o":"m 429 249 l 429 389 l 34 389 l 34 249 l 429 249 "},".":{"ha":347,"x_min":61,"x_max":287,"o":"m 174 209 q 94 176 127 209 q 61 96 61 142 q 94 16 61 49 q 174 -17 127 -17 q 254 16 220 -17 q 287 96 287 49 q 254 176 287 142 q 174 209 221 209 "},"/":{"ha":386,"x_min":1,"x_max":390,"o":"m 390 941 l 304 941 l 1 -21 l 88 -21 l 390 941 "},":":{"ha":463,"x_min":119,"x_max":345,"o":"m 232 652 q 152 620 185 652 q 119 540 119 587 q 152 460 119 493 q 232 427 185 427 q 312 460 279 427 q 345 540 345 493 q 312 620 345 587 q 232 652 279 652 m 231 209 q 152 176 184 209 q 119 96 119 142 q 152 16 119 49 q 231 -17 184 -17 q 311 16 278 -17 q 345 96 345 49 q 312 176 345 142 q 231 209 279 209 "},";":{"ha":463,"x_min":103,"x_max":360,"o":"m 231 652 q 151 620 184 652 q 119 541 119 587 q 152 461 119 494 q 231 428 184 428 q 310 461 277 428 q 343 541 343 494 q 311 620 343 587 q 231 652 278 652 m 127 -243 q 301 -133 243 -208 q 360 39 360 -58 q 319 163 360 118 q 219 208 277 208 q 137 174 171 208 q 103 96 103 140 q 133 22 103 54 q 202 -9 162 -9 q 251 3 231 -9 q 263 7 259 7 q 273 2 268 7 q 277 -16 277 -4 q 242 -126 277 -72 q 127 -214 206 -180 l 127 -243 "},"<":{"ha":791,"x_min":28,"x_max":768,"o":"m 768 125 l 768 220 l 195 456 l 768 695 l 768 789 l 28 483 l 28 428 l 768 125 "},"=":{"ha":791,"x_min":27,"x_max":769,"o":"m 27 613 l 27 525 l 769 525 l 769 613 l 27 613 m 27 391 l 27 303 l 769 303 l 769 391 l 27 391 "},">":{"ha":791,"x_min":28,"x_max":768,"o":"m 28 789 l 28 694 l 601 458 l 28 220 l 28 125 l 768 431 l 768 487 l 28 789 "},"?":{"ha":694,"x_min":85,"x_max":616,"o":"m 330 300 q 356 407 334 372 q 445 486 377 441 q 581 607 546 553 q 616 726 616 662 q 548 878 616 815 q 347 941 479 941 q 154 880 223 941 q 85 740 85 820 q 111 669 85 696 q 174 642 136 642 q 231 665 208 642 q 254 720 254 687 q 224 809 254 757 q 212 843 212 832 q 231 874 212 859 q 292 894 256 894 q 376 851 340 894 q 411 718 411 808 q 400 620 411 660 q 353 515 389 581 q 309 412 317 450 q 302 300 300 375 l 330 300 m 322 201 q 245 169 277 201 q 213 92 213 137 q 245 14 213 46 q 322 -18 277 -18 q 399 14 368 -18 q 431 92 431 46 q 399 169 431 137 q 322 201 368 201 "},"@":{"ha":1292,"x_min":62,"x_max":1261,"o":"m 800 627 l 777 547 q 743 629 768 606 q 680 653 718 653 q 612 635 644 653 q 499 551 549 602 q 412 436 450 500 q 352 299 374 372 q 330 151 330 227 q 362 38 330 77 q 444 0 395 0 q 505 14 478 0 q 590 85 547 37 q 677 214 621 121 q 661 119 661 155 q 696 33 661 66 q 799 0 732 0 q 994 55 903 0 q 1145 227 1084 111 q 1206 483 1206 342 q 1149 712 1206 604 q 981 881 1093 821 q 719 941 869 941 q 382 859 534 941 q 146 625 231 777 q 62 296 62 473 q 232 -131 62 37 q 663 -300 401 -300 q 1024 -194 869 -300 q 1261 112 1180 -87 l 1220 112 q 1006 -159 1157 -57 q 664 -262 854 -262 q 283 -112 433 -262 q 134 272 134 37 q 214 592 134 443 q 430 820 294 741 q 733 898 566 898 q 1047 778 926 898 q 1167 470 1167 657 q 1119 257 1167 357 q 996 103 1070 157 q 875 49 922 49 q 836 65 852 49 q 820 102 820 81 q 841 208 820 138 l 965 634 l 800 627 m 697 604 q 728 586 715 604 q 745 515 745 562 q 720 373 745 450 q 656 233 695 296 q 582 143 616 170 q 545 124 557 124 q 517 140 530 124 q 505 186 505 157 q 574 447 505 285 q 646 576 612 537 q 697 604 671 604 "},"A":{"ha":1003,"x_min":11,"x_max":987,"o":"m 578 262 l 627 147 q 647 96 646 102 q 651 71 651 83 q 636 40 651 51 q 561 25 614 25 l 543 25 l 543 0 l 987 0 l 987 25 q 922 50 945 28 q 844 184 892 77 l 513 939 l 500 939 l 171 205 q 92 66 124 100 q 11 25 60 33 l 11 0 l 317 0 l 317 25 q 227 41 245 31 q 195 98 195 60 q 214 172 195 127 l 253 262 l 578 262 m 555 312 l 277 312 l 418 629 l 555 312 "},"B":{"ha":926,"x_min":29,"x_max":878,"o":"m 618 488 q 787 570 739 518 q 836 688 836 622 q 798 807 836 751 q 694 891 760 863 q 470 920 628 920 l 29 920 l 29 895 q 115 883 92 895 q 148 852 138 871 q 157 758 157 833 l 157 161 q 148 68 157 87 q 116 37 138 49 q 29 25 93 25 l 29 0 l 496 0 q 794 82 692 0 q 878 254 878 150 q 802 414 878 352 q 618 488 749 457 m 371 506 l 371 868 q 515 848 470 869 q 584 789 559 828 q 608 689 608 750 q 583 589 608 628 q 513 528 559 549 q 371 506 467 506 m 371 453 q 527 433 475 454 q 609 362 579 413 q 639 246 639 311 q 614 144 639 190 q 544 74 590 98 q 444 50 498 50 q 389 69 408 50 q 370 124 370 87 l 371 158 l 371 453 "},"C":{"ha":1003,"x_min":55,"x_max":927,"o":"m 927 941 l 901 941 q 880 890 896 906 q 842 874 864 874 q 763 899 825 874 q 558 941 655 941 q 310 876 427 941 q 124 692 193 810 q 55 443 55 574 q 117 208 55 318 q 293 38 179 97 q 555 -21 408 -21 q 750 15 667 -21 q 911 132 834 52 l 911 212 q 759 81 831 119 q 600 43 687 43 q 428 95 494 43 q 330 248 361 146 q 299 473 299 349 q 342 701 299 598 q 447 830 375 781 q 605 880 519 880 q 789 813 708 880 q 901 622 871 747 l 927 622 l 927 941 "},"D":{"ha":1003,"x_min":18,"x_max":945,"o":"m 18 0 l 430 0 q 560 8 519 0 q 719 58 654 26 q 833 143 783 90 q 913 278 882 197 q 945 457 945 360 q 881 709 945 597 q 695 875 818 820 q 430 920 595 920 l 18 920 l 18 895 l 49 895 q 110 881 87 895 q 140 850 133 868 q 148 762 148 833 l 148 157 q 142 72 148 86 q 110 38 132 50 q 49 25 89 25 l 18 25 l 18 0 m 369 867 q 531 847 482 868 q 644 734 600 817 q 700 452 700 629 q 618 127 700 232 q 446 50 559 50 q 393 60 411 50 q 374 80 380 67 q 369 150 369 93 l 369 867 "},"E":{"ha":926,"x_min":28,"x_max":864,"o":"m 378 867 l 473 867 q 616 854 578 867 q 716 791 681 834 q 772 648 752 747 l 798 648 l 798 920 l 28 920 l 28 895 l 58 895 q 129 876 103 895 q 154 839 147 863 q 157 762 157 825 l 157 157 q 150 72 157 88 q 123 39 140 49 q 58 25 98 25 l 28 25 l 28 0 l 823 0 l 864 292 l 839 292 q 727 111 805 170 q 521 51 650 51 l 466 51 q 409 62 427 51 q 385 90 391 73 q 378 182 378 106 l 378 441 q 479 424 444 441 q 539 357 513 407 q 574 228 566 307 l 600 228 l 600 709 l 574 709 q 524 547 563 602 q 397 492 484 492 l 378 492 l 378 867 "},"F":{"ha":848,"x_min":31,"x_max":807,"o":"m 382 867 l 467 867 q 618 857 577 867 q 731 793 692 838 q 779 656 770 749 l 807 656 l 807 920 l 31 920 l 31 895 l 62 895 q 123 881 100 895 q 153 850 146 868 q 161 762 161 833 l 161 157 q 153 72 161 88 q 126 39 144 49 q 62 25 102 25 l 31 25 l 31 0 l 512 0 l 512 25 l 481 25 q 420 38 443 25 q 390 69 397 52 q 382 157 382 87 l 382 439 l 408 439 q 538 397 481 439 q 608 224 595 355 l 632 224 l 632 686 l 608 686 q 573 569 600 612 q 508 507 547 526 q 408 489 469 489 l 382 489 l 382 867 "},"G":{"ha":1080,"x_min":56,"x_max":1066,"o":"m 958 941 l 933 941 q 903 888 920 902 q 868 874 887 874 q 789 900 856 874 q 692 930 722 925 q 569 941 637 941 q 202 798 348 941 q 56 448 56 655 q 104 238 56 332 q 207 107 141 165 q 360 14 273 50 q 577 -22 446 -22 q 775 -2 680 -22 q 958 58 870 18 l 958 249 q 964 312 958 299 q 995 347 975 336 q 1066 361 1015 357 l 1066 386 l 619 386 l 619 361 l 643 361 q 700 348 676 361 q 730 319 723 335 q 738 249 738 303 l 738 58 q 666 37 701 44 q 598 30 631 30 q 433 77 503 30 q 332 223 363 123 q 301 455 301 323 q 330 668 301 564 q 427 830 358 772 q 598 888 495 888 q 797 819 706 888 q 933 616 888 749 l 958 616 l 958 941 "},"H":{"ha":1080,"x_min":29,"x_max":1055,"o":"m 380 442 l 705 442 l 705 157 q 697 72 705 88 q 669 39 687 49 q 605 25 646 25 l 575 25 l 575 0 l 1055 0 l 1055 25 l 1025 25 q 964 38 987 25 q 933 69 941 52 q 926 157 926 87 l 926 762 q 933 848 926 831 q 961 880 943 871 q 1025 895 985 895 l 1055 895 l 1055 920 l 575 920 l 575 895 l 605 895 q 667 881 644 895 q 697 850 690 868 q 705 762 705 833 l 705 502 l 380 502 l 380 762 q 387 848 380 831 q 415 880 397 871 q 479 895 439 895 l 510 895 l 510 920 l 29 920 l 29 895 l 60 895 q 121 881 98 895 q 151 850 144 868 q 159 762 159 833 l 159 157 q 151 72 159 88 q 124 39 142 49 q 60 25 100 25 l 29 25 l 29 0 l 510 0 l 510 25 l 479 25 q 418 38 441 25 q 388 69 395 52 q 380 157 380 87 l 380 442 "},"I":{"ha":541,"x_min":28,"x_max":509,"o":"m 509 25 l 478 25 q 417 38 439 25 q 386 69 394 52 q 378 157 378 87 l 378 762 q 386 848 378 831 q 414 880 396 871 q 478 895 438 895 l 509 895 l 509 920 l 28 920 l 28 895 l 58 895 q 120 881 97 895 q 150 850 142 868 q 157 762 157 833 l 157 157 q 150 72 157 88 q 123 39 140 49 q 58 25 98 25 l 28 25 l 28 0 l 509 0 l 509 25 "},"J":{"ha":694,"x_min":15,"x_max":686,"o":"m 197 895 l 236 895 q 297 881 275 895 q 328 850 320 868 q 336 762 336 833 l 336 271 q 328 95 336 127 q 301 49 320 64 q 253 34 282 34 q 186 53 212 34 q 168 83 168 66 q 187 122 168 95 q 208 157 205 150 q 213 190 213 171 q 185 255 213 229 q 115 281 157 281 q 44 252 73 281 q 15 175 15 222 q 86 40 15 101 q 274 -21 158 -21 q 436 19 369 -21 q 530 120 504 60 q 557 312 557 180 l 557 762 q 564 848 557 831 q 591 880 574 871 q 656 895 616 895 l 686 895 l 686 920 l 197 920 l 197 895 "},"K":{"ha":1080,"x_min":31,"x_max":1096,"o":"m 578 568 l 848 783 q 974 877 947 863 q 1050 895 1002 891 l 1050 920 l 691 920 l 691 895 q 765 885 750 892 q 794 844 794 870 q 723 752 794 810 l 382 476 l 382 762 q 390 849 382 832 q 418 881 400 871 q 489 895 442 895 l 489 920 l 31 920 l 31 895 l 62 895 q 123 881 100 895 q 153 850 146 868 q 161 762 161 833 l 161 157 q 153 72 161 88 q 126 39 144 49 q 62 25 102 25 l 31 25 l 31 0 l 495 0 l 495 25 q 421 38 444 25 q 390 68 398 50 q 382 157 382 85 l 382 408 l 416 437 l 627 172 q 689 64 689 93 q 676 39 689 50 q 617 25 663 29 l 617 0 l 1096 0 l 1096 25 q 1020 47 1056 25 q 902 163 970 77 l 578 568 "},"L":{"ha":926,"x_min":26,"x_max":877,"o":"m 877 323 l 849 323 q 782 159 817 214 q 697 77 746 103 q 575 52 648 52 l 498 52 q 416 58 433 52 q 385 86 393 67 q 376 176 376 106 l 376 762 q 384 848 376 831 q 412 880 394 871 q 476 895 436 895 l 516 895 l 516 920 l 26 920 l 26 895 l 56 895 q 118 881 95 895 q 148 850 140 868 q 155 762 155 833 l 155 157 q 148 72 155 88 q 121 39 138 49 q 56 25 96 25 l 26 25 l 26 0 l 842 0 l 877 323 "},"M":{"ha":1311,"x_min":28,"x_max":1286,"o":"m 662 313 l 404 920 l 28 920 l 28 895 l 57 895 q 119 881 96 895 q 149 851 142 868 q 157 764 157 833 l 157 182 q 155 113 157 120 q 134 63 148 81 q 94 35 121 45 q 37 25 68 24 l 28 25 l 28 0 l 342 0 l 342 25 q 250 46 279 25 q 212 102 220 68 q 208 185 208 117 l 208 833 l 566 0 l 583 0 l 935 839 l 935 157 q 928 72 935 88 q 901 39 918 49 q 836 25 876 25 l 806 25 l 806 0 l 1286 0 l 1286 25 l 1256 25 q 1194 38 1217 25 q 1164 69 1171 52 q 1156 157 1156 87 l 1156 764 q 1164 848 1156 832 q 1191 880 1174 871 q 1256 895 1215 895 l 1286 895 l 1286 920 l 911 920 l 662 313 "},"N":{"ha":1003,"x_min":20,"x_max":970,"o":"m 346 920 l 20 920 l 20 895 q 84 882 62 893 q 136 833 106 870 l 155 809 l 155 160 q 125 56 155 87 q 20 25 96 26 l 20 0 l 346 0 l 346 25 l 324 25 q 241 53 277 25 q 205 160 205 81 l 205 745 l 827 -21 l 850 -21 l 850 745 q 861 837 850 810 q 892 875 872 863 q 970 895 912 887 l 970 920 l 667 920 l 667 895 q 776 857 743 896 q 800 745 800 827 l 800 349 l 346 920 "},"O":{"ha":1080,"x_min":54,"x_max":1031,"o":"m 536 932 q 194 804 333 941 q 54 463 54 667 q 161 147 54 280 q 545 -21 297 -21 q 928 155 793 -21 q 1031 463 1031 288 q 893 804 1031 668 q 536 932 756 941 m 545 889 q 666 852 613 889 q 752 724 718 814 q 786 451 786 633 q 753 202 786 298 q 660 64 720 107 q 543 30 613 30 q 382 109 439 30 q 299 456 299 221 q 353 760 299 654 q 545 889 418 889 "},"P":{"ha":848,"x_min":35,"x_max":806,"o":"m 375 416 q 597 433 532 416 q 751 519 695 456 q 806 673 806 583 q 720 849 806 779 q 436 920 634 920 l 35 920 l 35 895 q 121 883 98 895 q 154 852 144 871 q 163 758 163 833 l 163 161 q 154 68 163 87 q 122 37 144 49 q 35 25 99 25 l 35 0 l 503 0 l 503 25 q 417 37 440 25 q 384 67 393 48 q 375 161 375 87 l 375 416 m 375 867 l 403 867 q 536 819 492 867 q 581 669 581 772 q 536 517 581 566 q 409 468 492 468 q 375 469 397 468 l 375 867 "},"Q":{"ha":1080,"x_min":54,"x_max":1031,"o":"m 664 -8 q 924 150 816 18 q 1031 461 1031 282 q 894 804 1031 667 q 544 941 756 941 q 193 804 331 941 q 54 461 54 667 q 156 155 54 283 q 425 -8 258 27 q 575 -189 475 -127 q 800 -251 674 -251 q 983 -225 881 -251 l 983 -184 q 926 -189 953 -189 q 761 -144 827 -189 q 664 -8 695 -98 m 543 889 q 735 764 670 889 q 787 444 787 665 q 704 108 787 220 q 543 30 646 30 q 382 109 441 30 q 299 459 299 223 q 355 762 299 656 q 543 889 421 889 "},"R":{"ha":1003,"x_min":26,"x_max":1015,"o":"m 369 419 l 429 419 l 726 0 l 1015 0 l 1015 25 q 951 48 979 27 q 889 123 932 63 l 668 435 q 799 498 752 456 q 872 666 872 564 q 823 811 872 749 q 697 897 774 873 q 453 920 620 920 l 26 920 l 26 895 q 112 883 89 895 q 144 852 135 871 q 153 758 153 833 l 153 161 q 144 68 153 87 q 112 37 135 49 q 26 25 90 25 l 26 0 l 496 0 l 496 25 q 410 37 433 25 q 378 67 387 48 q 369 161 369 87 l 369 419 m 369 870 l 441 870 q 600 820 551 870 q 649 665 649 770 q 622 547 649 592 q 549 485 595 502 q 408 467 502 467 l 369 467 l 369 870 "},"S":{"ha":772,"x_min":72,"x_max":717,"o":"m 652 941 l 632 941 q 613 888 623 899 q 585 878 603 878 q 521 900 567 878 q 444 930 475 922 q 357 941 401 941 q 153 863 234 941 q 73 676 73 786 q 102 558 73 612 q 186 461 132 505 q 367 356 241 418 q 492 284 456 312 q 544 227 527 257 q 562 163 562 196 q 516 67 562 109 q 395 26 471 26 q 212 103 297 26 q 97 326 127 180 l 72 326 l 72 -21 l 97 -21 q 129 20 109 7 q 166 34 149 34 q 220 20 187 34 q 317 -13 278 -4 q 399 -22 355 -22 q 627 61 537 -22 q 717 260 717 144 q 661 421 717 351 q 444 571 605 492 q 296 650 328 628 q 233 713 253 682 q 219 768 219 737 q 259 853 219 816 q 369 890 300 890 q 535 820 458 890 q 632 634 612 749 l 660 634 l 652 941 "},"T":{"ha":926,"x_min":50,"x_max":876,"o":"m 876 920 l 50 920 l 50 671 l 76 671 q 151 827 92 772 q 286 867 193 867 l 352 867 l 352 157 q 345 72 352 88 q 317 39 334 49 q 252 25 292 25 l 222 25 l 222 0 l 703 0 l 703 25 l 673 25 q 611 38 633 25 q 580 69 588 52 q 572 157 572 87 l 572 867 l 641 867 q 731 854 705 867 q 804 794 777 832 q 852 671 830 757 l 876 671 l 876 920 "},"U":{"ha":1003,"x_min":33,"x_max":979,"o":"m 33 920 l 33 895 q 113 884 91 895 q 143 853 134 872 q 152 754 152 833 l 152 304 q 189 121 152 189 q 314 10 225 54 q 498 -22 379 -22 q 724 39 642 -22 q 828 171 807 99 q 850 405 850 243 l 850 754 q 859 832 850 810 q 896 879 870 863 q 960 895 922 895 l 979 895 l 979 920 l 661 920 l 661 895 q 747 879 717 895 q 780 842 767 869 q 793 754 793 816 l 793 379 q 767 174 793 233 q 688 81 741 115 q 561 47 635 47 q 453 74 496 47 q 392 140 410 100 q 373 304 373 180 l 373 754 q 381 852 373 833 q 410 883 390 872 q 484 895 430 895 l 507 895 l 507 920 l 33 920 "},"V":{"ha":1003,"x_min":11,"x_max":989,"o":"m 989 920 l 687 920 l 687 895 q 764 883 735 895 q 796 859 785 875 q 807 823 807 844 q 800 781 807 806 q 760 682 792 755 l 578 274 l 382 732 q 345 821 351 804 q 340 850 340 838 q 355 880 340 869 q 437 895 377 895 l 452 895 l 452 920 l 11 920 l 11 895 q 84 865 64 888 q 160 710 103 842 l 475 -21 l 498 -21 l 814 682 q 899 841 871 807 q 989 895 939 886 l 989 920 "},"W":{"ha":1389,"x_min":12,"x_max":1377,"o":"m 1377 920 l 1138 920 l 1138 895 q 1211 877 1192 893 q 1230 833 1230 861 q 1224 792 1230 814 q 1195 709 1219 770 l 1045 315 l 878 750 q 847 846 847 830 q 855 871 847 860 q 878 887 863 882 q 945 895 898 894 l 945 920 l 499 920 l 499 895 q 564 883 542 895 q 603 845 586 871 q 651 738 620 818 l 689 640 l 545 292 l 364 738 q 331 847 331 821 q 347 880 331 867 q 411 895 363 893 l 411 920 l 12 920 l 12 895 q 74 867 56 890 q 138 730 92 843 l 441 -21 l 466 -21 l 717 572 l 945 -21 l 971 -21 l 1259 738 q 1302 843 1298 835 q 1333 880 1316 868 q 1377 895 1351 892 l 1377 920 "},"X":{"ha":1003,"x_min":9,"x_max":994,"o":"m 587 539 l 761 749 q 849 850 831 834 q 901 885 877 876 q 966 895 926 894 l 966 920 l 627 920 l 627 895 q 688 886 669 895 q 719 861 708 877 q 729 827 729 846 q 654 699 729 791 l 557 581 l 444 754 l 397 825 q 392 850 392 836 q 408 882 392 869 q 463 895 423 895 l 486 895 l 486 920 l 29 920 l 29 895 q 78 880 60 890 q 114 848 96 871 q 180 754 122 839 l 414 410 l 231 188 q 104 58 150 89 q 9 25 70 34 l 9 0 l 363 0 l 363 25 q 304 29 319 25 q 256 54 273 37 q 240 90 240 71 q 303 196 240 118 l 444 368 l 578 169 q 625 93 616 113 q 630 71 630 83 q 614 41 630 54 q 545 25 599 29 l 545 0 l 994 0 l 994 25 q 930 49 957 29 q 840 163 903 69 l 587 539 "},"Y":{"ha":1003,"x_min":12,"x_max":987,"o":"m 987 920 l 707 920 l 707 895 q 791 874 768 891 q 809 844 809 862 q 747 709 809 810 l 582 431 l 416 736 q 361 859 361 834 q 377 883 361 871 q 433 895 393 895 l 453 895 l 453 920 l 12 920 l 12 895 q 83 873 56 894 q 174 736 109 852 l 390 342 l 390 157 q 382 72 390 88 q 355 39 372 49 q 290 25 331 25 l 242 25 l 242 0 l 758 0 l 758 25 l 707 25 q 648 38 670 25 q 618 69 626 52 q 611 157 611 86 l 611 380 l 810 713 q 918 868 884 840 q 987 895 942 888 l 987 920 "},"Z":{"ha":926,"x_min":22,"x_max":902,"o":"m 848 920 l 121 920 l 96 650 l 121 650 q 164 760 137 717 q 234 830 192 804 q 323 865 275 856 q 427 869 348 869 l 564 869 l 22 0 l 865 0 l 902 332 l 876 332 q 795 157 853 222 q 656 67 736 92 q 482 52 606 52 l 307 52 l 848 920 "},"[":{"ha":463,"x_min":145,"x_max":418,"o":"m 145 -254 l 418 -254 l 418 -229 l 387 -229 q 322 -218 338 -229 q 299 -182 305 -206 q 296 -107 296 -172 l 296 768 q 304 855 296 837 q 327 882 312 873 q 387 891 342 891 l 418 891 l 418 920 l 145 920 l 145 -254 "},"\\":{"ha":386,"x_min":1,"x_max":390,"o":"m 1 941 l 302 -21 l 390 -21 l 87 941 l 1 941 "},"]":{"ha":463,"x_min":45,"x_max":318,"o":"m 318 920 l 45 920 l 45 892 l 76 892 q 141 881 125 892 q 164 845 158 869 q 167 770 167 836 l 167 -106 q 159 -192 167 -174 q 136 -219 151 -210 q 76 -228 121 -228 l 45 -228 l 45 -254 l 318 -254 l 318 920 "},"^":{"ha":807,"x_min":100,"x_max":708,"o":"m 100 452 l 203 452 l 400 799 l 600 452 l 708 452 l 434 939 l 378 939 l 100 452 "},"_":{"ha":694,"x_min":-13,"x_max":707,"o":"m -13 -211 l -13 -300 l 707 -300 l 707 -211 l -13 -211 "},"`":{"ha":463,"x_min":26,"x_max":309,"o":"m 26 951 l 251 715 l 309 715 l 230 951 l 26 951 "},"a":{"ha":694,"x_min":62,"x_max":671,"o":"m 397 94 q 434 17 404 42 q 519 -9 465 -9 q 601 14 565 -9 q 671 87 637 37 l 651 103 q 615 78 633 78 q 600 83 606 78 q 589 100 593 89 q 586 155 586 111 l 586 401 q 576 532 586 503 q 508 615 561 576 q 366 653 456 653 q 222 629 291 653 q 114 561 153 606 q 75 468 75 517 q 104 408 75 433 q 176 382 133 382 q 240 405 216 382 q 265 462 265 429 q 239 518 265 489 q 220 553 220 539 q 238 582 220 570 q 311 602 267 602 q 359 588 338 602 q 389 555 381 574 q 397 465 397 536 l 397 401 q 125 247 187 304 q 62 116 62 189 q 98 27 62 62 q 189 -9 134 -9 q 397 94 281 -9 m 397 143 q 318 105 352 105 q 271 123 288 105 q 248 178 248 147 q 275 252 248 216 q 397 355 315 307 l 397 143 "},"b":{"ha":772,"x_min":29,"x_max":713,"o":"m 292 920 l 29 920 l 29 895 q 78 884 64 893 q 100 856 93 875 q 104 788 104 843 l 104 -18 l 127 -18 l 233 50 q 311 -3 271 14 q 403 -19 351 -19 q 561 25 492 -19 q 671 155 630 70 q 713 343 713 239 q 680 506 713 435 q 590 615 648 576 q 467 653 532 653 q 292 570 372 653 l 292 920 m 292 510 q 404 576 346 576 q 475 536 449 576 q 512 336 512 482 q 495 126 512 184 q 454 48 479 68 q 395 28 429 28 q 329 53 355 28 q 296 118 303 78 q 292 228 292 142 l 292 510 "},"c":{"ha":616,"x_min":53,"x_max":585,"o":"m 564 163 q 494 104 524 120 q 431 89 464 89 q 342 118 380 89 q 264 240 293 158 q 236 411 236 321 q 271 571 236 519 q 327 606 294 606 q 363 589 348 606 q 383 529 379 572 q 415 435 389 461 q 481 408 441 408 q 543 431 519 408 q 566 493 566 454 q 508 604 566 554 q 352 653 450 653 q 122 534 205 653 q 53 307 53 436 q 129 77 53 172 q 332 -19 205 -19 q 474 22 407 -19 q 585 147 541 63 l 564 163 "},"d":{"ha":772,"x_min":54,"x_max":741,"o":"m 663 920 l 382 920 l 382 891 q 443 882 427 891 q 467 852 459 872 q 473 765 473 838 l 473 574 q 398 635 433 618 q 317 653 363 653 q 185 612 247 653 q 89 489 124 570 q 54 306 54 408 q 111 90 54 178 q 302 -19 181 -19 q 388 2 350 -19 q 473 81 425 23 l 473 -19 l 741 33 l 741 56 q 688 69 703 58 q 667 102 673 80 q 663 190 663 116 l 663 920 m 473 490 l 473 156 q 361 62 420 62 q 318 75 334 62 q 270 159 288 101 q 252 336 252 216 q 268 498 252 446 q 309 572 284 551 q 351 586 326 586 q 473 490 423 586 "},"e":{"ha":616,"x_min":54,"x_max":584,"o":"m 584 340 q 508 574 578 495 q 340 653 437 653 q 139 559 225 653 q 54 307 54 465 q 112 90 54 177 q 326 -19 184 -19 q 470 25 408 -19 q 584 174 532 68 l 561 189 q 490 107 523 130 q 416 84 456 84 q 303 140 350 84 q 236 340 242 214 l 584 340 m 417 385 l 233 385 l 233 409 q 273 574 233 514 q 330 609 295 609 q 368 597 354 609 q 405 535 393 576 q 417 385 417 494 "},"f":{"ha":463,"x_min":45,"x_max":566,"o":"m 325 568 l 418 568 l 418 634 l 325 634 l 325 715 l 323 833 q 337 886 323 869 q 370 902 350 902 q 396 892 385 902 q 404 871 404 885 q 401 849 404 861 q 397 824 397 830 q 418 783 397 802 q 474 765 439 765 q 541 787 515 765 q 566 840 566 810 q 525 909 566 878 q 401 941 485 941 q 208 876 279 941 q 136 713 136 810 l 137 681 l 137 634 l 45 634 l 45 568 l 137 568 l 137 127 q 130 60 137 76 q 105 34 123 43 q 45 24 87 25 l 45 0 l 418 0 l 418 24 q 338 47 360 22 q 325 127 325 64 l 325 568 "},"g":{"ha":694,"x_min":52,"x_max":669,"o":"m 454 627 q 323 653 387 653 q 128 585 204 653 q 52 424 52 517 q 93 298 52 353 q 224 211 134 244 q 111 134 146 178 q 75 43 75 90 q 163 -77 75 -34 q 76 -119 99 -94 q 52 -175 52 -144 q 83 -237 52 -208 q 184 -283 113 -267 q 340 -300 254 -300 q 541 -267 454 -300 q 634 -197 599 -244 q 669 -92 669 -150 q 593 41 669 -2 q 397 73 539 73 l 279 71 q 219 87 237 71 q 200 127 200 102 q 221 175 200 155 q 272 195 241 195 q 353 191 349 191 q 468 219 404 191 q 571 297 533 248 q 608 415 608 347 q 592 492 608 455 q 546 552 579 519 l 667 552 l 667 627 l 454 627 m 336 611 q 397 578 376 611 q 428 413 428 534 q 401 268 428 305 q 333 231 374 231 q 270 268 296 231 q 243 407 243 306 q 270 571 243 532 q 336 611 297 611 m 296 -94 q 493 -101 456 -94 q 549 -129 530 -109 q 559 -157 559 -140 q 505 -228 559 -203 q 357 -253 451 -253 q 206 -225 246 -253 q 166 -162 166 -197 q 205 -105 166 -126 q 296 -94 227 -94 "},"h":{"ha":772,"x_min":47,"x_max":732,"o":"m 306 920 l 47 920 l 47 895 q 103 871 90 889 q 116 782 116 854 l 116 138 q 104 50 116 65 q 47 24 87 28 l 47 0 l 369 0 l 369 24 q 316 53 329 30 q 306 138 306 70 l 306 477 q 361 543 336 524 q 414 562 387 562 q 447 550 433 562 q 468 519 462 539 q 474 420 474 499 l 474 138 q 462 52 474 69 q 411 24 445 29 l 411 0 l 732 0 l 732 24 q 677 47 691 29 q 664 138 664 65 l 664 385 q 650 539 664 494 q 594 619 636 585 q 492 653 551 653 q 401 630 445 653 q 306 553 358 608 l 306 920 "},"i":{"ha":386,"x_min":28,"x_max":371,"o":"m 199 941 q 125 910 156 941 q 95 836 95 880 q 125 762 95 793 q 199 732 156 732 q 274 762 243 732 q 304 836 304 793 q 274 910 304 880 q 199 941 243 941 m 294 634 l 28 634 l 28 609 q 89 588 73 606 q 104 502 104 569 l 104 132 q 91 49 104 64 q 28 24 71 26 l 28 0 l 371 0 l 371 24 q 310 46 326 27 q 294 132 294 64 l 294 634 "},"j":{"ha":463,"x_min":-39,"x_max":345,"o":"m 241 941 q 168 910 198 941 q 138 838 138 880 q 168 764 138 794 q 241 733 199 733 q 315 764 284 733 q 345 838 345 794 q 315 910 345 880 q 241 941 285 941 m 336 634 l 72 634 l 72 609 q 133 588 119 604 q 148 530 148 572 l 147 494 l 147 102 l 149 -58 q 157 -149 150 -74 q 161 -204 161 -191 q 150 -243 161 -229 q 123 -256 138 -256 q 95 -245 106 -256 q 84 -210 84 -233 q 85 -190 84 -204 q 86 -171 86 -179 q 71 -125 86 -140 q 31 -110 56 -110 q -18 -132 3 -110 q -39 -184 -39 -154 q 1 -266 -39 -232 q 124 -300 41 -300 q 257 -261 207 -300 q 325 -159 308 -222 q 336 -22 336 -115 l 336 634 "},"k":{"ha":772,"x_min":46,"x_max":785,"o":"m 304 920 l 46 920 l 46 895 q 101 871 88 889 q 115 782 115 854 l 115 138 q 103 50 115 65 q 46 24 86 28 l 46 0 l 374 0 l 374 24 q 318 47 332 29 q 304 138 304 65 l 304 252 l 345 292 l 471 108 q 499 50 499 66 q 489 33 499 41 q 458 24 479 24 l 458 0 l 785 0 l 785 24 q 727 50 750 27 q 620 199 710 66 l 471 418 l 540 486 q 659 590 629 572 q 730 609 690 607 l 730 634 l 446 634 l 446 609 q 505 591 490 604 q 519 561 519 579 q 508 523 519 543 q 452 459 497 503 l 304 315 l 304 920 "},"l":{"ha":386,"x_min":29,"x_max":372,"o":"m 295 920 l 29 920 l 29 895 q 90 873 74 892 q 105 788 105 854 l 105 132 q 92 49 105 64 q 29 24 71 26 l 29 0 l 372 0 l 372 24 q 311 46 326 27 q 295 132 295 64 l 295 920 "},"m":{"ha":1157,"x_min":52,"x_max":1121,"o":"m 310 634 l 52 634 l 52 609 q 107 586 94 604 q 120 496 120 568 l 120 138 q 109 50 120 65 q 52 24 92 28 l 52 0 l 378 0 l 378 24 q 323 50 336 28 q 310 138 310 71 l 310 479 q 378 551 346 530 q 427 565 400 565 q 461 553 446 565 q 484 519 477 541 q 491 411 491 497 l 491 138 q 486 66 491 83 q 466 38 481 50 q 424 24 450 26 l 424 0 l 752 0 l 752 24 q 692 52 708 27 q 681 138 681 70 l 681 479 q 741 543 711 522 q 800 564 771 564 q 834 553 820 564 q 856 519 849 542 q 863 411 863 496 l 863 138 q 850 54 863 73 q 793 24 832 28 l 793 0 l 1121 0 l 1121 24 q 1066 47 1079 30 q 1053 138 1053 65 l 1053 398 q 1037 546 1053 500 q 983 623 1022 593 q 878 653 944 653 q 774 626 824 653 q 670 538 724 599 q 606 625 648 596 q 504 653 565 653 q 407 630 451 653 q 310 551 362 608 l 310 634 "},"n":{"ha":772,"x_min":47,"x_max":732,"o":"m 306 634 l 47 634 l 47 609 q 103 586 90 604 q 116 496 116 568 l 116 138 q 104 50 116 65 q 47 24 87 28 l 47 0 l 368 0 l 368 24 q 319 48 332 29 q 306 138 306 67 l 306 478 q 414 562 356 562 q 447 550 432 562 q 467 519 461 539 q 473 420 473 498 l 473 138 q 463 54 473 71 q 411 24 447 29 l 411 0 l 732 0 l 732 24 q 676 47 690 29 q 663 138 663 65 l 663 385 q 652 534 663 495 q 598 619 639 585 q 496 653 557 653 q 399 629 444 653 q 306 552 355 605 l 306 634 "},"o":{"ha":694,"x_min":50,"x_max":645,"o":"m 346 653 q 129 552 208 653 q 50 314 50 450 q 127 81 50 182 q 348 -19 205 -19 q 576 91 494 -19 q 645 317 645 182 q 608 489 645 410 q 500 610 571 568 q 346 653 429 653 m 349 605 q 395 591 377 605 q 433 528 420 571 q 446 370 446 485 q 432 109 446 174 q 397 45 423 68 q 346 28 376 28 q 290 53 315 28 q 258 126 266 78 q 249 262 249 189 q 257 476 249 399 q 289 579 264 553 q 349 605 314 605 "},"p":{"ha":772,"x_min":26,"x_max":712,"o":"m 292 64 q 363 4 330 22 q 461 -19 409 -19 q 592 23 533 -19 q 681 144 650 64 q 712 320 712 224 q 682 487 712 410 q 595 609 652 565 q 468 653 538 653 q 360 621 410 653 q 292 551 326 600 l 292 634 l 26 634 l 26 609 q 87 588 71 606 q 102 502 102 569 l 102 -168 q 89 -248 102 -233 q 26 -272 68 -271 l 26 -297 l 388 -297 l 388 -272 q 324 -264 340 -272 q 300 -238 308 -256 q 292 -172 292 -220 l 292 64 m 292 133 l 292 471 q 405 570 336 570 q 474 530 448 570 q 513 306 513 470 q 477 89 513 146 q 417 50 454 50 q 292 133 351 50 "},"q":{"ha":772,"x_min":53,"x_max":745,"o":"m 473 66 l 473 -174 q 466 -237 473 -222 q 439 -262 458 -253 q 378 -272 420 -272 l 378 -297 l 745 -297 l 745 -272 q 673 -246 691 -271 q 663 -168 663 -231 l 663 653 l 640 653 l 533 579 q 460 635 503 616 q 363 653 418 653 q 209 607 282 653 q 95 475 136 562 q 53 290 53 389 q 108 87 53 172 q 296 -19 177 -19 q 395 5 348 -19 q 473 66 431 23 m 473 128 q 413 75 444 92 q 358 58 382 58 q 290 98 316 58 q 251 302 251 157 q 296 562 251 492 q 376 608 324 608 q 417 595 401 608 q 461 534 449 569 q 473 389 473 498 l 473 128 "},"r":{"ha":616,"x_min":51,"x_max":595,"o":"m 310 634 l 51 634 l 51 609 q 96 597 83 606 q 116 569 109 588 q 121 500 121 554 l 121 149 q 107 47 121 66 q 51 24 92 28 l 51 0 l 393 0 l 393 24 q 339 35 355 26 q 315 62 323 43 q 311 111 311 73 l 310 149 l 310 295 q 332 440 310 374 q 374 506 346 483 q 411 521 391 521 q 427 517 420 521 q 458 491 431 514 q 520 468 484 468 q 573 493 551 468 q 595 564 595 518 q 573 630 595 606 q 512 653 550 653 q 420 621 468 653 q 310 490 373 589 l 310 634 "},"s":{"ha":541,"x_min":55,"x_max":491,"o":"m 448 652 l 425 652 q 401 623 408 628 q 381 618 393 618 q 351 628 370 618 q 252 653 303 653 q 105 594 156 653 q 55 461 55 534 q 100 338 55 394 q 234 229 130 300 q 325 157 304 180 q 345 100 345 133 q 325 52 345 72 q 271 32 304 32 q 171 77 224 32 q 87 211 117 121 l 64 211 l 75 -17 l 97 -17 q 134 17 112 17 q 162 9 142 17 q 283 -19 238 -19 q 390 8 342 -19 q 465 86 438 35 q 491 190 491 137 q 459 295 491 248 q 328 410 428 342 q 207 505 229 477 q 193 541 193 522 q 213 584 193 565 q 260 602 233 602 q 349 567 304 602 q 435 435 393 532 l 458 435 l 448 652 "},"t":{"ha":463,"x_min":26,"x_max":449,"o":"m 298 866 l 276 866 q 171 718 231 784 q 26 591 111 651 l 26 567 l 109 567 l 109 224 q 115 100 109 123 q 169 25 127 58 q 271 -9 210 -9 q 449 121 394 -9 l 429 136 q 345 69 389 69 q 321 79 334 69 q 303 105 309 89 q 298 176 298 121 l 298 567 l 449 567 l 449 634 l 298 634 l 298 866 "},"u":{"ha":772,"x_min":43,"x_max":728,"o":"m 659 634 l 401 634 l 401 609 q 456 586 443 604 q 469 496 469 568 l 469 157 q 404 86 431 104 q 360 73 385 73 q 328 83 342 73 q 308 113 314 94 q 301 201 301 133 l 301 634 l 43 634 l 43 609 q 98 586 85 604 q 111 496 111 568 l 111 245 q 125 91 111 135 q 181 14 140 47 q 277 -19 223 -19 q 378 6 333 -19 q 469 85 424 31 l 469 0 l 728 0 l 728 24 q 673 47 686 29 q 659 138 659 65 l 659 634 "},"v":{"ha":694,"x_min":13,"x_max":682,"o":"m 333 -19 l 365 -19 l 576 479 q 633 587 614 568 q 682 609 652 605 l 682 634 l 475 634 l 475 609 q 529 594 513 608 q 544 560 544 581 q 508 435 544 524 l 425 230 l 320 468 q 290 562 290 537 q 307 597 290 583 q 350 609 318 609 l 350 634 l 13 634 l 13 609 q 59 585 43 603 q 119 473 81 562 l 333 -19 "},"w":{"ha":1003,"x_min":12,"x_max":989,"o":"m 675 -19 l 714 -19 l 892 485 q 939 587 921 569 q 989 609 958 605 l 989 634 l 801 634 l 801 609 q 851 594 838 606 q 864 555 864 582 q 846 489 864 538 l 765 261 l 675 509 q 656 574 656 559 q 666 598 656 590 q 714 609 676 607 l 714 634 l 389 634 l 389 609 q 436 590 421 604 q 472 525 452 576 l 479 509 l 389 261 l 296 509 q 275 578 275 566 q 287 600 275 590 q 332 609 299 609 l 332 634 l 12 634 l 12 609 q 63 578 46 600 q 127 441 90 546 l 296 -19 l 332 -19 l 502 446 l 675 -19 "},"x":{"ha":694,"x_min":32,"x_max":672,"o":"m 422 389 l 488 490 q 569 584 533 559 q 646 609 605 608 l 646 634 l 422 634 l 422 609 q 464 596 452 606 q 476 572 476 586 q 422 467 476 542 l 396 431 l 347 523 q 328 559 330 555 q 324 581 324 570 q 330 596 324 591 l 365 608 l 383 609 l 383 634 l 32 634 l 32 609 q 91 584 64 606 q 171 463 117 562 l 280 260 l 228 183 q 116 50 155 75 q 32 24 78 24 l 32 0 l 280 0 l 280 24 q 239 30 250 24 q 221 45 228 35 q 215 71 215 56 q 220 94 215 81 q 256 150 224 103 l 303 218 l 358 115 q 380 56 380 75 q 370 35 380 43 q 319 24 360 28 l 319 0 l 672 0 l 672 24 q 622 41 640 26 q 532 180 589 71 l 422 389 "},"y":{"ha":694,"x_min":12,"x_max":682,"o":"m 338 -26 l 318 -79 q 254 -209 281 -180 q 220 -229 236 -229 q 204 -221 210 -229 q 198 -188 199 -214 q 177 -121 197 -142 q 122 -99 156 -99 q 63 -125 87 -99 q 39 -190 39 -151 q 74 -268 39 -235 q 165 -300 109 -300 q 282 -243 235 -300 q 384 -26 315 -202 l 565 444 q 631 585 611 564 q 682 609 650 606 l 682 634 l 469 634 l 469 609 q 528 593 511 608 q 545 553 545 578 q 505 410 545 513 l 431 218 l 322 467 q 288 568 288 543 q 302 596 288 585 q 349 609 315 608 l 349 634 l 12 634 l 12 609 q 65 575 43 600 q 133 444 87 551 l 338 -26 "},"z":{"ha":616,"x_min":14,"x_max":594,"o":"m 566 0 l 585 217 l 566 217 q 479 81 537 118 q 292 43 422 43 l 248 43 l 594 616 l 594 634 l 60 634 l 60 450 l 84 450 q 121 543 103 517 q 167 581 138 569 q 261 593 195 593 l 363 593 l 14 15 l 14 0 l 566 0 "},"{":{"ha":547,"x_min":112,"x_max":488,"o":"m 488 941 q 389 928 426 939 q 302 887 342 916 q 235 813 262 859 q 209 724 209 768 q 230 601 209 682 q 245 497 245 543 q 211 401 245 441 q 112 351 177 362 l 112 310 q 211 261 177 299 q 245 170 245 224 q 229 62 245 123 q 208 -66 208 -19 q 240 -165 208 -114 q 333 -249 271 -216 q 465 -281 395 -281 l 488 -281 l 488 -249 q 388 -200 418 -235 q 357 -117 357 -165 q 373 1 357 -67 q 390 109 390 68 q 365 198 390 151 q 290 279 340 245 q 168 332 252 305 q 282 376 246 353 q 361 458 334 410 q 389 552 389 506 q 372 670 389 602 q 356 783 356 737 q 388 862 356 827 q 488 910 420 897 l 488 941 "},"|":{"ha":306,"x_min":108,"x_max":196,"o":"m 108 -300 l 196 -300 l 196 941 l 108 941 l 108 -300 "},"}":{"ha":547,"x_min":62,"x_max":438,"o":"m 62 -281 q 161 -268 124 -278 q 248 -227 208 -255 q 314 -153 288 -198 q 340 -63 340 -108 q 320 60 340 -21 q 305 163 305 117 q 339 259 305 220 q 438 309 372 298 l 438 351 q 339 399 372 361 q 305 490 305 437 q 321 598 305 538 q 342 726 342 680 q 310 826 342 774 q 216 909 279 877 q 85 941 154 942 l 62 941 l 62 909 q 162 861 132 895 q 193 777 193 826 q 176 660 193 728 q 159 551 159 592 q 184 463 159 509 q 260 381 210 416 q 382 329 298 355 q 268 284 304 307 q 189 202 216 250 q 161 108 161 155 q 178 -10 161 58 q 194 -122 194 -77 q 161 -202 194 -167 q 62 -250 129 -237 l 62 -281 "},"~":{"ha":722,"x_min":26,"x_max":765,"o":"m 726 481 q 687 389 720 421 q 606 357 654 357 q 562 363 583 357 q 463 401 528 372 q 273 472 342 452 q 203 481 239 481 q 82 428 132 481 q 26 262 32 374 l 66 262 q 108 356 77 328 q 185 384 139 384 q 328 342 229 384 q 506 273 466 285 q 583 262 547 262 q 709 317 657 262 q 765 481 761 373 l 726 481 "},"Ä":{"ha":1003,"x_min":11,"x_max":987,"o":"m 578 262 l 627 147 q 647 96 646 102 q 651 71 651 83 q 636 40 651 51 q 561 25 614 25 l 543 25 l 543 0 l 987 0 l 987 25 q 922 50 945 28 q 844 184 892 77 l 513 939 l 500 939 l 171 205 q 92 66 124 100 q 11 25 60 33 l 11 0 l 317 0 l 317 25 q 227 41 245 31 q 195 98 195 60 q 214 172 195 127 l 253 262 l 578 262 m 555 312 l 277 312 l 418 629 l 555 312 m 627 1191 q 564 1164 590 1191 q 537 1101 537 1138 q 564 1037 537 1063 q 627 1010 590 1010 q 691 1037 665 1010 q 718 1101 718 1063 q 691 1164 718 1138 q 627 1191 665 1191 m 374 1191 q 310 1164 336 1191 q 283 1101 283 1138 q 310 1037 283 1063 q 374 1010 336 1010 q 437 1037 411 1010 q 464 1101 464 1063 q 438 1164 464 1138 q 374 1191 412 1191 "},"Å":{"ha":1003,"x_min":11,"x_max":987,"o":"m 578 262 l 627 147 q 647 96 646 102 q 651 71 651 83 q 636 40 651 51 q 561 25 614 25 l 543 25 l 543 0 l 987 0 l 987 25 q 922 50 945 28 q 844 184 892 77 l 513 939 l 500 939 l 171 205 q 92 66 124 100 q 11 25 60 33 l 11 0 l 317 0 l 317 25 q 227 41 245 31 q 195 98 195 60 q 214 172 195 127 l 253 262 l 578 262 m 555 312 l 277 312 l 418 629 l 555 312 m 509 1168 q 409 1126 450 1168 q 368 1026 368 1085 q 409 925 368 967 q 509 884 451 884 q 610 925 568 884 q 652 1026 652 967 q 610 1126 652 1085 q 509 1168 569 1168 m 510 1116 q 573 1089 547 1116 q 600 1026 600 1063 q 573 963 600 989 q 510 937 547 937 q 446 963 473 937 q 420 1026 420 989 q 446 1089 420 1063 q 510 1116 472 1116 "},"Ç":{"ha":1003,"x_min":55,"x_max":927,"o":"m 927 941 l 901 941 q 880 890 896 906 q 842 874 864 874 q 763 899 825 874 q 558 941 655 941 q 310 876 427 941 q 124 692 193 810 q 55 443 55 574 q 117 208 55 318 q 293 38 179 97 q 555 -21 408 -21 q 750 15 667 -21 q 911 132 834 52 l 911 212 q 759 81 831 119 q 600 43 687 43 q 428 95 494 43 q 330 248 361 146 q 299 473 299 349 q 342 701 299 598 q 447 830 375 781 q 605 880 519 880 q 789 813 708 880 q 901 622 871 747 l 927 622 l 927 941 m 543 8 l 463 -106 q 508 -120 492 -106 q 524 -154 524 -134 q 500 -207 524 -188 q 408 -229 476 -227 l 408 -261 q 564 -245 513 -262 q 618 -204 597 -233 q 639 -140 639 -175 q 617 -74 639 -100 q 555 -41 596 -48 l 587 8 l 543 8 "},"É":{"ha":926,"x_min":28,"x_max":864,"o":"m 378 867 l 473 867 q 616 854 578 867 q 716 791 681 834 q 772 648 752 747 l 798 648 l 798 920 l 28 920 l 28 895 l 58 895 q 129 876 103 895 q 154 839 147 863 q 157 762 157 825 l 157 157 q 150 72 157 88 q 123 39 140 49 q 58 25 98 25 l 28 25 l 28 0 l 823 0 l 864 292 l 839 292 q 727 111 805 170 q 521 51 650 51 l 466 51 q 409 62 427 51 q 385 90 391 73 q 378 182 378 106 l 378 441 q 479 424 444 441 q 539 357 513 407 q 574 228 566 307 l 600 228 l 600 709 l 574 709 q 524 547 563 602 q 397 492 484 492 l 378 492 l 378 867 m 669 1234 l 465 1234 l 386 998 l 444 998 l 669 1234 "},"Ñ":{"ha":1003,"x_min":20,"x_max":970,"o":"m 346 920 l 20 920 l 20 895 q 84 882 62 893 q 136 833 106 870 l 155 809 l 155 160 q 125 56 155 87 q 20 25 96 26 l 20 0 l 346 0 l 346 25 l 324 25 q 241 53 277 25 q 205 160 205 81 l 205 745 l 827 -21 l 850 -21 l 850 745 q 861 837 850 810 q 892 875 872 863 q 970 895 912 887 l 970 920 l 667 920 l 667 895 q 776 857 743 896 q 800 745 800 827 l 800 349 l 346 920 m 680 1190 q 654 1140 667 1152 q 625 1128 640 1128 q 526 1160 595 1128 q 460 1187 479 1181 q 427 1191 447 1191 q 320 1141 363 1191 q 280 1002 277 1090 l 319 1002 q 338 1051 325 1038 q 372 1065 352 1065 q 461 1033 395 1065 q 572 1001 528 1001 q 674 1046 632 1001 q 716 1166 716 1092 q 715 1190 716 1176 l 680 1190 "},"Ö":{"ha":1080,"x_min":54,"x_max":1031,"o":"m 536 932 q 194 804 333 941 q 54 463 54 667 q 161 147 54 280 q 545 -21 297 -21 q 928 155 793 -21 q 1031 463 1031 288 q 893 804 1031 668 q 536 932 756 941 m 545 889 q 666 852 613 889 q 752 724 718 814 q 786 451 786 633 q 753 202 786 298 q 660 64 720 107 q 543 30 613 30 q 382 109 439 30 q 299 456 299 221 q 353 760 299 654 q 545 889 418 889 m 670 1191 q 606 1164 633 1191 q 580 1101 580 1138 q 606 1037 580 1063 q 670 1010 633 1010 q 734 1037 707 1010 q 760 1101 760 1063 q 734 1164 760 1138 q 670 1191 708 1191 m 416 1191 q 353 1164 379 1191 q 326 1101 326 1138 q 353 1037 326 1063 q 416 1010 379 1010 q 480 1037 454 1010 q 507 1101 507 1063 q 480 1164 507 1138 q 416 1191 454 1191 "},"Ü":{"ha":1003,"x_min":33,"x_max":979,"o":"m 33 920 l 33 895 q 113 884 91 895 q 143 853 134 872 q 152 754 152 833 l 152 304 q 189 121 152 189 q 314 10 225 54 q 498 -22 379 -22 q 724 39 642 -22 q 828 171 807 99 q 850 405 850 243 l 850 754 q 859 832 850 810 q 896 879 870 863 q 960 895 922 895 l 979 895 l 979 920 l 661 920 l 661 895 q 747 879 717 895 q 780 842 767 869 q 793 754 793 816 l 793 379 q 767 174 793 233 q 688 81 741 115 q 561 47 635 47 q 453 74 496 47 q 392 140 410 100 q 373 304 373 180 l 373 754 q 381 852 373 833 q 410 883 390 872 q 484 895 430 895 l 507 895 l 507 920 l 33 920 m 627 1191 q 564 1164 590 1191 q 537 1101 537 1138 q 564 1037 537 1063 q 627 1010 590 1010 q 691 1037 665 1010 q 718 1101 718 1063 q 691 1164 718 1138 q 627 1191 665 1191 m 374 1191 q 310 1164 336 1191 q 283 1101 283 1138 q 310 1037 283 1063 q 374 1010 336 1010 q 437 1037 411 1010 q 464 1101 464 1063 q 438 1164 464 1138 q 374 1191 412 1191 "},"á":{"ha":694,"x_min":62,"x_max":671,"o":"m 397 94 q 434 17 404 42 q 519 -9 465 -9 q 601 14 565 -9 q 671 87 637 37 l 651 103 q 615 78 633 78 q 600 83 606 78 q 589 100 593 89 q 586 155 586 111 l 586 401 q 576 532 586 503 q 508 615 561 576 q 366 653 456 653 q 222 629 291 653 q 114 561 153 606 q 75 468 75 517 q 104 408 75 433 q 176 382 133 382 q 240 405 216 382 q 265 462 265 429 q 239 518 265 489 q 220 553 220 539 q 238 582 220 570 q 311 602 267 602 q 359 588 338 602 q 389 555 381 574 q 397 465 397 536 l 397 401 q 125 247 187 304 q 62 116 62 189 q 98 27 62 62 q 189 -9 134 -9 q 397 94 281 -9 m 397 143 q 318 105 352 105 q 271 123 288 105 q 248 178 248 147 q 275 252 248 216 q 397 355 315 307 l 397 143 m 553 951 l 349 951 l 270 715 l 328 715 l 553 951 "},"à":{"ha":694,"x_min":62,"x_max":671,"o":"m 397 94 q 434 17 404 42 q 519 -9 465 -9 q 601 14 565 -9 q 671 87 637 37 l 651 103 q 615 78 633 78 q 600 83 606 78 q 589 100 593 89 q 586 155 586 111 l 586 401 q 576 532 586 503 q 508 615 561 576 q 366 653 456 653 q 222 629 291 653 q 114 561 153 606 q 75 468 75 517 q 104 408 75 433 q 176 382 133 382 q 240 405 216 382 q 265 462 265 429 q 239 518 265 489 q 220 553 220 539 q 238 582 220 570 q 311 602 267 602 q 359 588 338 602 q 389 555 381 574 q 397 465 397 536 l 397 401 q 125 247 187 304 q 62 116 62 189 q 98 27 62 62 q 189 -9 134 -9 q 397 94 281 -9 m 397 143 q 318 105 352 105 q 271 123 288 105 q 248 178 248 147 q 275 252 248 216 q 397 355 315 307 l 397 143 m 141 951 l 366 715 l 424 715 l 345 951 l 141 951 "},"â":{"ha":694,"x_min":62,"x_max":671,"o":"m 397 94 q 434 17 404 42 q 519 -9 465 -9 q 601 14 565 -9 q 671 87 637 37 l 651 103 q 615 78 633 78 q 600 83 606 78 q 589 100 593 89 q 586 155 586 111 l 586 401 q 576 532 586 503 q 508 615 561 576 q 366 653 456 653 q 222 629 291 653 q 114 561 153 606 q 75 468 75 517 q 104 408 75 433 q 176 382 133 382 q 240 405 216 382 q 265 462 265 429 q 239 518 265 489 q 220 553 220 539 q 238 582 220 570 q 311 602 267 602 q 359 588 338 602 q 389 555 381 574 q 397 465 397 536 l 397 401 q 125 247 187 304 q 62 116 62 189 q 98 27 62 62 q 189 -9 134 -9 q 397 94 281 -9 m 397 143 q 318 105 352 105 q 271 123 288 105 q 248 178 248 147 q 275 252 248 216 q 397 355 315 307 l 397 143 m 426 968 l 273 968 l 128 713 l 184 713 l 350 848 l 511 709 l 564 709 l 426 968 "},"ä":{"ha":694,"x_min":62,"x_max":671,"o":"m 397 94 q 434 17 404 42 q 519 -9 465 -9 q 601 14 565 -9 q 671 87 637 37 l 651 103 q 615 78 633 78 q 600 83 606 78 q 589 100 593 89 q 586 155 586 111 l 586 401 q 576 532 586 503 q 508 615 561 576 q 366 653 456 653 q 222 629 291 653 q 114 561 153 606 q 75 468 75 517 q 104 408 75 433 q 176 382 133 382 q 240 405 216 382 q 265 462 265 429 q 239 518 265 489 q 220 553 220 539 q 238 582 220 570 q 311 602 267 602 q 359 588 338 602 q 389 555 381 574 q 397 465 397 536 l 397 401 q 125 247 187 304 q 62 116 62 189 q 98 27 62 62 q 189 -9 134 -9 q 397 94 281 -9 m 397 143 q 318 105 352 105 q 271 123 288 105 q 248 178 248 147 q 275 252 248 216 q 397 355 315 307 l 397 143 m 475 928 q 412 902 438 928 q 385 838 385 876 q 412 774 385 801 q 475 748 438 748 q 539 774 513 748 q 566 838 566 801 q 539 902 566 876 q 475 928 513 928 m 222 928 q 158 902 184 928 q 132 838 132 876 q 158 774 132 801 q 222 748 184 748 q 286 774 259 748 q 312 838 312 801 q 286 902 312 876 q 222 928 260 928 "},"ã":{"ha":694,"x_min":62,"x_max":671,"o":"m 397 94 q 434 17 404 42 q 519 -9 465 -9 q 601 14 565 -9 q 671 87 637 37 l 651 103 q 615 78 633 78 q 600 83 606 78 q 589 100 593 89 q 586 155 586 111 l 586 401 q 576 532 586 503 q 508 615 561 576 q 366 653 456 653 q 222 629 291 653 q 114 561 153 606 q 75 468 75 517 q 104 408 75 433 q 176 382 133 382 q 240 405 216 382 q 265 462 265 429 q 239 518 265 489 q 220 553 220 539 q 238 582 220 570 q 311 602 267 602 q 359 588 338 602 q 389 555 381 574 q 397 465 397 536 l 397 401 q 125 247 187 304 q 62 116 62 189 q 98 27 62 62 q 189 -9 134 -9 q 397 94 281 -9 m 397 143 q 318 105 352 105 q 271 123 288 105 q 248 178 248 147 q 275 252 248 216 q 397 355 315 307 l 397 143 m 528 929 q 502 880 515 892 q 473 867 488 867 q 374 899 444 867 q 309 926 328 921 q 275 930 295 930 q 169 880 212 930 q 128 742 125 830 l 168 742 q 186 791 173 777 q 220 804 200 804 q 310 772 243 804 q 420 741 376 741 q 522 786 480 741 q 564 906 564 831 q 564 929 564 916 l 528 929 "},"å":{"ha":694,"x_min":62,"x_max":671,"o":"m 397 94 q 434 17 404 42 q 519 -9 465 -9 q 601 14 565 -9 q 671 87 637 37 l 651 103 q 615 78 633 78 q 600 83 606 78 q 589 100 593 89 q 586 155 586 111 l 586 401 q 576 532 586 503 q 508 615 561 576 q 366 653 456 653 q 222 629 291 653 q 114 561 153 606 q 75 468 75 517 q 104 408 75 433 q 176 382 133 382 q 240 405 216 382 q 265 462 265 429 q 239 518 265 489 q 220 553 220 539 q 238 582 220 570 q 311 602 267 602 q 359 588 338 602 q 389 555 381 574 q 397 465 397 536 l 397 401 q 125 247 187 304 q 62 116 62 189 q 98 27 62 62 q 189 -9 134 -9 q 397 94 281 -9 m 397 143 q 318 105 352 105 q 271 123 288 105 q 248 178 248 147 q 275 252 248 216 q 397 355 315 307 l 397 143 m 347 975 q 246 933 288 975 q 205 833 205 892 q 247 732 205 774 q 347 690 288 690 q 447 732 406 690 q 489 833 489 774 q 448 933 489 892 q 347 975 406 975 m 347 922 q 411 896 385 922 q 437 833 437 870 q 410 769 437 795 q 347 743 384 743 q 283 769 310 743 q 257 833 257 795 q 283 896 257 870 q 347 922 309 922 "},"ç":{"ha":616,"x_min":53,"x_max":585,"o":"m 564 163 q 494 104 524 120 q 431 89 464 89 q 342 118 380 89 q 264 240 293 158 q 236 411 236 321 q 271 571 236 519 q 327 606 294 606 q 363 589 348 606 q 383 529 379 572 q 415 435 389 461 q 481 408 441 408 q 543 431 519 408 q 566 493 566 454 q 508 604 566 554 q 352 653 450 653 q 122 534 205 653 q 53 307 53 436 q 129 77 53 172 q 332 -19 205 -19 q 474 22 407 -19 q 585 147 541 63 l 564 163 m 326 8 l 245 -106 q 291 -120 275 -106 q 307 -154 307 -134 q 283 -207 307 -188 q 191 -229 259 -227 l 191 -261 q 347 -245 296 -262 q 401 -204 380 -233 q 422 -140 422 -175 q 400 -74 422 -100 q 338 -41 379 -48 l 370 8 l 326 8 "},"é":{"ha":616,"x_min":54,"x_max":584,"o":"m 584 340 q 508 574 578 495 q 340 653 437 653 q 139 559 225 653 q 54 307 54 465 q 112 90 54 177 q 326 -19 184 -19 q 470 25 408 -19 q 584 174 532 68 l 561 189 q 490 107 523 130 q 416 84 456 84 q 303 140 350 84 q 236 340 242 214 l 584 340 m 417 385 l 233 385 l 233 409 q 273 574 233 514 q 330 609 295 609 q 368 597 354 609 q 405 535 393 576 q 417 385 417 494 m 517 951 l 313 951 l 234 715 l 292 715 l 517 951 "},"è":{"ha":616,"x_min":54,"x_max":584,"o":"m 584 340 q 508 574 578 495 q 340 653 437 653 q 139 559 225 653 q 54 307 54 465 q 112 90 54 177 q 326 -19 184 -19 q 470 25 408 -19 q 584 174 532 68 l 561 189 q 490 107 523 130 q 416 84 456 84 q 303 140 350 84 q 236 340 242 214 l 584 340 m 417 385 l 233 385 l 233 409 q 273 574 233 514 q 330 609 295 609 q 368 597 354 609 q 405 535 393 576 q 417 385 417 494 m 132 951 l 357 715 l 415 715 l 336 951 l 132 951 "},"ê":{"ha":616,"x_min":54,"x_max":584,"o":"m 584 340 q 508 574 578 495 q 340 653 437 653 q 139 559 225 653 q 54 307 54 465 q 112 90 54 177 q 326 -19 184 -19 q 470 25 408 -19 q 584 174 532 68 l 561 189 q 490 107 523 130 q 416 84 456 84 q 303 140 350 84 q 236 340 242 214 l 584 340 m 417 385 l 233 385 l 233 409 q 273 574 233 514 q 330 609 295 609 q 368 597 354 609 q 405 535 393 576 q 417 385 417 494 m 390 968 l 237 968 l 92 713 l 148 713 l 314 848 l 475 709 l 528 709 l 390 968 "},"ë":{"ha":616,"x_min":54,"x_max":584,"o":"m 584 340 q 508 574 578 495 q 340 653 437 653 q 139 559 225 653 q 54 307 54 465 q 112 90 54 177 q 326 -19 184 -19 q 470 25 408 -19 q 584 174 532 68 l 561 189 q 490 107 523 130 q 416 84 456 84 q 303 140 350 84 q 236 340 242 214 l 584 340 m 417 385 l 233 385 l 233 409 q 273 574 233 514 q 330 609 295 609 q 368 597 354 609 q 405 535 393 576 q 417 385 417 494 m 456 928 q 392 902 418 928 q 366 838 366 876 q 392 774 366 801 q 456 748 418 748 q 519 774 493 748 q 546 838 546 801 q 520 902 546 876 q 456 928 494 928 m 202 928 q 138 902 165 928 q 112 838 112 876 q 138 774 112 801 q 202 748 165 748 q 266 774 239 748 q 292 838 292 801 q 266 902 292 876 q 202 928 240 928 "},"í":{"ha":386,"x_min":28,"x_max":401,"o":"m 294 634 l 28 634 l 28 609 q 89 588 73 606 q 104 502 104 569 l 104 132 q 91 49 104 64 q 28 24 71 26 l 28 0 l 371 0 l 371 24 q 310 46 326 27 q 294 132 294 64 l 294 634 m 401 951 l 197 951 l 119 715 l 177 715 l 401 951 "},"ì":{"ha":386,"x_min":-10,"x_max":371,"o":"m 294 634 l 28 634 l 28 609 q 89 588 73 606 q 104 502 104 569 l 104 132 q 91 49 104 64 q 28 24 71 26 l 28 0 l 371 0 l 371 24 q 310 46 326 27 q 294 132 294 64 l 294 634 m -10 951 l 215 715 l 273 715 l 194 951 l -10 951 "},"î":{"ha":386,"x_min":-24,"x_max":412,"o":"m 294 634 l 28 634 l 28 609 q 89 588 73 606 q 104 502 104 569 l 104 132 q 91 49 104 64 q 28 24 71 26 l 28 0 l 371 0 l 371 24 q 310 46 326 27 q 294 132 294 64 l 294 634 m 274 968 l 121 968 l -24 713 l 32 713 l 198 848 l 359 709 l 412 709 l 274 968 "},"ï":{"ha":386,"x_min":-20,"x_max":414,"o":"m 294 634 l 28 634 l 28 609 q 89 588 73 606 q 104 502 104 569 l 104 132 q 91 49 104 64 q 28 24 71 26 l 28 0 l 371 0 l 371 24 q 310 46 326 27 q 294 132 294 64 l 294 634 m 323 928 q 260 902 286 928 q 233 838 233 876 q 260 774 233 801 q 323 748 286 748 q 387 774 361 748 q 414 838 414 801 q 388 902 414 876 q 323 928 361 928 m 70 928 q 6 902 33 928 q -20 838 -20 876 q 6 774 -20 801 q 70 748 33 748 q 134 774 107 748 q 160 838 160 801 q 134 902 160 876 q 70 928 108 928 "},"ñ":{"ha":772,"x_min":47,"x_max":732,"o":"m 306 634 l 47 634 l 47 609 q 103 586 90 604 q 116 496 116 568 l 116 138 q 104 50 116 65 q 47 24 87 28 l 47 0 l 368 0 l 368 24 q 319 48 332 29 q 306 138 306 67 l 306 478 q 414 562 356 562 q 447 550 432 562 q 467 519 461 539 q 473 420 473 498 l 473 138 q 463 54 473 71 q 411 24 447 29 l 411 0 l 732 0 l 732 24 q 676 47 690 29 q 663 138 663 65 l 663 385 q 652 534 663 495 q 598 619 639 585 q 496 653 557 653 q 399 629 444 653 q 306 552 355 605 l 306 634 m 564 929 q 538 880 551 892 q 509 867 524 867 q 410 899 479 867 q 345 926 363 921 q 311 930 331 930 q 204 880 248 930 q 164 742 161 830 l 203 742 q 222 791 209 777 q 256 804 236 804 q 346 772 279 804 q 456 741 412 741 q 558 786 516 741 q 600 906 600 831 q 600 929 600 916 l 564 929 "},"ó":{"ha":694,"x_min":50,"x_max":645,"o":"m 346 653 q 129 552 208 653 q 50 314 50 450 q 127 81 50 182 q 348 -19 205 -19 q 576 91 494 -19 q 645 317 645 182 q 608 489 645 410 q 500 610 571 568 q 346 653 429 653 m 349 605 q 395 591 377 605 q 433 528 420 571 q 446 370 446 485 q 432 109 446 174 q 397 45 423 68 q 346 28 376 28 q 290 53 315 28 q 258 126 266 78 q 249 262 249 189 q 257 476 249 399 q 289 579 264 553 q 349 605 314 605 m 553 951 l 349 951 l 270 715 l 328 715 l 553 951 "},"ò":{"ha":694,"x_min":50,"x_max":645,"o":"m 346 653 q 129 552 208 653 q 50 314 50 450 q 127 81 50 182 q 348 -19 205 -19 q 576 91 494 -19 q 645 317 645 182 q 608 489 645 410 q 500 610 571 568 q 346 653 429 653 m 349 605 q 395 591 377 605 q 433 528 420 571 q 446 370 446 485 q 432 109 446 174 q 397 45 423 68 q 346 28 376 28 q 290 53 315 28 q 258 126 266 78 q 249 262 249 189 q 257 476 249 399 q 289 579 264 553 q 349 605 314 605 m 140 951 l 366 715 l 423 715 l 345 951 l 140 951 "},"ô":{"ha":694,"x_min":50,"x_max":645,"o":"m 346 653 q 129 552 208 653 q 50 314 50 450 q 127 81 50 182 q 348 -19 205 -19 q 576 91 494 -19 q 645 317 645 182 q 608 489 645 410 q 500 610 571 568 q 346 653 429 653 m 349 605 q 395 591 377 605 q 433 528 420 571 q 446 370 446 485 q 432 109 446 174 q 397 45 423 68 q 346 28 376 28 q 290 53 315 28 q 258 126 266 78 q 249 262 249 189 q 257 476 249 399 q 289 579 264 553 q 349 605 314 605 m 425 968 l 272 968 l 127 713 l 183 713 l 349 848 l 511 709 l 563 709 l 425 968 "},"ö":{"ha":694,"x_min":50,"x_max":645,"o":"m 346 653 q 129 552 208 653 q 50 314 50 450 q 127 81 50 182 q 348 -19 205 -19 q 576 91 494 -19 q 645 317 645 182 q 608 489 645 410 q 500 610 571 568 q 346 653 429 653 m 349 605 q 395 591 377 605 q 433 528 420 571 q 446 370 446 485 q 432 109 446 174 q 397 45 423 68 q 346 28 376 28 q 290 53 315 28 q 258 126 266 78 q 249 262 249 189 q 257 476 249 399 q 289 579 264 553 q 349 605 314 605 m 475 928 q 411 902 437 928 q 385 838 385 876 q 411 774 385 801 q 475 748 437 748 q 538 774 512 748 q 565 838 565 801 q 539 902 565 876 q 475 928 513 928 m 221 928 q 157 902 184 928 q 131 838 131 876 q 157 774 131 801 q 221 748 184 748 q 285 774 258 748 q 311 838 311 801 q 285 902 311 876 q 221 928 259 928 "},"õ":{"ha":694,"x_min":50,"x_max":645,"o":"m 346 653 q 129 552 208 653 q 50 314 50 450 q 127 81 50 182 q 348 -19 205 -19 q 576 91 494 -19 q 645 317 645 182 q 608 489 645 410 q 500 610 571 568 q 346 653 429 653 m 349 605 q 395 591 377 605 q 433 528 420 571 q 446 370 446 485 q 432 109 446 174 q 397 45 423 68 q 346 28 376 28 q 290 53 315 28 q 258 126 266 78 q 249 262 249 189 q 257 476 249 399 q 289 579 264 553 q 349 605 314 605 m 527 929 q 501 880 515 892 q 473 867 488 867 q 373 899 443 867 q 308 926 327 921 q 274 930 294 930 q 168 880 211 930 q 127 742 125 830 l 167 742 q 186 791 172 777 q 220 804 199 804 q 309 772 242 804 q 420 741 376 741 q 522 786 479 741 q 564 906 564 831 q 563 929 564 916 l 527 929 "},"ú":{"ha":772,"x_min":43,"x_max":728,"o":"m 659 634 l 401 634 l 401 609 q 456 586 443 604 q 469 496 469 568 l 469 157 q 404 86 431 104 q 360 73 385 73 q 328 83 342 73 q 308 113 314 94 q 301 201 301 133 l 301 634 l 43 634 l 43 609 q 98 586 85 604 q 111 496 111 568 l 111 245 q 125 91 111 135 q 181 14 140 47 q 277 -19 223 -19 q 378 6 333 -19 q 469 85 424 31 l 469 0 l 728 0 l 728 24 q 673 47 686 29 q 659 138 659 65 l 659 634 m 589 951 l 385 951 l 307 715 l 365 715 l 589 951 "},"ù":{"ha":772,"x_min":43,"x_max":728,"o":"m 659 634 l 401 634 l 401 609 q 456 586 443 604 q 469 496 469 568 l 469 157 q 404 86 431 104 q 360 73 385 73 q 328 83 342 73 q 308 113 314 94 q 301 201 301 133 l 301 634 l 43 634 l 43 609 q 98 586 85 604 q 111 496 111 568 l 111 245 q 125 91 111 135 q 181 14 140 47 q 277 -19 223 -19 q 378 6 333 -19 q 469 85 424 31 l 469 0 l 728 0 l 728 24 q 673 47 686 29 q 659 138 659 65 l 659 634 m 176 951 l 401 715 l 458 715 l 380 951 l 176 951 "},"û":{"ha":772,"x_min":43,"x_max":728,"o":"m 659 634 l 401 634 l 401 609 q 456 586 443 604 q 469 496 469 568 l 469 157 q 404 86 431 104 q 360 73 385 73 q 328 83 342 73 q 308 113 314 94 q 301 201 301 133 l 301 634 l 43 634 l 43 609 q 98 586 85 604 q 111 496 111 568 l 111 245 q 125 91 111 135 q 181 14 140 47 q 277 -19 223 -19 q 378 6 333 -19 q 469 85 424 31 l 469 0 l 728 0 l 728 24 q 673 47 686 29 q 659 138 659 65 l 659 634 m 463 968 l 309 968 l 165 713 l 220 713 l 387 848 l 548 709 l 600 709 l 463 968 "},"ü":{"ha":772,"x_min":43,"x_max":728,"o":"m 659 634 l 401 634 l 401 609 q 456 586 443 604 q 469 496 469 568 l 469 157 q 404 86 431 104 q 360 73 385 73 q 328 83 342 73 q 308 113 314 94 q 301 201 301 133 l 301 634 l 43 634 l 43 609 q 98 586 85 604 q 111 496 111 568 l 111 245 q 125 91 111 135 q 181 14 140 47 q 277 -19 223 -19 q 378 6 333 -19 q 469 85 424 31 l 469 0 l 728 0 l 728 24 q 673 47 686 29 q 659 138 659 65 l 659 634 m 512 928 q 448 902 475 928 q 422 838 422 876 q 448 774 422 801 q 512 748 475 748 q 576 774 549 748 q 602 838 602 801 q 576 902 602 876 q 512 928 550 928 m 258 928 q 195 902 221 928 q 168 838 168 876 q 195 774 168 801 q 258 748 221 748 q 322 774 296 748 q 349 838 349 801 q 322 902 349 876 q 258 928 296 928 "},"†":{"ha":694,"x_min":67,"x_max":627,"o":"m 361 -272 l 361 -211 q 380 178 361 40 q 435 406 394 286 q 361 562 372 459 q 456 533 411 558 q 512 505 502 508 q 547 499 529 499 q 603 522 580 499 q 627 576 627 544 q 603 633 627 610 q 543 656 579 656 q 511 652 526 656 q 474 633 504 650 q 412 601 431 608 q 361 592 393 595 q 371 650 365 629 q 400 721 380 681 q 426 781 420 762 q 431 823 431 800 q 406 894 431 868 q 345 920 380 920 q 286 893 311 920 q 260 823 260 866 q 266 784 260 803 q 292 720 271 765 q 328 592 323 652 q 227 627 280 599 q 146 656 173 656 q 91 633 114 656 q 67 578 67 611 q 91 522 67 545 q 149 498 115 498 q 217 522 176 498 q 282 553 259 546 q 328 562 298 559 q 306 470 323 506 q 256 406 290 435 q 304 210 290 311 q 328 -211 328 47 l 328 -272 l 361 -272 "},"°":{"ha":555,"x_min":40,"x_max":509,"o":"m 275 939 q 159 908 216 939 q 72 822 103 878 q 40 704 40 765 q 109 538 40 607 q 275 469 178 469 q 440 538 372 469 q 509 704 509 607 q 478 822 509 765 q 390 908 446 878 q 275 939 334 939 m 275 850 q 378 808 335 850 q 420 705 420 765 q 378 602 420 644 q 275 559 335 559 q 172 602 214 559 q 129 705 129 644 q 171 808 129 765 q 275 850 214 850 "},"¢":{"ha":694,"x_min":87,"x_max":618,"o":"m 597 165 q 461 90 536 90 q 381 115 416 90 q 315 196 346 141 l 423 479 q 459 425 437 441 q 516 408 482 408 q 576 432 553 408 q 599 493 599 455 q 571 573 599 536 q 482 634 543 611 l 589 914 l 541 914 l 439 648 q 375 650 401 650 q 168 550 249 650 q 87 309 87 449 q 117 156 87 227 q 205 37 146 85 l 94 -256 l 141 -256 l 245 10 q 359 -19 300 -19 q 618 149 528 -19 l 597 165 m 408 569 l 291 260 q 269 423 269 353 q 304 571 269 520 q 359 606 328 606 q 408 569 387 606 "},"£":{"ha":694,"x_min":24,"x_max":666,"o":"m 362 531 q 339 677 357 586 q 321 817 321 768 q 338 879 321 859 q 378 899 354 899 q 418 883 404 899 q 433 834 433 867 q 432 811 433 824 q 431 777 431 783 q 455 709 431 734 q 522 683 480 683 q 586 709 561 683 q 610 777 610 734 q 551 891 610 839 q 404 944 492 944 q 207 842 283 944 q 144 647 144 757 q 154 531 144 606 l 28 531 l 28 428 l 176 428 l 224 275 q 235 203 231 245 q 199 212 216 210 q 167 215 182 215 q 62 179 100 215 q 24 94 24 142 q 58 15 24 49 q 147 -19 93 -19 q 229 3 191 -19 q 286 60 256 20 q 378 -3 342 13 q 457 -19 415 -19 q 606 47 546 -19 q 666 234 666 114 l 638 234 q 597 182 625 198 q 487 160 559 160 q 412 164 449 160 q 339 176 375 168 q 372 376 372 277 q 371 428 372 393 l 511 428 l 511 531 l 362 531 m 226 111 q 186 54 210 71 q 136 37 162 37 q 95 52 112 37 q 78 89 78 68 q 96 127 78 111 q 145 143 113 143 q 182 137 165 143 q 226 111 199 130 "},"§":{"ha":694,"x_min":62,"x_max":632,"o":"m 208 547 q 95 428 127 483 q 62 315 62 374 q 120 181 62 250 q 315 20 192 96 q 444 -79 413 -39 q 466 -155 466 -109 q 433 -223 466 -194 q 340 -252 400 -252 q 277 -237 298 -252 q 257 -203 257 -221 q 266 -163 257 -187 q 274 -123 274 -139 q 252 -75 274 -97 q 197 -54 230 -54 q 140 -78 163 -54 q 117 -136 117 -102 q 175 -250 117 -201 q 340 -300 233 -300 q 473 -273 415 -300 q 559 -199 530 -245 q 589 -96 589 -153 q 567 -5 589 -47 q 486 94 546 37 q 600 200 567 150 q 632 311 632 251 q 388 614 632 463 q 260 715 287 678 q 232 794 232 751 q 267 863 232 831 q 352 895 301 895 q 415 877 393 895 q 436 831 436 858 q 432 798 436 818 q 428 765 428 778 q 449 715 428 736 q 503 694 470 694 q 559 717 537 694 q 581 777 581 740 q 518 889 581 837 q 353 941 456 941 q 174 877 243 941 q 104 731 104 814 q 128 640 104 683 q 208 547 152 597 m 244 517 q 427 382 404 401 q 502 300 477 343 q 517 240 517 272 q 503 183 517 212 q 452 122 488 155 l 266 260 q 199 333 219 298 q 180 400 180 367 q 244 517 180 462 "},"•":{"ha":486,"x_min":52,"x_max":439,"o":"m 246 652 q 109 596 165 652 q 52 458 52 539 q 109 321 52 378 q 246 264 165 264 q 383 321 326 264 q 439 458 439 378 q 383 596 439 539 q 246 652 327 652 "},"¶":{"ha":750,"x_min":1,"x_max":752,"o":"m 433 868 l 557 868 l 557 -300 l 624 -300 l 624 752 q 631 842 624 825 q 662 878 642 865 q 722 890 682 890 l 752 890 l 752 920 l 454 920 q 236 907 301 920 q 147 876 186 899 q 72 813 109 854 q 18 727 35 772 q 1 612 1 682 q 42 445 1 519 q 161 333 83 370 q 366 291 239 296 l 366 -300 l 433 -300 l 433 868 "},"ß":{"ha":772,"x_min":39,"x_max":703,"o":"m 294 0 l 294 732 q 304 840 294 815 q 338 882 313 864 q 385 895 357 895 q 460 851 438 895 q 475 727 475 821 q 473 640 475 656 q 448 593 466 608 q 391 578 431 578 l 391 537 q 463 519 440 534 q 495 478 486 504 q 503 376 503 453 l 503 279 q 507 218 503 239 q 520 172 508 210 q 545 83 545 100 q 533 52 545 65 q 508 38 521 38 q 485 46 495 38 q 475 58 475 54 l 479 119 q 468 138 479 123 q 446 160 457 154 q 414 166 434 166 q 367 148 385 166 q 349 98 349 130 q 384 24 349 56 q 483 -7 419 -7 q 595 27 544 -7 q 675 130 647 62 q 703 291 703 199 q 677 429 703 366 q 612 522 652 492 q 503 567 573 553 q 617 612 583 581 q 664 739 664 657 q 597 884 664 827 q 389 941 530 941 q 240 911 308 941 q 140 828 172 882 q 107 679 107 774 l 107 138 q 92 50 107 70 q 39 24 77 29 l 39 0 l 294 0 "},"®":{"ha":1038,"x_min":40,"x_max":1002,"o":"m 521 941 q 285 879 400 941 q 105 701 170 817 q 40 460 40 585 q 104 220 40 335 q 282 42 168 106 q 521 -21 396 -21 q 760 42 646 -21 q 939 220 875 106 q 1002 460 1002 335 q 938 701 1002 585 q 758 879 873 817 q 521 941 642 941 m 521 880 q 728 826 627 880 q 885 670 829 772 q 941 460 941 569 q 886 251 941 351 q 730 95 830 151 q 521 39 630 39 q 312 95 412 39 q 156 251 212 151 q 100 460 100 351 q 157 670 100 569 q 314 826 214 772 q 521 880 415 880 m 264 739 l 264 716 q 312 697 300 712 q 324 626 324 682 l 324 306 q 307 228 324 248 q 253 214 295 214 l 253 191 l 540 191 l 540 214 q 474 232 489 216 q 458 306 458 248 l 458 440 l 490 440 l 629 191 l 793 191 l 793 214 q 764 226 774 217 q 722 281 742 244 l 629 450 q 720 505 690 467 q 750 591 750 543 q 682 709 750 667 q 509 739 633 739 l 264 739 m 458 475 l 458 709 l 484 709 q 575 680 545 709 q 604 593 604 650 q 573 505 604 538 q 497 471 541 471 q 458 475 481 471 "},"©":{"ha":1038,"x_min":40,"x_max":1002,"o":"m 521 941 q 285 879 400 941 q 105 701 170 817 q 40 460 40 585 q 104 220 40 335 q 282 42 168 106 q 521 -21 396 -21 q 760 42 646 -21 q 939 220 875 106 q 1002 460 1002 335 q 938 701 1002 585 q 758 879 873 817 q 521 941 642 941 m 521 880 q 728 826 627 880 q 885 670 829 772 q 941 460 941 569 q 886 251 941 351 q 730 95 830 151 q 521 39 630 39 q 312 95 412 39 q 156 251 212 151 q 100 460 100 351 q 157 670 100 569 q 314 826 214 772 q 521 880 415 880 m 748 750 l 722 750 q 712 724 720 732 q 691 715 703 715 q 660 724 682 715 q 526 751 585 751 q 313 667 397 751 q 228 453 228 583 q 307 254 228 331 q 513 177 386 177 q 729 263 647 177 l 729 311 q 552 217 652 217 q 430 275 479 217 q 380 471 380 334 q 431 658 380 599 q 555 718 481 718 q 663 679 617 718 q 722 571 709 640 l 748 571 l 748 750 "},"™":{"ha":1389,"x_min":-2,"x_max":1396,"o":"m -2 920 l -2 766 l 20 766 q 56 857 25 829 q 152 884 87 884 l 176 884 l 176 488 q 171 423 176 437 q 156 404 165 409 q 106 395 146 398 l 106 372 l 414 372 l 414 395 q 356 414 371 395 q 344 486 344 429 l 344 884 l 370 884 q 468 855 437 884 q 501 766 498 826 l 525 766 l 525 920 l -2 920 m 600 920 l 600 894 q 649 887 637 894 q 668 866 661 880 q 674 804 674 852 l 674 487 q 668 425 674 439 q 650 404 663 410 q 600 395 638 397 l 600 372 l 790 372 l 790 395 q 737 405 753 396 q 716 429 722 414 q 712 486 712 439 l 712 826 l 928 372 l 944 372 l 1161 826 l 1161 483 q 1147 412 1161 427 q 1084 395 1133 397 l 1084 372 l 1396 372 l 1396 395 q 1338 418 1354 398 q 1328 483 1328 431 l 1328 803 q 1334 867 1328 853 q 1352 887 1339 880 q 1396 894 1364 894 l 1396 920 l 1161 920 l 1006 584 l 849 920 l 600 920 "},"´":{"ha":463,"x_min":155,"x_max":437,"o":"m 437 951 l 233 951 l 155 715 l 213 715 l 437 951 "},"¨":{"ha":463,"x_min":15,"x_max":449,"o":"m 359 928 q 295 901 321 928 q 269 838 269 875 q 295 774 269 800 q 359 747 321 747 q 422 774 396 747 q 449 838 449 800 q 423 901 449 875 q 359 928 397 928 m 105 928 q 41 901 68 928 q 15 838 15 875 q 41 774 15 800 q 105 747 68 747 q 169 774 142 747 q 195 838 195 800 q 169 901 195 875 q 105 928 143 928 "},"≠":{"ha":762,"x_min":10,"x_max":752,"o":"m 10 585 l 10 479 l 376 479 l 293 265 l 10 265 l 10 159 l 252 159 l 111 -198 l 203 -198 l 344 159 l 752 159 l 752 265 l 385 265 l 469 479 l 752 479 l 752 585 l 510 585 l 649 943 l 558 943 l 417 585 l 10 585 "},"Æ":{"ha":1389,"x_min":-16,"x_max":1326,"o":"m 1261 920 l 427 920 l 427 895 q 510 888 491 895 q 539 868 529 882 q 550 837 550 853 q 504 745 550 819 l 132 153 q 52 52 83 75 q -16 25 21 29 l -16 0 l 283 0 l 283 25 q 197 45 221 26 q 173 90 173 64 q 180 127 173 108 q 216 189 185 140 l 345 395 l 643 395 l 643 161 q 640 83 643 94 q 611 41 633 57 q 529 25 589 25 l 477 25 l 477 0 l 1284 0 l 1326 290 l 1301 290 q 1241 159 1275 205 q 1146 81 1207 112 q 1020 50 1086 50 l 966 50 q 891 61 909 50 q 867 93 873 72 q 864 165 864 106 l 864 446 l 888 446 q 964 424 930 446 q 1016 364 998 401 q 1053 228 1043 309 l 1076 228 l 1076 709 l 1053 709 q 994 539 1036 584 q 888 494 952 494 l 864 494 l 864 866 l 936 866 q 1099 848 1048 866 q 1183 783 1149 829 q 1235 647 1217 736 l 1261 647 l 1261 920 m 643 446 l 376 446 l 643 866 l 643 446 "},"Ø":{"ha":1080,"x_min":55,"x_max":1030,"o":"m 990 930 l 951 963 l 847 842 q 545 941 721 941 q 296 880 411 941 q 118 706 182 819 q 55 463 55 593 q 93 267 55 362 q 205 102 132 171 l 100 -19 l 137 -52 l 243 69 q 392 2 309 25 q 547 -21 475 -21 q 783 37 667 -21 q 965 209 899 96 q 1030 461 1030 322 q 886 809 1030 668 l 990 930 m 747 727 l 323 237 q 300 452 300 345 q 378 803 300 698 q 543 888 441 888 q 670 845 616 888 q 747 727 711 813 m 342 182 l 765 669 q 780 571 777 607 q 785 446 785 521 q 758 227 785 309 q 670 72 723 115 q 543 29 616 29 q 428 63 474 29 q 342 182 382 97 "},"∞":{"ha":990,"x_min":36,"x_max":954,"o":"m 443 452 q 347 577 392 547 q 244 608 302 608 q 98 539 161 608 q 36 359 36 471 q 103 178 36 248 q 269 109 171 109 q 393 145 342 109 q 488 267 445 182 q 592 122 554 155 q 717 73 650 73 q 880 153 807 73 q 954 357 954 233 q 878 562 954 483 q 694 640 803 640 q 544 600 599 640 q 443 452 489 559 m 508 315 q 578 488 562 457 q 642 564 607 540 q 724 587 677 587 q 856 522 797 587 q 915 357 915 457 q 859 196 915 256 q 720 136 803 136 q 608 173 658 136 q 508 315 559 209 m 423 400 q 343 219 375 257 q 229 161 294 161 q 121 215 169 161 q 73 359 73 269 q 122 495 73 444 q 242 545 170 545 q 347 510 304 545 q 423 400 390 475 "},"±":{"ha":762,"x_min":10,"x_max":752,"o":"m 11 505 l 11 415 l 337 415 l 337 181 l 10 181 l 11 92 l 752 92 l 752 182 l 427 182 l 426 415 l 752 415 l 752 505 l 426 505 l 426 830 l 337 830 l 337 505 l 11 505 "},"≤":{"ha":762,"x_min":9,"x_max":753,"o":"m 752 149 l 752 265 l 154 509 l 752 753 l 752 869 l 10 557 l 10 461 l 752 149 m 9 -20 l 9 -125 l 753 -125 l 753 -20 l 9 -20 "},"≥":{"ha":762,"x_min":9,"x_max":753,"o":"m 10 869 l 10 753 l 608 509 l 10 264 l 10 149 l 752 461 l 752 557 l 10 869 m 9 -20 l 9 -125 l 753 -125 l 753 -20 l 9 -20 "},"¥":{"ha":694,"x_min":0,"x_max":693,"o":"m 475 418 l 592 755 q 641 857 619 833 q 693 890 662 881 l 693 920 l 494 920 l 494 890 q 548 879 536 888 q 559 850 559 870 q 533 741 559 819 l 422 418 l 287 790 q 267 859 267 844 q 280 880 267 870 q 334 890 293 889 l 334 920 l 0 920 l 0 890 q 43 871 28 887 q 98 764 68 846 l 222 418 l 0 418 l 0 367 l 240 367 l 250 340 l 250 248 l 0 248 l 0 196 l 250 196 l 250 169 q 240 74 250 96 q 206 39 231 52 q 124 25 180 25 l 101 25 l 101 0 l 583 0 l 583 25 l 558 25 q 485 41 507 25 q 454 86 463 56 q 448 166 448 104 l 448 196 l 693 196 l 693 248 l 448 248 l 448 340 l 457 367 l 693 367 l 693 418 l 475 418 "},"µ":{"ha":800,"x_min":54,"x_max":777,"o":"m 103 634 l 103 176 q 97 8 103 57 q 70 -126 92 -41 q 54 -220 54 -190 q 73 -278 54 -258 q 127 -299 93 -299 q 185 -275 163 -299 q 208 -210 208 -252 q 191 -129 208 -186 q 171 -46 175 -71 q 168 19 168 -22 q 221 -12 201 -5 q 269 -19 241 -19 q 368 6 321 -19 q 466 87 415 31 q 518 7 483 33 q 602 -19 553 -19 q 724 33 674 -19 q 777 181 774 85 l 747 181 q 724 100 742 124 q 696 83 711 83 q 663 101 676 83 q 650 174 650 119 l 649 210 l 649 634 l 461 634 l 461 156 q 349 74 410 74 q 307 92 321 74 q 292 163 292 110 l 292 634 l 103 634 "},"∂":{"ha":686,"x_min":50,"x_max":655,"o":"m 248 780 q 312 823 278 810 q 401 837 347 837 q 535 798 487 837 q 614 618 614 734 q 608 532 614 587 q 448 633 559 633 q 320 603 385 633 q 195 513 256 573 q 92 370 134 453 q 50 199 50 287 q 76 91 50 143 q 150 11 101 38 q 264 -16 199 -16 q 422 37 356 -16 q 583 285 511 109 q 655 706 655 462 q 607 903 655 834 q 456 972 559 972 q 316 926 378 972 q 220 780 255 879 l 248 780 m 597 469 q 440 109 553 241 q 304 30 372 30 q 244 54 264 30 q 224 144 224 78 q 263 380 224 256 q 360 557 302 503 q 452 599 405 599 q 537 569 499 599 q 597 469 574 538 "},"∑":{"ha":990,"x_min":29,"x_max":963,"o":"m 920 -300 l 963 -18 l 936 -13 q 893 -116 919 -83 q 829 -161 868 -149 q 726 -180 773 -180 l 171 -180 l 597 395 l 216 908 l 718 908 q 834 868 793 908 q 887 734 876 828 l 914 734 l 896 963 l 29 963 l 29 938 l 483 336 l 29 -275 l 29 -300 l 920 -300 "},"∏":{"ha":1143,"x_min":31,"x_max":1112,"o":"m 841 910 l 841 -169 q 816 -250 841 -226 q 731 -274 791 -274 l 707 -274 l 707 -300 l 1112 -300 l 1112 -274 l 1088 -274 q 1004 -250 1029 -274 q 979 -169 979 -225 l 979 833 q 1004 913 979 889 q 1088 938 1029 938 l 1112 938 l 1112 963 l 31 963 l 31 938 l 55 938 q 140 913 115 938 q 165 833 165 889 l 165 -169 q 140 -250 165 -226 q 55 -274 115 -274 l 31 -274 l 31 -300 l 436 -300 l 436 -274 l 412 -274 q 327 -250 352 -274 q 302 -169 302 -225 l 302 910 l 841 910 "},"∫":{"ha":380,"x_min":-2,"x_max":378,"o":"m 134 607 q 142 309 134 477 q 159 79 148 176 q 165 -2 165 26 q 158 -34 165 -24 q 139 -43 151 -43 q 106 -22 125 -43 q 59 0 86 0 q 15 -18 33 0 q -2 -67 -2 -37 q 20 -126 -2 -103 q 78 -149 43 -149 q 169 -104 132 -149 q 230 167 224 -33 q 241 567 241 519 q 216 1017 241 738 q 210 1115 210 1087 q 217 1148 210 1139 q 237 1158 225 1158 q 264 1145 248 1158 q 315 1120 292 1120 q 360 1140 342 1120 q 378 1191 378 1159 q 352 1241 378 1218 q 293 1263 327 1263 q 230 1241 262 1263 q 180 1174 198 1219 q 146 1001 151 1105 l 134 607 "},"ª":{"ha":416,"x_min":31,"x_max":427,"o":"m 248 603 q 272 556 253 572 q 328 541 292 541 q 427 599 385 541 l 414 608 q 391 593 402 593 q 380 597 385 593 q 374 607 376 600 q 372 640 372 613 l 372 787 q 361 876 372 852 q 315 919 351 900 q 222 939 278 939 q 80 897 136 939 q 40 829 40 867 q 58 792 40 808 q 105 776 76 776 q 147 790 132 776 q 163 825 163 804 q 146 858 163 840 q 134 879 134 871 q 144 895 134 888 q 191 908 163 908 q 225 899 211 908 q 243 879 239 890 q 248 825 248 868 l 248 787 q 60 684 98 724 q 31 618 31 653 q 54 563 31 585 q 114 541 77 541 q 248 603 174 541 m 248 633 q 197 610 220 610 q 164 623 177 610 q 152 655 152 636 q 169 697 152 676 q 248 760 195 731 l 248 633 "},"º":{"ha":458,"x_min":38,"x_max":425,"o":"m 230 939 q 93 882 147 939 q 38 735 38 825 q 92 591 38 647 q 232 535 146 535 q 371 591 317 535 q 425 737 425 646 q 370 883 425 827 q 230 939 315 939 m 233 909 q 278 884 261 909 q 295 766 295 859 q 286 612 295 651 q 266 576 281 589 q 231 563 251 563 q 185 589 203 563 q 167 701 167 616 q 176 860 167 819 q 196 897 181 885 q 233 909 212 909 "},"Ω":{"ha":1067,"x_min":6,"x_max":1064,"o":"m 484 139 q 383 203 414 168 q 315 351 342 250 q 288 583 288 452 q 369 899 288 795 q 538 982 433 982 q 710 888 638 982 q 783 576 783 794 q 765 390 783 475 q 723 258 747 304 q 671 186 699 211 q 586 139 643 162 l 586 0 l 1013 0 l 1064 244 l 979 244 q 946 159 965 176 q 876 143 927 143 l 824 143 q 712 135 776 143 l 720 153 q 837 185 794 164 q 914 245 880 206 q 986 378 960 296 q 1012 552 1012 460 q 958 792 1012 680 q 792 967 904 905 q 527 1029 681 1029 q 290 974 398 1029 q 120 806 181 918 q 58 547 58 694 q 83 380 58 458 q 145 258 109 302 q 229 189 182 213 q 350 153 275 164 l 359 135 q 246 143 299 143 l 195 143 q 115 169 136 143 q 91 244 105 181 l 6 244 l 58 0 l 485 0 l 484 139 "},"æ":{"ha":1003,"x_min":61,"x_max":963,"o":"m 963 338 q 887 577 956 501 q 709 653 819 653 q 616 635 655 653 q 538 575 577 616 q 472 627 505 612 q 348 653 416 653 q 163 599 250 653 q 76 470 76 545 q 104 406 76 433 q 170 379 132 379 q 241 407 209 379 q 264 458 264 427 q 239 514 264 489 q 220 536 222 532 q 217 546 217 541 q 237 578 217 563 q 305 600 265 600 q 369 583 341 600 q 406 542 397 566 q 415 450 415 517 l 415 398 q 117 226 173 289 q 61 103 61 163 q 100 18 61 54 q 206 -19 140 -19 q 335 8 268 -19 q 473 90 401 36 q 553 14 510 39 q 682 -19 610 -19 q 841 21 779 -19 q 963 170 903 62 l 941 186 q 781 82 877 82 q 664 141 716 82 q 597 338 611 200 l 963 338 m 797 383 l 595 383 q 616 524 595 465 q 661 593 632 569 q 702 606 679 606 q 763 573 740 606 q 798 416 798 524 q 797 383 798 406 m 415 356 q 424 218 415 267 q 454 126 433 170 q 387 96 417 106 q 334 85 357 85 q 274 110 299 85 q 248 166 248 134 q 280 251 248 214 q 415 356 312 288 "},"ø":{"ha":694,"x_min":46,"x_max":649,"o":"m 649 641 l 616 671 l 541 584 q 454 637 496 621 q 355 653 412 653 q 136 552 214 653 q 58 315 58 450 q 74 196 58 251 q 121 99 87 154 l 46 11 l 78 -19 l 151 64 q 250 0 204 18 q 355 -19 296 -19 q 507 22 437 -19 q 613 143 576 63 q 649 321 649 224 q 631 450 649 395 q 572 552 616 492 l 649 641 m 446 475 l 260 254 q 262 429 261 406 q 280 548 267 515 q 316 595 294 580 q 360 605 332 605 q 416 577 392 605 q 446 475 439 549 m 260 189 l 450 410 q 452 274 452 281 q 435 103 452 158 q 399 43 423 62 q 352 29 382 29 q 290 63 316 29 q 260 189 263 97 "},"¿":{"ha":694,"x_min":78,"x_max":610,"o":"m 372 659 q 294 627 326 659 q 262 550 262 595 q 295 473 262 505 q 372 441 327 441 q 449 473 417 441 q 481 550 481 505 q 450 627 481 595 q 372 659 418 659 m 365 341 q 338 235 359 270 q 250 155 317 200 q 113 34 148 88 q 78 -85 78 -20 q 147 -237 78 -174 q 347 -300 216 -300 q 541 -239 471 -300 q 610 -98 610 -178 q 584 -27 610 -54 q 520 0 557 0 q 464 -22 486 0 q 441 -78 441 -45 q 470 -168 441 -115 q 483 -201 483 -191 q 464 -233 483 -218 q 402 -252 439 -252 q 319 -210 354 -252 q 283 -77 283 -167 q 295 21 283 -18 q 341 126 306 61 q 385 229 376 192 q 393 341 394 267 l 365 341 "},"¡":{"ha":463,"x_min":119,"x_max":345,"o":"m 231 660 q 153 628 185 660 q 121 549 121 595 q 153 472 121 504 q 231 439 185 439 q 308 472 276 439 q 340 549 340 504 q 309 628 340 595 q 231 660 277 660 m 216 342 q 189 155 208 234 l 153 7 q 119 -185 119 -134 q 151 -267 119 -235 q 232 -300 183 -300 q 313 -268 282 -300 q 345 -183 345 -235 q 313 7 345 -125 l 277 155 q 247 342 251 265 l 216 342 "},"¬":{"ha":791,"x_min":28,"x_max":770,"o":"m 28 612 l 28 525 l 682 526 l 682 303 l 770 303 l 770 612 l 28 612 "},"√":{"ha":762,"x_min":59,"x_max":764,"o":"m 714 1267 l 538 165 l 263 724 l 59 621 l 82 578 l 216 640 l 553 -53 l 764 1267 l 714 1267 "},"ƒ":{"ha":694,"x_min":-1,"x_max":695,"o":"m 482 532 l 586 532 l 602 614 l 498 614 q 507 699 507 667 q 504 752 507 716 q 501 815 501 789 q 521 885 501 861 q 566 909 541 909 q 578 905 573 909 q 584 895 584 901 q 581 884 584 891 q 562 833 562 848 q 579 794 562 811 q 622 777 596 777 q 674 799 653 777 q 695 854 695 821 q 667 917 695 892 q 586 941 639 941 q 467 903 516 941 q 381 766 418 864 q 311 642 345 669 q 211 614 277 614 l 194 532 l 290 532 l 216 168 q 194 40 198 77 q 189 -50 189 3 q 191 -106 189 -76 q 195 -175 195 -157 q 179 -237 195 -216 q 143 -258 162 -258 q 129 -254 134 -258 q 123 -243 123 -249 q 130 -223 123 -239 q 132 -207 132 -216 q 117 -171 132 -184 q 69 -154 98 -154 q 20 -174 40 -154 q -1 -221 -1 -195 q 27 -276 -1 -252 q 105 -300 55 -300 q 233 -250 171 -300 q 331 -119 295 -201 q 414 193 367 -37 l 482 532 "},"≈":{"ha":762,"x_min":9,"x_max":754,"o":"m 711 743 q 673 653 705 684 q 595 622 641 622 q 551 627 571 622 q 453 664 518 636 q 268 734 336 715 q 193 744 232 744 q 63 684 112 744 q 9 511 14 625 l 52 511 q 94 605 64 577 q 168 632 123 632 q 309 591 212 632 q 485 523 443 534 q 564 511 526 511 q 698 572 644 511 q 754 743 753 633 l 711 743 m 711 398 q 673 307 705 338 q 595 276 641 276 q 551 281 571 276 q 453 319 519 290 q 267 389 335 370 q 193 399 232 399 q 63 339 112 399 q 9 166 14 279 l 52 166 q 94 259 64 231 q 168 286 123 286 q 309 245 213 286 q 485 177 443 189 q 565 165 527 165 q 698 227 644 165 q 754 398 753 288 l 711 398 "},"∆":{"ha":850,"x_min":20,"x_max":833,"o":"m 833 0 l 446 941 l 20 0 l 833 0 m 673 56 l 104 56 l 403 711 l 673 56 "},"«":{"ha":694,"x_min":24,"x_max":669,"o":"m 617 5 l 669 5 l 510 318 l 669 629 l 621 629 l 333 318 l 617 5 m 311 5 l 365 5 l 203 321 l 365 629 l 311 629 l 24 318 l 311 5 "},"»":{"ha":694,"x_min":26,"x_max":671,"o":"m 78 629 l 26 629 l 184 316 l 26 5 l 75 5 l 361 316 l 78 629 m 384 629 l 330 629 l 492 313 l 330 5 l 384 5 l 671 316 l 384 629 "},"…":{"ha":1389,"x_min":119,"x_max":1270,"o":"m 231 209 q 152 176 184 209 q 119 96 119 142 q 152 16 119 49 q 231 -17 184 -17 q 311 16 278 -17 q 345 96 345 49 q 312 176 345 142 q 231 209 279 209 m 694 208 q 615 175 648 208 q 582 96 582 142 q 615 16 582 49 q 694 -17 648 -17 q 774 16 741 -17 q 807 96 807 49 q 774 175 807 142 q 694 208 741 208 m 1158 207 q 1078 174 1111 207 q 1045 94 1045 141 q 1078 15 1045 47 q 1158 -18 1111 -18 q 1237 15 1204 -18 q 1270 94 1270 47 q 1238 174 1270 141 q 1158 207 1205 207 "},"À":{"ha":1003,"x_min":11,"x_max":987,"o":"m 578 262 l 627 147 q 647 96 646 102 q 651 71 651 83 q 636 40 651 51 q 561 25 614 25 l 543 25 l 543 0 l 987 0 l 987 25 q 922 50 945 28 q 844 184 892 77 l 513 939 l 500 939 l 171 205 q 92 66 124 100 q 11 25 60 33 l 11 0 l 317 0 l 317 25 q 227 41 245 31 q 195 98 195 60 q 214 172 195 127 l 253 262 l 578 262 m 555 312 l 277 312 l 418 629 l 555 312 m 293 1234 l 518 998 l 576 998 l 497 1234 l 293 1234 "},"Ã":{"ha":1003,"x_min":11,"x_max":987,"o":"m 578 262 l 627 147 q 647 96 646 102 q 651 71 651 83 q 636 40 651 51 q 561 25 614 25 l 543 25 l 543 0 l 987 0 l 987 25 q 922 50 945 28 q 844 184 892 77 l 513 939 l 500 939 l 171 205 q 92 66 124 100 q 11 25 60 33 l 11 0 l 317 0 l 317 25 q 227 41 245 31 q 195 98 195 60 q 214 172 195 127 l 253 262 l 578 262 m 555 312 l 277 312 l 418 629 l 555 312 m 680 1188 q 654 1139 668 1151 q 626 1126 641 1126 q 526 1158 596 1126 q 461 1185 480 1180 q 427 1190 448 1190 q 321 1139 364 1190 q 281 1001 278 1089 l 320 1001 q 339 1050 326 1036 q 373 1063 353 1063 q 462 1031 395 1063 q 573 1000 529 1000 q 675 1045 633 1000 q 717 1165 717 1090 q 716 1188 717 1175 l 680 1188 "},"Õ":{"ha":1080,"x_min":54,"x_max":1031,"o":"m 536 932 q 194 804 333 941 q 54 463 54 667 q 161 147 54 280 q 545 -21 297 -21 q 928 155 793 -21 q 1031 463 1031 288 q 893 804 1031 668 q 536 932 756 941 m 545 889 q 666 852 613 889 q 752 724 718 814 q 786 451 786 633 q 753 202 786 298 q 660 64 720 107 q 543 30 613 30 q 382 109 439 30 q 299 456 299 221 q 353 760 299 654 q 545 889 418 889 m 722 1190 q 696 1140 710 1152 q 668 1128 683 1128 q 568 1160 638 1128 q 503 1187 522 1181 q 469 1191 490 1191 q 363 1141 406 1191 q 323 1002 320 1090 l 362 1002 q 381 1051 368 1038 q 415 1065 395 1065 q 504 1033 437 1065 q 615 1001 571 1001 q 717 1046 675 1001 q 759 1166 759 1092 q 758 1190 759 1176 l 722 1190 "},"Œ":{"ha":1389,"x_min":50,"x_max":1322,"o":"m 1256 920 l 763 920 q 671 923 707 920 q 502 932 584 932 q 159 773 288 932 q 50 460 50 639 q 113 215 50 331 q 295 37 175 100 q 520 -12 389 -12 q 699 -4 606 -12 q 770 0 749 0 l 1280 0 l 1322 291 l 1297 291 q 1191 113 1268 174 q 1003 51 1114 51 l 962 51 q 895 62 913 51 q 876 87 882 69 q 870 208 870 105 l 870 440 l 892 440 q 987 397 947 440 q 1048 227 1027 354 l 1074 227 l 1074 708 l 1048 708 q 1030 608 1044 649 q 999 544 1016 566 q 956 508 981 521 q 892 491 923 491 l 870 491 l 870 865 l 979 865 q 1099 843 1048 865 q 1183 774 1149 822 q 1229 646 1216 726 l 1256 646 l 1256 920 m 649 696 l 649 204 q 620 74 649 106 q 522 41 591 41 q 368 119 427 41 q 294 429 294 216 q 370 793 294 688 q 526 876 429 876 q 613 847 578 876 q 646 789 638 827 q 649 696 649 770 "},"œ":{"ha":1003,"x_min":47,"x_max":964,"o":"m 964 336 q 893 572 964 490 q 725 653 823 653 q 630 630 671 653 q 548 559 588 608 q 459 630 505 608 q 351 653 413 653 q 197 609 269 653 q 86 486 124 565 q 47 311 47 406 q 111 98 47 185 q 351 -19 194 -19 q 450 -1 410 -19 q 539 64 490 16 q 621 -1 583 18 q 712 -19 659 -19 q 850 23 790 -19 q 964 171 910 66 l 943 186 q 873 105 907 130 q 799 81 839 81 q 692 140 742 81 q 631 336 643 199 l 964 336 m 353 606 q 400 590 381 606 q 438 524 425 570 q 452 347 452 477 q 438 120 452 174 q 404 47 425 65 q 347 29 382 29 q 298 43 316 29 q 260 113 274 63 q 246 295 246 162 q 261 510 246 453 q 302 589 276 567 q 353 606 322 606 m 798 382 l 628 382 q 646 533 628 477 q 681 590 656 570 q 720 605 699 605 q 774 570 750 605 q 799 434 799 534 q 798 382 799 420 "},"–":{"ha":694,"x_min":-12,"x_max":705,"o":"m 705 280 l 705 362 l -12 362 l -12 280 l 705 280 "},"—":{"ha":1389,"x_min":-14,"x_max":1402,"o":"m 1402 279 l 1402 362 l -14 362 l -14 279 l 1402 279 "},"“":{"ha":694,"x_min":55,"x_max":638,"o":"m 615 941 q 437 824 494 897 q 381 660 381 751 q 422 534 381 581 q 521 488 464 488 q 604 522 570 488 q 638 602 638 557 q 608 677 638 646 q 540 709 578 709 q 485 693 507 709 q 475 688 478 688 q 469 692 471 688 q 465 711 465 699 q 505 826 465 771 q 615 907 545 882 l 615 941 m 289 941 q 111 824 168 897 q 55 660 55 751 q 96 534 55 581 q 195 488 138 488 q 278 522 243 488 q 312 602 312 557 q 282 677 312 646 q 214 709 252 709 q 159 693 180 709 q 149 688 152 688 q 142 692 145 688 q 138 711 138 699 q 178 826 138 771 q 289 907 218 882 l 289 941 "},"”":{"ha":694,"x_min":56,"x_max":640,"o":"m 79 488 q 257 605 201 532 q 313 769 313 677 q 272 894 313 848 q 174 941 230 941 q 90 906 124 941 q 56 826 56 872 q 86 751 56 783 q 155 720 115 720 q 209 735 187 720 q 220 741 216 741 q 225 736 223 741 q 229 718 229 730 q 189 603 229 658 q 79 522 149 547 l 79 488 m 406 488 q 583 605 527 532 q 640 769 640 677 q 598 894 640 848 q 500 941 556 941 q 416 906 450 941 q 382 826 382 872 q 412 751 382 783 q 481 720 441 720 q 535 735 513 720 q 546 741 543 741 q 551 736 549 741 q 555 718 555 730 q 515 603 555 658 q 406 522 475 547 l 406 488 "},"‘":{"ha":463,"x_min":103,"x_max":360,"o":"m 336 941 q 162 830 220 905 q 103 658 103 755 q 144 534 103 579 q 244 489 186 489 q 326 523 292 489 q 360 602 360 557 q 331 675 360 644 q 261 706 301 706 q 212 694 232 706 q 200 690 204 690 q 191 696 195 690 q 186 713 186 701 q 221 823 186 769 q 336 911 257 877 l 336 941 "},"’":{"ha":463,"x_min":103,"x_max":360,"o":"m 127 489 q 301 600 243 524 q 360 772 360 675 q 319 896 360 850 q 219 941 277 941 q 137 907 171 941 q 103 828 103 873 q 133 755 103 786 q 202 724 162 724 q 251 735 231 724 q 263 740 259 740 q 273 734 268 740 q 277 718 277 728 q 242 607 277 661 q 127 519 206 553 l 127 489 "},"÷":{"ha":762,"x_min":11,"x_max":752,"o":"m 382 757 q 334 736 354 757 q 313 688 313 716 q 334 639 313 659 q 382 618 354 618 q 432 639 412 618 q 452 688 452 659 q 432 736 452 716 q 382 757 412 757 m 11 505 l 11 415 l 752 415 l 752 505 l 11 505 m 382 308 q 332 287 353 308 q 312 238 312 267 q 333 189 312 209 q 382 168 353 168 q 431 189 411 168 q 452 238 452 209 q 431 287 452 267 q 382 308 411 308 "},"◊":{"ha":686,"x_min":32,"x_max":656,"o":"m 372 964 l 297 964 l 32 481 l 297 0 l 372 0 l 656 481 l 372 964 m 336 899 l 579 481 l 336 64 l 105 481 l 336 899 "},"ÿ":{"ha":694,"x_min":12,"x_max":682,"o":"m 338 -26 l 318 -79 q 254 -209 281 -180 q 220 -229 236 -229 q 204 -221 210 -229 q 198 -188 199 -214 q 177 -121 197 -142 q 122 -99 156 -99 q 63 -125 87 -99 q 39 -190 39 -151 q 74 -268 39 -235 q 165 -300 109 -300 q 282 -243 235 -300 q 384 -26 315 -202 l 565 444 q 631 585 611 564 q 682 609 650 606 l 682 634 l 469 634 l 469 609 q 528 593 511 608 q 545 553 545 578 q 505 410 545 513 l 431 218 l 322 467 q 288 568 288 543 q 302 596 288 585 q 349 609 315 608 l 349 634 l 12 634 l 12 609 q 65 575 43 600 q 133 444 87 551 l 338 -26 m 492 928 q 429 902 455 928 q 402 838 402 876 q 429 774 402 801 q 492 748 455 748 q 556 774 530 748 q 583 838 583 801 q 556 902 583 876 q 492 928 530 928 m 239 928 q 175 902 201 928 q 149 838 149 876 q 175 774 149 801 q 239 748 201 748 q 302 774 276 748 q 329 838 329 801 q 303 902 329 876 q 239 928 277 928 "},"Ÿ":{"ha":1003,"x_min":12,"x_max":987,"o":"m 987 920 l 707 920 l 707 895 q 791 874 768 891 q 809 844 809 862 q 747 709 809 810 l 582 431 l 416 736 q 361 859 361 834 q 377 883 361 871 q 433 895 393 895 l 453 895 l 453 920 l 12 920 l 12 895 q 83 873 56 894 q 174 736 109 852 l 390 342 l 390 157 q 382 72 390 88 q 355 39 372 49 q 290 25 331 25 l 242 25 l 242 0 l 758 0 l 758 25 l 707 25 q 648 38 670 25 q 618 69 626 52 q 611 157 611 86 l 611 380 l 810 713 q 918 868 884 840 q 987 895 942 888 l 987 920 m 659 1191 q 595 1164 622 1191 q 569 1101 569 1138 q 595 1037 569 1063 q 659 1010 622 1010 q 723 1037 696 1010 q 749 1101 749 1063 q 723 1164 749 1138 q 659 1191 697 1191 m 406 1191 q 342 1164 368 1191 q 315 1101 315 1138 q 342 1037 315 1063 q 406 1010 368 1010 q 469 1037 443 1010 q 496 1101 496 1063 q 470 1164 496 1138 q 406 1191 444 1191 "},"⁄":{"ha":232,"x_min":-256,"x_max":487,"o":"m 487 939 l 397 939 l -256 -40 l -166 -40 l 487 939 "},"€":{"ha":694,"x_min":-16,"x_max":672,"o":"m 576 500 l 592 553 l 265 553 q 321 775 279 689 q 458 883 373 883 q 576 827 531 883 q 628 676 621 771 l 654 676 l 654 879 q 574 918 590 912 q 444 939 518 939 q 178 818 288 939 q 57 553 80 709 l 0 553 l -16 500 l 52 500 q 50 454 50 475 l 50 444 l 0 444 l -16 391 l 53 391 q 141 112 66 220 q 393 -19 232 -19 q 577 47 505 -19 q 672 180 618 83 l 641 203 q 562 94 589 119 q 433 45 511 45 q 260 391 273 45 l 546 391 l 562 444 l 259 444 q 261 500 259 471 l 576 500 "},"‹":{"ha":463,"x_min":63,"x_max":399,"o":"m 347 5 l 399 5 l 240 317 l 399 628 l 351 628 l 63 317 l 347 5 "},"›":{"ha":463,"x_min":64,"x_max":400,"o":"m 116 628 l 64 628 l 223 316 l 64 5 l 113 5 l 400 316 l 116 628 "},"ﬁ":{"ha":772,"x_min":40,"x_max":742,"o":"m 303 631 l 303 722 q 312 827 303 801 q 353 882 323 860 q 418 897 375 897 q 479 885 461 897 q 490 863 490 878 q 477 834 490 853 q 463 796 463 816 q 487 748 463 770 q 547 732 504 732 q 617 757 591 732 q 643 816 643 782 q 620 875 643 845 q 548 923 597 905 q 431 941 498 941 q 257 903 332 941 q 149 801 182 865 q 116 631 116 736 l 40 631 l 40 564 l 116 564 l 116 134 q 106 53 116 67 q 40 24 87 26 l 40 0 l 372 0 l 372 24 q 313 57 328 33 q 303 134 303 73 l 303 564 l 482 564 l 482 134 q 472 56 482 71 q 412 24 455 29 l 412 0 l 742 0 l 742 24 q 685 48 699 27 q 671 134 671 70 l 671 631 l 303 631 "},"ﬂ":{"ha":772,"x_min":37,"x_max":739,"o":"m 303 564 l 479 564 l 479 136 q 475 68 479 81 q 454 38 469 50 q 410 24 439 27 l 410 0 l 739 0 l 739 24 q 695 36 709 26 q 676 63 681 47 q 671 136 671 79 l 671 920 l 524 920 q 452 936 485 930 q 394 941 420 941 q 244 902 311 941 q 145 804 176 863 q 114 634 113 744 l 41 634 l 41 564 l 114 564 l 114 136 q 104 56 114 71 q 37 24 87 29 l 37 0 l 369 0 l 369 24 q 313 53 327 30 q 303 136 303 71 l 303 564 m 303 634 l 303 723 q 323 850 303 818 q 414 897 352 897 q 473 884 453 897 q 486 864 486 876 q 476 838 486 852 q 460 795 460 810 q 479 758 460 777 l 479 634 l 303 634 "},"‡":{"ha":694,"x_min":75,"x_max":619,"o":"m 439 503 q 383 557 399 532 q 364 619 368 582 q 413 609 395 614 q 473 585 431 604 q 511 569 504 570 q 545 565 526 565 q 598 584 578 565 q 618 631 618 603 q 599 679 618 661 q 543 703 572 703 q 474 681 522 703 q 410 654 427 659 q 364 646 392 648 q 392 742 370 693 q 418 808 414 791 q 423 843 423 825 q 401 898 423 876 q 347 920 379 920 q 293 896 315 920 q 271 839 271 873 q 299 747 271 806 q 335 646 328 687 q 244 670 292 649 q 180 696 197 692 q 146 701 163 701 q 96 681 117 701 q 75 633 75 660 q 95 584 75 604 q 146 563 115 563 q 235 590 178 563 q 335 619 293 616 q 313 556 330 583 q 260 503 296 530 q 318 429 302 467 q 334 309 334 391 q 314 199 334 241 q 260 138 299 168 q 313 84 298 107 q 335 21 328 61 q 243 46 292 24 q 178 73 194 68 q 146 77 162 77 q 97 56 118 77 q 76 7 76 35 q 96 -41 76 -22 q 150 -60 117 -60 q 243 -35 186 -60 q 298 -13 279 -18 q 335 -7 310 -9 q 301 -114 328 -56 q 274 -202 274 -172 q 295 -255 274 -234 q 351 -275 316 -275 q 405 -255 385 -275 q 426 -201 426 -235 q 400 -117 426 -171 q 373 -52 380 -75 q 364 -7 368 -37 q 404 -13 390 -9 q 460 -36 424 -19 q 545 -60 513 -60 q 599 -41 578 -60 q 619 8 619 -22 q 598 57 619 37 q 544 76 578 76 q 514 72 528 76 q 456 47 500 68 q 364 21 413 27 q 384 78 370 55 q 439 138 397 100 q 386 199 399 167 q 367 332 367 243 q 382 429 367 393 q 439 503 398 465 "},"∙":{"ha":347,"x_min":60,"x_max":288,"o":"m 174 573 q 94 540 127 573 q 60 459 60 507 q 94 379 60 412 q 174 346 127 346 q 254 379 221 346 q 288 459 288 412 q 254 540 288 507 q 174 573 221 573 "},"‚":{"ha":463,"x_min":103,"x_max":360,"o":"m 127 -243 q 301 -133 243 -208 q 360 39 360 -58 q 319 163 360 118 q 219 208 277 208 q 137 174 171 208 q 103 96 103 140 q 133 22 103 54 q 202 -9 162 -9 q 251 3 231 -9 q 263 7 259 7 q 273 2 268 7 q 277 -16 277 -4 q 242 -126 277 -72 q 127 -214 206 -180 l 127 -243 "},"„":{"ha":694,"x_min":56,"x_max":640,"o":"m 79 -243 q 257 -126 201 -199 q 313 37 313 -54 q 272 163 313 116 q 174 210 230 210 q 90 175 124 210 q 56 95 56 140 q 86 20 56 52 q 155 -12 115 -12 q 209 4 187 -12 q 220 9 216 9 q 225 5 223 9 q 229 -14 229 -1 q 189 -129 229 -74 q 79 -210 149 -184 l 79 -243 m 406 -243 q 583 -126 527 -199 q 640 37 640 -54 q 598 163 640 116 q 500 210 556 210 q 416 175 450 210 q 382 95 382 140 q 412 20 382 52 q 481 -12 441 -12 q 535 4 513 -12 q 546 9 543 9 q 551 5 549 9 q 555 -14 555 -1 q 515 -129 555 -74 q 406 -210 475 -184 l 406 -243 "},"‰":{"ha":1389,"x_min":40,"x_max":1348,"o":"m 831 941 l 742 941 l 101 -39 l 193 -39 l 831 941 m 249 941 q 148 911 199 941 q 68 824 97 882 q 40 695 40 766 q 101 515 40 582 q 246 448 161 448 q 393 513 333 448 q 452 699 452 578 q 427 823 452 766 q 351 910 401 880 q 249 941 302 941 m 248 907 q 267 899 260 907 q 286 857 281 886 q 294 687 294 809 q 286 525 294 573 q 267 485 282 498 q 250 478 260 478 q 229 485 237 478 q 208 523 214 499 q 198 648 198 566 q 208 855 198 786 q 227 898 212 883 q 248 907 237 907 m 680 455 q 579 427 629 455 q 502 340 528 398 q 475 210 475 283 q 541 24 475 85 q 682 -38 608 -38 q 823 26 759 -38 q 887 212 887 90 q 860 336 887 279 q 784 424 833 393 q 680 455 735 455 m 681 422 q 701 416 693 422 q 718 380 713 404 q 728 229 728 323 q 719 42 728 102 q 701 3 715 16 q 680 -5 693 -5 q 659 3 667 -5 q 641 41 646 14 q 632 198 632 92 q 644 378 632 301 q 661 416 647 404 q 681 422 668 422 m 1142 454 q 1040 425 1088 454 q 964 337 991 395 q 937 208 937 279 q 1001 26 937 90 q 1143 -38 1065 -38 q 1282 22 1216 -38 q 1348 214 1348 81 q 1322 338 1348 282 q 1246 424 1296 393 q 1142 454 1197 454 m 1143 422 q 1162 415 1156 422 q 1181 378 1176 403 q 1190 229 1190 324 q 1180 39 1190 116 q 1164 1 1177 12 q 1143 -6 1157 -6 q 1122 1 1130 -6 q 1105 38 1109 13 q 1095 196 1095 98 q 1105 376 1095 309 q 1122 414 1108 401 q 1143 422 1131 422 "},"Â":{"ha":1003,"x_min":11,"x_max":987,"o":"m 578 262 l 627 147 q 647 96 646 102 q 651 71 651 83 q 636 40 651 51 q 561 25 614 25 l 543 25 l 543 0 l 987 0 l 987 25 q 922 50 945 28 q 844 184 892 77 l 513 939 l 500 939 l 171 205 q 92 66 124 100 q 11 25 60 33 l 11 0 l 317 0 l 317 25 q 227 41 245 31 q 195 98 195 60 q 214 172 195 127 l 253 262 l 578 262 m 555 312 l 277 312 l 418 629 l 555 312 m 578 1234 l 425 1234 l 280 979 l 336 979 l 502 1114 l 663 975 l 715 975 l 578 1234 "},"Ê":{"ha":926,"x_min":28,"x_max":864,"o":"m 378 867 l 473 867 q 616 854 578 867 q 716 791 681 834 q 772 648 752 747 l 798 648 l 798 920 l 28 920 l 28 895 l 58 895 q 129 876 103 895 q 154 839 147 863 q 157 762 157 825 l 157 157 q 150 72 157 88 q 123 39 140 49 q 58 25 98 25 l 28 25 l 28 0 l 823 0 l 864 292 l 839 292 q 727 111 805 170 q 521 51 650 51 l 466 51 q 409 62 427 51 q 385 90 391 73 q 378 182 378 106 l 378 441 q 479 424 444 441 q 539 357 513 407 q 574 228 566 307 l 600 228 l 600 709 l 574 709 q 524 547 563 602 q 397 492 484 492 l 378 492 l 378 867 m 542 1234 l 389 1234 l 244 979 l 300 979 l 466 1114 l 627 975 l 680 975 l 542 1234 "},"Á":{"ha":1003,"x_min":11,"x_max":987,"o":"m 578 262 l 627 147 q 647 96 646 102 q 651 71 651 83 q 636 40 651 51 q 561 25 614 25 l 543 25 l 543 0 l 987 0 l 987 25 q 922 50 945 28 q 844 184 892 77 l 513 939 l 500 939 l 171 205 q 92 66 124 100 q 11 25 60 33 l 11 0 l 317 0 l 317 25 q 227 41 245 31 q 195 98 195 60 q 214 172 195 127 l 253 262 l 578 262 m 555 312 l 277 312 l 418 629 l 555 312 m 705 1234 l 500 1234 l 422 998 l 480 998 l 705 1234 "},"Ë":{"ha":926,"x_min":28,"x_max":864,"o":"m 378 867 l 473 867 q 616 854 578 867 q 716 791 681 834 q 772 648 752 747 l 798 648 l 798 920 l 28 920 l 28 895 l 58 895 q 129 876 103 895 q 154 839 147 863 q 157 762 157 825 l 157 157 q 150 72 157 88 q 123 39 140 49 q 58 25 98 25 l 28 25 l 28 0 l 823 0 l 864 292 l 839 292 q 727 111 805 170 q 521 51 650 51 l 466 51 q 409 62 427 51 q 385 90 391 73 q 378 182 378 106 l 378 441 q 479 424 444 441 q 539 357 513 407 q 574 228 566 307 l 600 228 l 600 709 l 574 709 q 524 547 563 602 q 397 492 484 492 l 378 492 l 378 867 m 591 1191 q 528 1164 554 1191 q 501 1101 501 1138 q 528 1037 501 1063 q 591 1010 554 1010 q 655 1037 629 1010 q 682 1101 682 1063 q 655 1164 682 1138 q 591 1191 629 1191 m 338 1191 q 274 1164 300 1191 q 248 1101 248 1138 q 274 1037 248 1063 q 338 1010 300 1010 q 401 1037 375 1010 q 428 1101 428 1063 q 402 1164 428 1138 q 338 1191 376 1191 "},"È":{"ha":926,"x_min":28,"x_max":864,"o":"m 378 867 l 473 867 q 616 854 578 867 q 716 791 681 834 q 772 648 752 747 l 798 648 l 798 920 l 28 920 l 28 895 l 58 895 q 129 876 103 895 q 154 839 147 863 q 157 762 157 825 l 157 157 q 150 72 157 88 q 123 39 140 49 q 58 25 98 25 l 28 25 l 28 0 l 823 0 l 864 292 l 839 292 q 727 111 805 170 q 521 51 650 51 l 466 51 q 409 62 427 51 q 385 90 391 73 q 378 182 378 106 l 378 441 q 479 424 444 441 q 539 357 513 407 q 574 228 566 307 l 600 228 l 600 709 l 574 709 q 524 547 563 602 q 397 492 484 492 l 378 492 l 378 867 m 257 1234 l 482 998 l 540 998 l 461 1234 l 257 1234 "},"Í":{"ha":541,"x_min":28,"x_max":509,"o":"m 509 25 l 478 25 q 417 38 439 25 q 386 69 394 52 q 378 157 378 87 l 378 762 q 386 848 378 831 q 414 880 396 871 q 478 895 438 895 l 509 895 l 509 920 l 28 920 l 28 895 l 58 895 q 120 881 97 895 q 150 850 142 868 q 157 762 157 833 l 157 157 q 150 72 157 88 q 123 39 140 49 q 58 25 98 25 l 28 25 l 28 0 l 509 0 l 509 25 m 473 1234 l 269 1234 l 191 998 l 249 998 l 473 1234 "},"Î":{"ha":541,"x_min":28,"x_max":509,"o":"m 509 25 l 478 25 q 417 38 439 25 q 386 69 394 52 q 378 157 378 87 l 378 762 q 386 848 378 831 q 414 880 396 871 q 478 895 438 895 l 509 895 l 509 920 l 28 920 l 28 895 l 58 895 q 120 881 97 895 q 150 850 142 868 q 157 762 157 833 l 157 157 q 150 72 157 88 q 123 39 140 49 q 58 25 98 25 l 28 25 l 28 0 l 509 0 l 509 25 m 347 1234 l 193 1234 l 49 979 l 104 979 l 271 1114 l 432 975 l 484 975 l 347 1234 "},"Ï":{"ha":541,"x_min":28,"x_max":509,"o":"m 509 25 l 478 25 q 417 38 439 25 q 386 69 394 52 q 378 157 378 87 l 378 762 q 386 848 378 831 q 414 880 396 871 q 478 895 438 895 l 509 895 l 509 920 l 28 920 l 28 895 l 58 895 q 120 881 97 895 q 150 850 142 868 q 157 762 157 833 l 157 157 q 150 72 157 88 q 123 39 140 49 q 58 25 98 25 l 28 25 l 28 0 l 509 0 l 509 25 m 396 1191 q 332 1164 359 1191 q 306 1101 306 1138 q 332 1037 306 1063 q 396 1010 359 1010 q 460 1037 433 1010 q 486 1101 486 1063 q 460 1164 486 1138 q 396 1191 434 1191 m 142 1191 q 79 1164 105 1191 q 52 1101 52 1138 q 79 1037 52 1063 q 142 1010 105 1010 q 206 1037 180 1010 q 233 1101 233 1063 q 207 1164 233 1138 q 142 1191 180 1191 "},"Ì":{"ha":541,"x_min":28,"x_max":509,"o":"m 509 25 l 478 25 q 417 38 439 25 q 386 69 394 52 q 378 157 378 87 l 378 762 q 386 848 378 831 q 414 880 396 871 q 478 895 438 895 l 509 895 l 509 920 l 28 920 l 28 895 l 58 895 q 120 881 97 895 q 150 850 142 868 q 157 762 157 833 l 157 157 q 150 72 157 88 q 123 39 140 49 q 58 25 98 25 l 28 25 l 28 0 l 509 0 l 509 25 m 61 1234 l 286 998 l 344 998 l 265 1234 l 61 1234 "},"Ó":{"ha":1080,"x_min":54,"x_max":1031,"o":"m 536 932 q 194 804 333 941 q 54 463 54 667 q 161 147 54 280 q 545 -21 297 -21 q 928 155 793 -21 q 1031 463 1031 288 q 893 804 1031 668 q 536 932 756 941 m 545 889 q 666 852 613 889 q 752 724 718 814 q 786 451 786 633 q 753 202 786 298 q 660 64 720 107 q 543 30 613 30 q 382 109 439 30 q 299 456 299 221 q 353 760 299 654 q 545 889 418 889 m 747 1234 l 543 1234 l 465 998 l 523 998 l 747 1234 "},"Ô":{"ha":1080,"x_min":54,"x_max":1031,"o":"m 536 932 q 194 804 333 941 q 54 463 54 667 q 161 147 54 280 q 545 -21 297 -21 q 928 155 793 -21 q 1031 463 1031 288 q 893 804 1031 668 q 536 932 756 941 m 545 889 q 666 852 613 889 q 752 724 718 814 q 786 451 786 633 q 753 202 786 298 q 660 64 720 107 q 543 30 613 30 q 382 109 439 30 q 299 456 299 221 q 353 760 299 654 q 545 889 418 889 m 621 1234 l 467 1234 l 323 979 l 378 979 l 545 1114 l 706 975 l 758 975 l 621 1234 "},"Ò":{"ha":1080,"x_min":54,"x_max":1031,"o":"m 536 932 q 194 804 333 941 q 54 463 54 667 q 161 147 54 280 q 545 -21 297 -21 q 928 155 793 -21 q 1031 463 1031 288 q 893 804 1031 668 q 536 932 756 941 m 545 889 q 666 852 613 889 q 752 724 718 814 q 786 451 786 633 q 753 202 786 298 q 660 64 720 107 q 543 30 613 30 q 382 109 439 30 q 299 456 299 221 q 353 760 299 654 q 545 889 418 889 m 336 1234 l 561 998 l 618 998 l 540 1234 l 336 1234 "},"Ú":{"ha":1003,"x_min":33,"x_max":979,"o":"m 33 920 l 33 895 q 113 884 91 895 q 143 853 134 872 q 152 754 152 833 l 152 304 q 189 121 152 189 q 314 10 225 54 q 498 -22 379 -22 q 724 39 642 -22 q 828 171 807 99 q 850 405 850 243 l 850 754 q 859 832 850 810 q 896 879 870 863 q 960 895 922 895 l 979 895 l 979 920 l 661 920 l 661 895 q 747 879 717 895 q 780 842 767 869 q 793 754 793 816 l 793 379 q 767 174 793 233 q 688 81 741 115 q 561 47 635 47 q 453 74 496 47 q 392 140 410 100 q 373 304 373 180 l 373 754 q 381 852 373 833 q 410 883 390 872 q 484 895 430 895 l 507 895 l 507 920 l 33 920 m 689 1234 l 485 1234 l 406 998 l 465 998 l 689 1234 "},"Û":{"ha":1003,"x_min":33,"x_max":979,"o":"m 33 920 l 33 895 q 113 884 91 895 q 143 853 134 872 q 152 754 152 833 l 152 304 q 189 121 152 189 q 314 10 225 54 q 498 -22 379 -22 q 724 39 642 -22 q 828 171 807 99 q 850 405 850 243 l 850 754 q 859 832 850 810 q 896 879 870 863 q 960 895 922 895 l 979 895 l 979 920 l 661 920 l 661 895 q 747 879 717 895 q 780 842 767 869 q 793 754 793 816 l 793 379 q 767 174 793 233 q 688 81 741 115 q 561 47 635 47 q 453 74 496 47 q 392 140 410 100 q 373 304 373 180 l 373 754 q 381 852 373 833 q 410 883 390 872 q 484 895 430 895 l 507 895 l 507 920 l 33 920 m 600 1234 l 447 1234 l 302 979 l 358 979 l 524 1114 l 686 975 l 738 975 l 600 1234 "},"Ù":{"ha":1003,"x_min":33,"x_max":979,"o":"m 33 920 l 33 895 q 113 884 91 895 q 143 853 134 872 q 152 754 152 833 l 152 304 q 189 121 152 189 q 314 10 225 54 q 498 -22 379 -22 q 724 39 642 -22 q 828 171 807 99 q 850 405 850 243 l 850 754 q 859 832 850 810 q 896 879 870 863 q 960 895 922 895 l 979 895 l 979 920 l 661 920 l 661 895 q 747 879 717 895 q 780 842 767 869 q 793 754 793 816 l 793 379 q 767 174 793 233 q 688 81 741 115 q 561 47 635 47 q 453 74 496 47 q 392 140 410 100 q 373 304 373 180 l 373 754 q 381 852 373 833 q 410 883 390 872 q 484 895 430 895 l 507 895 l 507 920 l 33 920 m 311 1234 l 536 998 l 594 998 l 515 1234 l 311 1234 "},"ı":{"ha":386,"x_min":28,"x_max":371,"o":"m 294 634 l 28 634 l 28 609 q 89 588 73 606 q 104 502 104 569 l 104 132 q 91 49 104 64 q 28 24 71 26 l 28 0 l 371 0 l 371 24 q 310 46 326 27 q 294 132 294 64 l 294 634 "},"ˆ":{"ha":463,"x_min":14,"x_max":450,"o":"m 312 968 l 159 968 l 14 713 l 70 713 l 236 848 l 397 709 l 450 709 l 312 968 "},"˜":{"ha":463,"x_min":14,"x_max":452,"o":"m 416 928 q 390 878 404 890 q 361 866 376 866 q 262 898 332 866 q 197 925 216 920 q 163 929 183 929 q 57 879 100 929 q 16 741 14 829 l 56 741 q 75 789 61 776 q 109 803 88 803 q 198 771 131 803 q 309 739 264 739 q 410 785 368 739 q 452 905 452 830 q 452 928 452 914 l 416 928 "},"ˉ":{"ha":463,"x_min":14,"x_max":449,"o":"m 14 850 l 14 740 l 449 740 l 449 850 l 14 850 "},"˘":{"ha":463,"x_min":26,"x_max":437,"o":"m 393 941 q 338 876 374 897 q 227 854 302 854 q 124 876 161 854 q 71 941 88 898 l 26 941 q 94 784 33 844 q 233 724 155 724 q 372 784 311 724 q 437 941 432 844 l 393 941 "},"˙":{"ha":463,"x_min":132,"x_max":332,"o":"m 232 928 q 161 899 191 928 q 132 828 132 869 q 161 758 132 787 q 232 728 191 728 q 302 758 273 728 q 332 828 332 787 q 302 899 332 869 q 232 928 273 928 "},"˚":{"ha":463,"x_min":90,"x_max":374,"o":"m 231 975 q 131 933 172 975 q 90 833 90 892 q 131 732 90 774 q 231 690 173 690 q 332 732 290 690 q 374 833 374 774 q 332 933 374 892 q 231 975 291 975 m 232 922 q 295 896 269 922 q 321 833 321 870 q 295 769 321 795 q 232 743 269 743 q 168 769 195 743 q 142 833 142 795 q 168 896 142 870 q 232 922 194 922 "},"¸":{"ha":463,"x_min":98,"x_max":329,"o":"m 233 8 l 153 -106 q 198 -120 182 -106 q 214 -154 214 -134 q 190 -207 214 -188 q 98 -229 166 -227 l 98 -261 q 254 -245 203 -262 q 308 -204 287 -233 q 329 -140 329 -175 q 308 -74 329 -100 q 245 -41 286 -48 l 277 8 l 233 8 "},"˝":{"ha":463,"x_min":76,"x_max":511,"o":"m 296 951 l 155 951 l 76 717 l 130 717 l 296 951 m 511 951 l 372 951 l 294 717 l 348 717 l 511 951 "},"˛":{"ha":463,"x_min":60,"x_max":326,"o":"m 299 41 l 266 41 q 196 4 232 28 q 129 -51 159 -20 q 79 -118 99 -82 q 60 -191 60 -154 q 68 -233 60 -213 q 93 -268 77 -253 q 132 -291 109 -282 q 184 -300 155 -300 q 253 -279 217 -300 q 326 -214 290 -258 l 312 -197 q 283 -214 299 -208 q 250 -220 267 -220 q 221 -216 235 -220 q 195 -201 206 -211 q 177 -178 184 -192 q 170 -144 170 -163 q 181 -90 170 -117 q 210 -37 192 -62 q 252 8 229 -12 q 299 41 275 28 "},"ˇ":{"ha":463,"x_min":14,"x_max":450,"o":"m 151 709 l 304 709 l 450 964 l 394 964 l 228 828 l 66 968 l 14 968 l 151 709 "},"Ł":{"ha":926,"x_min":28,"x_max":876,"o":"m 876 322 l 851 322 q 744 112 812 172 q 574 51 675 51 l 500 51 q 418 55 428 51 q 385 83 394 64 q 376 176 376 103 l 376 510 l 534 634 l 534 696 l 376 574 l 376 752 q 378 832 376 822 q 405 873 385 857 q 473 890 426 890 l 517 890 l 517 920 l 28 920 l 28 890 l 59 890 q 120 877 99 890 q 148 846 140 865 q 156 752 156 827 l 156 401 l 28 297 l 28 233 l 156 336 l 156 164 q 149 71 156 87 q 123 39 140 49 q 59 25 100 25 l 28 25 l 28 0 l 841 0 l 876 322 "},"ł":{"ha":386,"x_min":26,"x_max":368,"o":"m 292 920 l 30 920 l 30 888 q 88 868 73 887 q 104 781 104 850 l 104 416 l 26 353 l 26 296 l 104 359 l 104 136 q 90 46 104 62 q 30 24 72 24 l 30 0 l 368 0 l 368 24 q 308 46 323 27 q 292 136 292 64 l 292 510 l 368 571 l 368 628 l 292 567 l 292 920 "},"Š":{"ha":772,"x_min":72,"x_max":717,"o":"m 652 941 l 632 941 q 613 888 623 899 q 585 878 603 878 q 521 900 567 878 q 444 930 475 922 q 357 941 401 941 q 153 863 234 941 q 73 676 73 786 q 102 558 73 612 q 186 461 132 505 q 367 356 241 418 q 492 284 456 312 q 544 227 527 257 q 562 163 562 196 q 516 67 562 109 q 395 26 471 26 q 212 103 297 26 q 97 326 127 180 l 72 326 l 72 -21 l 97 -21 q 129 20 109 7 q 166 34 149 34 q 220 20 187 34 q 317 -13 278 -4 q 399 -22 355 -22 q 627 61 537 -22 q 717 260 717 144 q 661 421 717 351 q 444 571 605 492 q 296 650 328 628 q 233 713 253 682 q 219 768 219 737 q 259 853 219 816 q 369 890 300 890 q 535 820 458 890 q 632 634 612 749 l 660 634 l 652 941 m 302 979 l 455 979 l 600 1234 l 545 1234 l 378 1098 l 216 1238 l 165 1238 l 302 979 "},"š":{"ha":541,"x_min":47,"x_max":491,"o":"m 448 652 l 425 652 q 401 623 408 628 q 381 618 393 618 q 351 628 370 618 q 252 653 303 653 q 105 594 156 653 q 55 461 55 534 q 100 338 55 394 q 234 229 130 300 q 325 157 304 180 q 345 100 345 133 q 325 52 345 72 q 271 32 304 32 q 171 77 224 32 q 87 211 117 121 l 64 211 l 75 -17 l 97 -17 q 134 17 112 17 q 162 9 142 17 q 283 -19 238 -19 q 390 8 342 -19 q 465 86 438 35 q 491 190 491 137 q 459 295 491 248 q 328 410 428 342 q 207 505 229 477 q 193 541 193 522 q 213 584 193 565 q 260 602 233 602 q 349 567 304 602 q 435 435 393 532 l 458 435 l 448 652 m 184 709 l 337 709 l 482 964 l 427 964 l 260 828 l 98 968 l 47 968 l 184 709 "},"Ž":{"ha":926,"x_min":22,"x_max":902,"o":"m 848 920 l 121 920 l 96 650 l 121 650 q 164 760 137 717 q 234 830 192 804 q 323 865 275 856 q 427 869 348 869 l 564 869 l 22 0 l 865 0 l 902 332 l 876 332 q 795 157 853 222 q 656 67 736 92 q 482 52 606 52 l 307 52 l 848 920 m 382 979 l 535 979 l 680 1234 l 625 1234 l 458 1098 l 296 1238 l 245 1238 l 382 979 "},"ž":{"ha":616,"x_min":14,"x_max":594,"o":"m 566 0 l 585 217 l 566 217 q 479 81 537 118 q 292 43 422 43 l 248 43 l 594 616 l 594 634 l 60 634 l 60 450 l 84 450 q 121 543 103 517 q 167 581 138 569 q 261 593 195 593 l 363 593 l 14 15 l 14 0 l 566 0 m 254 709 l 407 709 l 552 964 l 496 964 l 330 828 l 168 968 l 117 968 l 254 709 "},"¦":{"ha":306,"x_min":108,"x_max":196,"o":"m 108 446 l 196 446 l 196 941 l 108 941 l 108 446 m 108 -300 l 196 -300 l 196 196 l 108 196 l 108 -300 "},"Ð":{"ha":1003,"x_min":24,"x_max":950,"o":"m 24 0 l 436 0 q 566 8 525 0 q 724 58 659 26 q 839 143 789 90 q 919 278 888 197 q 950 457 950 360 q 887 709 950 597 q 701 875 824 820 q 436 920 601 920 l 24 920 l 24 895 l 54 895 q 116 881 93 895 q 146 850 138 868 q 154 762 154 833 l 154 510 l 24 510 l 24 460 l 154 460 l 154 157 q 147 72 154 87 q 116 38 137 50 q 54 25 94 25 l 24 25 l 24 0 m 375 867 q 537 847 488 868 q 650 734 606 817 q 705 452 705 629 q 625 127 705 232 q 451 50 564 50 q 398 60 417 50 q 380 80 386 67 q 375 150 375 93 l 374 460 l 578 460 l 578 510 l 374 510 l 375 867 "},"ð":{"ha":694,"x_min":50,"x_max":645,"o":"m 319 774 q 369 701 351 732 q 408 612 386 669 q 309 631 350 631 q 106 522 177 631 q 50 313 50 433 q 86 144 50 220 q 193 24 123 68 q 348 -19 262 -19 q 505 25 435 -19 q 610 156 574 69 q 645 355 645 243 q 583 603 645 490 q 396 818 522 716 l 538 897 l 517 936 l 357 846 q 268 901 304 882 q 179 941 233 920 l 163 917 q 290 810 241 862 l 127 718 l 149 680 l 319 774 m 348 585 q 399 569 378 585 q 431 510 420 553 q 443 336 443 467 q 430 106 443 162 q 398 46 420 65 q 346 28 376 28 q 293 47 316 28 q 262 106 270 66 q 249 350 249 162 q 261 510 249 469 q 296 569 274 552 q 348 585 317 585 "},"Ý":{"ha":1003,"x_min":12,"x_max":987,"o":"m 987 920 l 707 920 l 707 895 q 791 874 768 891 q 809 844 809 862 q 747 709 809 810 l 582 431 l 416 736 q 361 859 361 834 q 377 883 361 871 q 433 895 393 895 l 453 895 l 453 920 l 12 920 l 12 895 q 83 873 56 894 q 174 736 109 852 l 390 342 l 390 157 q 382 72 390 88 q 355 39 372 49 q 290 25 331 25 l 242 25 l 242 0 l 758 0 l 758 25 l 707 25 q 648 38 670 25 q 618 69 626 52 q 611 157 611 86 l 611 380 l 810 713 q 918 868 884 840 q 987 895 942 888 l 987 920 m 735 1234 l 531 1234 l 452 998 l 511 998 l 735 1234 "},"ý":{"ha":694,"x_min":12,"x_max":682,"o":"m 338 -26 l 318 -79 q 254 -209 281 -180 q 220 -229 236 -229 q 204 -221 210 -229 q 198 -188 199 -214 q 177 -121 197 -142 q 122 -99 156 -99 q 63 -125 87 -99 q 39 -190 39 -151 q 74 -268 39 -235 q 165 -300 109 -300 q 282 -243 235 -300 q 384 -26 315 -202 l 565 444 q 631 585 611 564 q 682 609 650 606 l 682 634 l 469 634 l 469 609 q 528 593 511 608 q 545 553 545 578 q 505 410 545 513 l 431 218 l 322 467 q 288 568 288 543 q 302 596 288 585 q 349 609 315 608 l 349 634 l 12 634 l 12 609 q 65 575 43 600 q 133 444 87 551 l 338 -26 m 593 951 l 389 951 l 311 715 l 369 715 l 593 951 "},"Þ":{"ha":848,"x_min":28,"x_max":801,"o":"m 368 715 l 368 756 q 371 842 368 828 q 395 879 378 867 q 462 896 418 896 l 492 896 l 492 920 l 28 920 l 28 896 l 58 896 q 123 881 98 896 q 148 853 141 871 q 155 754 155 835 l 155 153 q 152 81 155 93 q 128 43 145 56 q 61 25 104 25 l 28 25 l 28 0 l 492 0 l 492 25 l 463 25 q 400 41 425 25 q 374 68 381 52 q 368 166 368 85 l 368 208 l 416 208 q 652 239 580 208 q 763 330 725 269 q 801 464 801 391 q 748 613 801 551 q 609 698 696 675 q 416 715 542 715 l 368 715 m 368 662 l 384 662 q 487 648 457 662 q 551 583 527 630 q 575 464 575 536 q 551 331 575 380 q 497 278 532 296 q 368 261 463 261 l 368 662 "},"þ":{"ha":772,"x_min":26,"x_max":712,"o":"m 292 64 q 363 4 330 22 q 461 -19 409 -19 q 592 23 533 -19 q 681 144 650 64 q 712 320 712 224 q 682 487 712 410 q 595 609 652 565 q 468 653 538 653 q 360 621 410 653 q 292 551 326 600 l 292 941 l 26 941 l 26 916 q 87 895 71 913 q 102 809 102 876 l 102 -168 q 89 -250 102 -235 q 26 -274 68 -273 l 26 -300 l 388 -300 l 388 -274 q 324 -266 340 -274 q 300 -240 308 -258 q 292 -172 292 -222 l 292 64 m 292 133 l 292 471 q 405 570 336 570 q 474 530 448 570 q 513 306 513 470 q 477 89 513 146 q 417 50 454 50 q 292 133 351 50 "},"−":{"ha":791,"x_min":27,"x_max":768,"o":"m 27 505 l 27 415 l 768 415 l 768 505 l 27 505 "},"×":{"ha":791,"x_min":104,"x_max":692,"o":"m 168 754 l 104 691 l 335 460 l 106 231 l 169 169 l 398 397 l 629 167 l 692 230 l 461 460 l 691 691 l 629 753 l 398 524 l 168 754 "},"¹":{"ha":416,"x_min":50,"x_max":361,"o":"m 281 939 l 257 939 l 50 857 l 62 836 q 116 849 97 849 q 135 844 127 849 q 145 832 142 840 q 148 793 148 825 l 148 550 q 142 491 148 505 q 130 479 138 484 q 81 472 116 472 l 58 472 l 58 450 l 361 450 l 361 472 l 340 472 q 300 478 311 472 q 286 492 289 484 q 281 550 281 505 l 281 939 "},"²":{"ha":416,"x_min":16,"x_max":383,"o":"m 352 450 l 383 595 l 352 595 q 347 585 350 592 q 322 556 334 562 q 260 550 310 550 l 157 550 q 322 716 288 660 q 357 814 357 773 q 314 900 357 861 q 200 939 271 939 q 92 904 138 939 q 25 802 47 870 l 54 793 q 144 848 87 848 q 203 825 180 848 q 226 767 226 802 q 198 673 226 724 q 16 463 170 622 l 16 450 l 352 450 "},"³":{"ha":416,"x_min":10,"x_max":376,"o":"m 119 687 q 233 632 197 671 q 269 548 269 593 q 251 499 269 519 q 205 480 232 480 q 137 507 174 480 q 92 536 100 534 q 63 543 77 543 q 25 530 40 543 q 10 500 10 517 q 33 463 10 478 q 143 440 67 440 q 314 495 252 440 q 376 621 376 549 q 285 743 376 700 q 351 834 351 778 q 313 906 351 874 q 212 939 275 939 q 29 817 90 939 l 57 807 q 148 861 96 861 q 203 841 182 861 q 224 794 224 821 q 193 733 224 759 q 119 705 178 720 l 119 687 "},"½":{"ha":1042,"x_min":49,"x_max":1007,"o":"m 279 939 l 256 939 l 49 857 l 61 836 q 115 849 96 849 q 134 844 126 849 q 144 832 141 840 q 146 793 146 825 l 146 550 q 140 491 146 505 q 128 479 137 484 q 79 472 115 472 l 57 472 l 57 450 l 359 450 l 359 472 l 339 472 q 299 478 310 472 q 284 492 288 484 q 279 550 279 505 l 279 939 m 892 939 l 800 939 l 146 -40 l 239 -40 l 892 939 m 976 -32 l 1007 113 l 976 113 q 970 104 974 111 q 946 74 958 80 q 884 68 934 68 l 781 68 q 946 235 911 178 q 981 333 981 292 q 938 418 981 380 q 824 456 895 456 q 716 422 762 456 q 649 320 671 388 l 677 311 q 768 366 711 366 q 827 343 804 366 q 850 285 850 320 q 822 191 850 241 q 640 -19 794 140 l 640 -32 l 976 -32 "},"¼":{"ha":1042,"x_min":49,"x_max":1014,"o":"m 279 939 l 256 939 l 49 857 l 61 836 q 115 849 96 849 q 134 844 126 849 q 144 832 141 840 q 146 793 146 825 l 146 550 q 140 491 146 505 q 128 479 137 484 q 79 472 115 472 l 57 472 l 57 450 l 359 450 l 359 472 l 339 472 q 299 478 310 472 q 284 492 288 484 q 279 550 279 505 l 279 939 m 909 939 l 817 939 l 166 -40 l 256 -40 l 909 939 m 641 150 l 641 73 l 842 73 l 842 -32 l 964 -32 l 964 73 l 1014 73 l 1014 150 l 964 150 l 964 458 l 902 458 l 641 150 m 697 150 l 842 319 l 842 150 l 697 150 "},"¾":{"ha":1042,"x_min":9,"x_max":1014,"o":"m 117 687 q 232 632 195 671 q 268 548 268 593 q 249 499 268 519 q 204 480 231 480 q 135 507 172 480 q 91 536 98 534 q 62 543 76 543 q 24 530 39 543 q 9 500 9 517 q 32 463 9 478 q 142 440 66 440 q 313 495 251 440 q 374 621 374 549 q 283 743 374 700 q 349 834 349 778 q 312 906 349 874 q 210 939 274 939 q 28 817 89 939 l 56 807 q 146 861 95 861 q 202 841 181 861 q 223 794 223 821 q 192 733 223 759 q 117 705 176 720 l 117 687 m 909 939 l 817 939 l 166 -40 l 256 -40 l 909 939 m 641 150 l 641 73 l 842 73 l 842 -32 l 964 -32 l 964 73 l 1014 73 l 1014 150 l 964 150 l 964 458 l 902 458 l 641 150 m 697 150 l 842 319 l 842 150 l 697 150 "},"₣":{"ha":694,"x_min":14,"x_max":664,"o":"m 365 196 l 365 439 q 496 382 452 429 q 551 224 540 334 l 574 224 l 574 686 l 551 686 q 492 538 539 585 q 365 489 445 492 l 365 867 q 469 859 435 866 q 553 824 519 848 q 609 760 588 801 q 636 656 629 719 l 664 656 l 664 920 l 14 920 l 14 895 l 45 895 q 106 881 83 895 q 137 850 129 868 q 144 762 144 833 l 144 196 l 14 196 l 14 144 l 144 144 l 144 138 q 139 77 144 92 q 113 42 132 55 q 45 25 89 25 l 14 25 l 14 0 l 495 0 l 495 25 l 465 25 q 404 38 427 25 q 373 68 381 51 q 365 144 365 85 l 504 144 l 504 196 l 365 196 "},"Ğ":{"ha":1080,"x_min":56,"x_max":1066,"o":"m 958 941 l 933 941 q 903 888 920 902 q 868 874 887 874 q 789 900 856 874 q 692 930 722 925 q 569 941 637 941 q 202 798 348 941 q 56 448 56 655 q 104 238 56 332 q 207 107 141 165 q 360 14 273 50 q 577 -22 446 -22 q 775 -2 680 -22 q 958 58 870 18 l 958 249 q 964 312 958 299 q 995 347 975 336 q 1066 361 1015 357 l 1066 386 l 619 386 l 619 361 l 643 361 q 700 348 676 361 q 730 319 723 335 q 738 249 738 303 l 738 58 q 666 37 701 44 q 598 30 631 30 q 433 77 503 30 q 332 223 363 123 q 301 455 301 323 q 330 668 301 564 q 427 830 358 772 q 598 888 495 888 q 797 819 706 888 q 933 616 888 749 l 958 616 l 958 941 m 722 1215 q 668 1150 704 1171 q 557 1129 632 1129 q 454 1151 490 1129 q 401 1215 418 1173 l 356 1215 q 423 1059 362 1119 q 562 998 484 998 q 701 1059 641 998 q 766 1215 762 1119 l 722 1215 "},"ğ":{"ha":694,"x_min":52,"x_max":669,"o":"m 454 627 q 323 653 387 653 q 128 585 204 653 q 52 424 52 517 q 93 298 52 353 q 224 211 134 244 q 111 134 146 178 q 75 43 75 90 q 163 -77 75 -34 q 76 -119 99 -94 q 52 -175 52 -144 q 83 -237 52 -208 q 184 -283 113 -267 q 340 -300 254 -300 q 541 -267 454 -300 q 634 -197 599 -244 q 669 -92 669 -150 q 593 41 669 -2 q 397 73 539 73 l 279 71 q 219 87 237 71 q 200 127 200 102 q 221 175 200 155 q 272 195 241 195 q 353 191 349 191 q 468 219 404 191 q 571 297 533 248 q 608 415 608 347 q 592 492 608 455 q 546 552 579 519 l 667 552 l 667 627 l 454 627 m 336 611 q 397 578 376 611 q 428 413 428 534 q 401 268 428 305 q 333 231 374 231 q 270 268 296 231 q 243 407 243 306 q 270 571 243 532 q 336 611 297 611 m 296 -94 q 493 -101 456 -94 q 549 -129 530 -109 q 559 -157 559 -140 q 505 -228 559 -203 q 357 -253 451 -253 q 206 -225 246 -253 q 166 -162 166 -197 q 205 -105 166 -126 q 296 -94 227 -94 m 522 941 q 467 876 503 897 q 356 854 431 854 q 253 876 290 854 q 200 941 217 898 l 155 941 q 222 784 161 844 q 361 724 283 724 q 500 784 440 724 q 566 941 561 844 l 522 941 "},"İ":{"ha":541,"x_min":28,"x_max":509,"o":"m 509 25 l 478 25 q 417 38 439 25 q 386 69 394 52 q 378 157 378 87 l 378 762 q 386 848 378 831 q 414 880 396 871 q 478 895 438 895 l 509 895 l 509 920 l 28 920 l 28 895 l 58 895 q 120 881 97 895 q 150 850 142 868 q 157 762 157 833 l 157 157 q 150 72 157 88 q 123 39 140 49 q 58 25 98 25 l 28 25 l 28 0 l 509 0 l 509 25 m 268 1190 q 197 1161 227 1190 q 168 1090 168 1132 q 197 1020 168 1049 q 268 991 227 991 q 338 1020 309 991 q 368 1090 368 1049 q 338 1161 368 1132 q 268 1190 309 1190 "},"Ş":{"ha":772,"x_min":72,"x_max":717,"o":"m 652 941 l 632 941 q 613 888 623 899 q 585 878 603 878 q 521 900 567 878 q 444 930 475 922 q 357 941 401 941 q 153 863 234 941 q 73 676 73 786 q 102 558 73 612 q 186 461 132 505 q 367 356 241 418 q 492 284 456 312 q 544 227 527 257 q 562 163 562 196 q 516 67 562 109 q 395 26 471 26 q 212 103 297 26 q 97 326 127 180 l 72 326 l 72 -21 l 97 -21 q 129 20 109 7 q 166 34 149 34 q 220 20 187 34 q 317 -13 278 -4 q 399 -22 355 -22 q 627 61 537 -22 q 717 260 717 144 q 661 421 717 351 q 444 571 605 492 q 296 650 328 628 q 233 713 253 682 q 219 768 219 737 q 259 853 219 816 q 369 890 300 890 q 535 820 458 890 q 632 634 612 749 l 660 634 l 652 941 m 393 8 l 313 -106 q 358 -120 342 -106 q 374 -154 374 -134 q 350 -207 374 -188 q 258 -229 326 -227 l 258 -261 q 414 -245 363 -262 q 468 -204 447 -233 q 489 -140 489 -175 q 468 -74 489 -100 q 406 -41 446 -48 l 437 8 l 393 8 "},"ş":{"ha":541,"x_min":55,"x_max":491,"o":"m 448 652 l 425 652 q 401 623 408 628 q 381 618 393 618 q 351 628 370 618 q 252 653 303 653 q 105 594 156 653 q 55 461 55 534 q 100 338 55 394 q 234 229 130 300 q 325 157 304 180 q 345 100 345 133 q 325 52 345 72 q 271 32 304 32 q 171 77 224 32 q 87 211 117 121 l 64 211 l 75 -17 l 97 -17 q 134 17 112 17 q 162 9 142 17 q 283 -19 238 -19 q 390 8 342 -19 q 465 86 438 35 q 491 190 491 137 q 459 295 491 248 q 328 410 428 342 q 207 505 229 477 q 193 541 193 522 q 213 584 193 565 q 260 602 233 602 q 349 567 304 602 q 435 435 393 532 l 458 435 l 448 652 m 267 9 l 187 -106 q 233 -119 217 -106 q 249 -153 249 -133 q 225 -207 249 -187 q 133 -229 201 -226 l 133 -260 q 289 -244 237 -261 q 342 -203 321 -233 q 363 -139 363 -174 q 342 -74 363 -100 q 280 -41 321 -47 l 312 9 l 267 9 "},"Ć":{"ha":1003,"x_min":55,"x_max":927,"o":"m 927 941 l 901 941 q 880 890 896 906 q 842 874 864 874 q 763 899 825 874 q 558 941 655 941 q 310 876 427 941 q 124 692 193 810 q 55 443 55 574 q 117 208 55 318 q 293 38 179 97 q 555 -21 408 -21 q 750 15 667 -21 q 911 132 834 52 l 911 212 q 759 81 831 119 q 600 43 687 43 q 428 95 494 43 q 330 248 361 146 q 299 473 299 349 q 342 701 299 598 q 447 830 375 781 q 605 880 519 880 q 789 813 708 880 q 901 622 871 747 l 927 622 l 927 941 m 753 1234 l 549 1234 l 471 998 l 529 998 l 753 1234 "},"ć":{"ha":616,"x_min":53,"x_max":585,"o":"m 564 163 q 494 104 524 120 q 431 89 464 89 q 342 118 380 89 q 264 240 293 158 q 236 411 236 321 q 271 571 236 519 q 327 606 294 606 q 363 589 348 606 q 383 529 379 572 q 415 435 389 461 q 481 408 441 408 q 543 431 519 408 q 566 493 566 454 q 508 604 566 554 q 352 653 450 653 q 122 534 205 653 q 53 307 53 436 q 129 77 53 172 q 332 -19 205 -19 q 474 22 407 -19 q 585 147 541 63 l 564 163 m 541 951 l 336 951 l 258 715 l 316 715 l 541 951 "},"Č":{"ha":1003,"x_min":55,"x_max":927,"o":"m 927 941 l 901 941 q 880 890 896 906 q 842 874 864 874 q 763 899 825 874 q 558 941 655 941 q 310 876 427 941 q 124 692 193 810 q 55 443 55 574 q 117 208 55 318 q 293 38 179 97 q 555 -21 408 -21 q 750 15 667 -21 q 911 132 834 52 l 911 212 q 759 81 831 119 q 600 43 687 43 q 428 95 494 43 q 330 248 361 146 q 299 473 299 349 q 342 701 299 598 q 447 830 375 781 q 605 880 519 880 q 789 813 708 880 q 901 622 871 747 l 927 622 l 927 941 m 476 979 l 629 979 l 774 1234 l 719 1234 l 553 1098 l 391 1238 l 339 1238 l 476 979 "},"č":{"ha":616,"x_min":53,"x_max":585,"o":"m 564 163 q 494 104 524 120 q 431 89 464 89 q 342 118 380 89 q 264 240 293 158 q 236 411 236 321 q 271 571 236 519 q 327 606 294 606 q 363 589 348 606 q 383 529 379 572 q 415 435 389 461 q 481 408 441 408 q 543 431 519 408 q 566 493 566 454 q 508 604 566 554 q 352 653 450 653 q 122 534 205 653 q 53 307 53 436 q 129 77 53 172 q 332 -19 205 -19 q 474 22 407 -19 q 585 147 541 63 l 564 163 m 271 709 l 425 709 l 570 964 l 514 964 l 348 828 l 186 968 l 134 968 l 271 709 "},"đ":{"ha":772,"x_min":54,"x_max":741,"o":"m 663 800 l 663 920 l 382 920 l 382 891 q 443 882 426 891 q 468 850 459 872 q 473 800 472 840 l 246 800 l 246 743 l 473 743 l 473 574 q 398 635 433 618 q 317 653 363 653 q 185 612 247 653 q 89 489 124 570 q 54 306 54 408 q 111 90 54 178 q 302 -19 181 -19 q 388 2 350 -19 q 473 81 425 23 l 473 -19 l 741 33 l 741 56 q 688 69 703 58 q 667 102 673 80 q 663 190 663 116 l 663 743 l 741 743 l 741 800 l 663 800 m 473 490 l 473 156 q 361 62 420 62 q 318 75 334 62 q 270 159 288 101 q 252 336 252 216 q 268 498 252 446 q 309 572 284 551 q 351 586 326 586 q 473 490 423 586 "},"¯":{"ha":694,"x_min":-13,"x_max":707,"o":"m -13 1080 l -13 991 l 707 991 l 707 1080 l -13 1080 "},"·":{"ha":463,"x_min":142,"x_max":321,"o":"m 231 568 q 168 542 194 568 q 142 479 142 516 q 168 416 142 442 q 231 390 194 390 q 294 416 268 390 q 321 479 321 442 q 295 542 321 516 q 231 568 269 568 "},"Ă":{"ha":1003,"x_min":11,"x_max":987,"o":"m 578 262 l 627 147 q 647 96 646 102 q 651 71 651 83 q 636 40 651 51 q 561 25 614 25 l 543 25 l 543 0 l 987 0 l 987 25 q 922 50 945 28 q 844 184 892 77 l 513 939 l 500 939 l 171 205 q 92 66 124 100 q 11 25 60 33 l 11 0 l 317 0 l 317 25 q 227 41 245 31 q 195 98 195 60 q 214 172 195 127 l 253 262 l 578 262 m 555 312 l 277 312 l 418 629 l 555 312 m 661 1215 q 606 1150 642 1171 q 495 1129 570 1129 q 392 1151 429 1129 q 339 1215 356 1173 l 294 1215 q 361 1059 300 1119 q 500 998 422 998 q 640 1059 579 998 q 705 1215 700 1119 l 661 1215 "},"ă":{"ha":694,"x_min":62,"x_max":671,"o":"m 397 94 q 434 17 404 42 q 519 -9 465 -9 q 601 14 565 -9 q 671 87 637 37 l 651 103 q 615 78 633 78 q 600 83 606 78 q 589 100 593 89 q 586 155 586 111 l 586 401 q 576 532 586 503 q 508 615 561 576 q 366 653 456 653 q 222 629 291 653 q 114 561 153 606 q 75 468 75 517 q 104 408 75 433 q 176 382 133 382 q 240 405 216 382 q 265 462 265 429 q 239 518 265 489 q 220 553 220 539 q 238 582 220 570 q 311 602 267 602 q 359 588 338 602 q 389 555 381 574 q 397 465 397 536 l 397 401 q 125 247 187 304 q 62 116 62 189 q 98 27 62 62 q 189 -9 134 -9 q 397 94 281 -9 m 397 143 q 318 105 352 105 q 271 123 288 105 q 248 178 248 147 q 275 252 248 216 q 397 355 315 307 l 397 143 m 514 941 q 460 876 496 897 q 349 854 424 854 q 246 876 282 854 q 193 941 210 898 l 148 941 q 215 784 154 844 q 354 724 276 724 q 493 784 433 724 q 558 941 553 844 l 514 941 "},"Ą":{"ha":1003,"x_min":11,"x_max":987,"o":"m 578 262 l 627 147 q 647 96 646 102 q 651 71 651 83 q 636 40 651 51 q 561 25 614 25 l 543 25 l 543 0 l 987 0 l 987 25 q 922 50 945 28 q 844 184 892 77 l 513 939 l 500 939 l 171 205 q 92 66 124 100 q 11 25 60 33 l 11 0 l 317 0 l 317 25 q 227 41 245 31 q 195 98 195 60 q 214 172 195 127 l 253 262 l 578 262 m 555 312 l 277 312 l 418 629 l 555 312 m 877 41 l 844 41 q 773 4 810 28 q 707 -51 737 -20 q 657 -118 677 -82 q 637 -191 637 -154 q 646 -233 637 -213 q 671 -268 654 -253 q 710 -291 687 -282 q 762 -300 733 -300 q 831 -279 795 -300 q 903 -214 867 -258 l 890 -197 q 861 -214 877 -208 q 827 -220 845 -220 q 799 -216 813 -220 q 773 -201 784 -211 q 754 -178 762 -192 q 747 -144 747 -163 q 759 -90 747 -117 q 788 -37 770 -62 q 829 8 806 -12 q 877 41 852 28 "},"ą":{"ha":694,"x_min":62,"x_max":671,"o":"m 397 94 q 434 17 404 42 q 519 -9 465 -9 q 601 14 565 -9 q 671 87 637 37 l 651 103 q 615 78 633 78 q 600 83 606 78 q 589 100 593 89 q 586 155 586 111 l 586 401 q 576 532 586 503 q 508 615 561 576 q 366 653 456 653 q 222 629 291 653 q 114 561 153 606 q 75 468 75 517 q 104 408 75 433 q 176 382 133 382 q 240 405 216 382 q 265 462 265 429 q 239 518 265 489 q 220 553 220 539 q 238 582 220 570 q 311 602 267 602 q 359 588 338 602 q 389 555 381 574 q 397 465 397 536 l 397 401 q 125 247 187 304 q 62 116 62 189 q 98 27 62 62 q 189 -9 134 -9 q 397 94 281 -9 m 397 143 q 318 105 352 105 q 271 123 288 105 q 248 178 248 147 q 275 252 248 216 q 397 355 315 307 l 397 143 m 631 41 l 598 41 q 528 4 564 28 q 461 -51 492 -20 q 412 -118 431 -82 q 392 -191 392 -154 q 400 -233 392 -213 q 425 -268 409 -253 q 465 -291 441 -282 q 517 -300 488 -300 q 586 -279 549 -300 q 658 -214 622 -258 l 644 -197 q 615 -214 631 -208 q 582 -220 600 -220 q 553 -216 568 -220 q 527 -201 538 -211 q 509 -178 516 -192 q 502 -144 502 -163 q 513 -90 502 -117 q 543 -37 524 -62 q 584 8 561 -12 q 631 41 607 28 "},"Ď":{"ha":1003,"x_min":18,"x_max":945,"o":"m 18 0 l 430 0 q 560 8 519 0 q 719 58 654 26 q 833 143 783 90 q 913 278 882 197 q 945 457 945 360 q 881 709 945 597 q 695 875 818 820 q 430 920 595 920 l 18 920 l 18 895 l 49 895 q 110 881 87 895 q 140 850 133 868 q 148 762 148 833 l 148 157 q 142 72 148 86 q 110 38 132 50 q 49 25 89 25 l 18 25 l 18 0 m 369 867 q 531 847 482 868 q 644 734 600 817 q 700 452 700 629 q 618 127 700 232 q 446 50 559 50 q 393 60 411 50 q 374 80 380 67 q 369 150 369 93 l 369 867 m 401 979 l 554 979 l 699 1234 l 644 1234 l 477 1098 l 315 1238 l 264 1238 l 401 979 "},"ď":{"ha":1019,"x_min":56,"x_max":1003,"o":"m 770 489 q 944 600 886 524 q 1003 772 1003 675 q 961 896 1003 850 q 862 941 920 941 q 780 907 813 941 q 746 828 746 873 q 775 755 746 786 q 844 724 804 724 q 893 735 873 724 q 906 740 902 740 q 916 734 911 740 q 920 718 920 729 q 884 607 920 661 q 770 519 848 553 l 770 489 m 666 920 l 385 920 l 385 891 q 446 882 429 891 q 470 852 462 872 q 476 765 476 838 l 476 574 q 401 635 436 618 q 320 653 366 653 q 188 612 250 653 q 92 489 127 570 q 56 306 56 408 q 113 90 56 178 q 305 -19 184 -19 q 390 2 353 -19 q 476 81 428 23 l 476 -19 l 744 33 l 744 56 q 691 69 706 58 q 670 102 675 80 q 666 190 666 116 l 666 920 m 476 490 l 476 156 q 363 62 423 62 q 321 75 336 62 q 273 159 290 101 q 255 336 255 216 q 271 498 255 446 q 312 572 287 551 q 353 586 328 586 q 476 490 426 586 "},"Đ":{"ha":1003,"x_min":24,"x_max":950,"o":"m 24 0 l 436 0 q 566 8 525 0 q 724 58 659 26 q 839 143 789 90 q 919 278 888 197 q 950 457 950 360 q 887 709 950 597 q 701 875 824 820 q 436 920 601 920 l 24 920 l 24 895 l 54 895 q 116 881 93 895 q 146 850 138 868 q 154 762 154 833 l 154 510 l 24 510 l 24 460 l 154 460 l 154 157 q 147 72 154 87 q 116 38 137 50 q 54 25 94 25 l 24 25 l 24 0 m 375 867 q 537 847 488 868 q 650 734 606 817 q 705 452 705 629 q 625 127 705 232 q 451 50 564 50 q 398 60 417 50 q 380 80 386 67 q 375 150 375 93 l 374 460 l 578 460 l 578 510 l 374 510 l 375 867 "},"Ę":{"ha":926,"x_min":28,"x_max":864,"o":"m 378 867 l 473 867 q 616 854 578 867 q 716 791 681 834 q 772 648 752 747 l 798 648 l 798 920 l 28 920 l 28 895 l 58 895 q 129 876 103 895 q 154 839 147 863 q 157 762 157 825 l 157 157 q 150 72 157 88 q 123 39 140 49 q 58 25 98 25 l 28 25 l 28 0 l 823 0 l 864 292 l 839 292 q 727 111 805 170 q 521 51 650 51 l 466 51 q 409 62 427 51 q 385 90 391 73 q 378 182 378 106 l 378 441 q 479 424 444 441 q 539 357 513 407 q 574 228 566 307 l 600 228 l 600 709 l 574 709 q 524 547 563 602 q 397 492 484 492 l 378 492 l 378 867 m 793 41 l 760 41 q 689 4 726 28 q 623 -51 653 -20 q 573 -118 593 -82 q 553 -191 553 -154 q 562 -233 553 -213 q 587 -268 570 -253 q 626 -291 603 -282 q 678 -300 649 -300 q 747 -279 711 -300 q 819 -214 783 -258 l 806 -197 q 777 -214 793 -208 q 743 -220 761 -220 q 714 -216 729 -220 q 689 -201 700 -211 q 670 -178 677 -192 q 663 -144 663 -163 q 674 -90 663 -117 q 704 -37 686 -62 q 745 8 722 -12 q 793 41 768 28 "},"ę":{"ha":616,"x_min":54,"x_max":584,"o":"m 584 340 q 508 574 578 495 q 340 653 437 653 q 139 559 225 653 q 54 307 54 465 q 112 90 54 177 q 326 -19 184 -19 q 470 25 408 -19 q 584 174 532 68 l 561 189 q 490 107 523 130 q 416 84 456 84 q 303 140 350 84 q 236 340 242 214 l 584 340 m 417 385 l 233 385 l 233 409 q 273 574 233 514 q 330 609 295 609 q 368 597 354 609 q 405 535 393 576 q 417 385 417 494 m 489 41 l 456 41 q 386 4 422 28 q 319 -51 349 -20 q 269 -118 289 -82 q 250 -191 250 -154 q 258 -233 250 -213 q 283 -268 267 -253 q 322 -291 299 -282 q 374 -300 345 -300 q 443 -279 407 -300 q 515 -214 479 -258 l 502 -197 q 473 -214 489 -208 q 439 -220 457 -220 q 411 -216 425 -220 q 385 -201 396 -211 q 367 -178 374 -192 q 359 -144 359 -163 q 371 -90 359 -117 q 400 -37 382 -62 q 441 8 418 -12 q 489 41 465 28 "},"Ě":{"ha":926,"x_min":28,"x_max":864,"o":"m 378 867 l 473 867 q 616 854 578 867 q 716 791 681 834 q 772 648 752 747 l 798 648 l 798 920 l 28 920 l 28 895 l 58 895 q 129 876 103 895 q 154 839 147 863 q 157 762 157 825 l 157 157 q 150 72 157 88 q 123 39 140 49 q 58 25 98 25 l 28 25 l 28 0 l 823 0 l 864 292 l 839 292 q 727 111 805 170 q 521 51 650 51 l 466 51 q 409 62 427 51 q 385 90 391 73 q 378 182 378 106 l 378 441 q 479 424 444 441 q 539 357 513 407 q 574 228 566 307 l 600 228 l 600 709 l 574 709 q 524 547 563 602 q 397 492 484 492 l 378 492 l 378 867 m 366 979 l 519 979 l 664 1234 l 608 1234 l 442 1098 l 280 1238 l 229 1238 l 366 979 "},"ě":{"ha":616,"x_min":54,"x_max":584,"o":"m 584 340 q 508 574 578 495 q 340 653 437 653 q 139 559 225 653 q 54 307 54 465 q 112 90 54 177 q 326 -19 184 -19 q 470 25 408 -19 q 584 174 532 68 l 561 189 q 490 107 523 130 q 416 84 456 84 q 303 140 350 84 q 236 340 242 214 l 584 340 m 417 385 l 233 385 l 233 409 q 273 574 233 514 q 330 609 295 609 q 368 597 354 609 q 405 535 393 576 q 417 385 417 494 m 254 709 l 408 709 l 553 964 l 497 964 l 331 828 l 169 968 l 117 968 l 254 709 "},"Ĺ":{"ha":926,"x_min":26,"x_max":877,"o":"m 877 323 l 849 323 q 782 159 817 214 q 697 77 746 103 q 575 52 648 52 l 498 52 q 416 58 433 52 q 385 86 393 67 q 376 176 376 106 l 376 762 q 384 848 376 831 q 412 880 394 871 q 476 895 436 895 l 516 895 l 516 920 l 26 920 l 26 895 l 56 895 q 118 881 95 895 q 148 850 140 868 q 155 762 155 833 l 155 157 q 148 72 155 88 q 121 39 138 49 q 56 25 96 25 l 26 25 l 26 0 l 842 0 l 877 323 m 517 1234 l 313 1234 l 234 998 l 292 998 l 517 1234 "},"ĺ":{"ha":386,"x_min":29,"x_max":389,"o":"m 295 920 l 29 920 l 29 895 q 90 873 74 892 q 105 788 105 854 l 105 132 q 92 49 105 64 q 29 24 71 26 l 29 0 l 372 0 l 372 24 q 311 46 326 27 q 295 132 295 64 l 295 920 m 389 1234 l 184 1234 l 106 998 l 164 998 l 389 1234 "},"Ľ":{"ha":926,"x_min":26,"x_max":877,"o":"m 629 489 q 803 600 745 524 q 861 772 861 675 q 820 896 861 850 q 721 941 779 941 q 638 907 672 941 q 604 828 604 873 q 634 755 604 786 q 703 724 663 724 q 752 735 732 724 q 764 740 760 740 q 774 734 770 740 q 779 718 779 728 q 743 607 779 661 q 629 519 707 553 l 629 489 m 877 323 l 849 323 q 782 159 817 214 q 697 77 746 103 q 575 52 648 52 l 498 52 q 416 58 433 52 q 385 86 393 67 q 376 176 376 106 l 376 762 q 384 848 376 831 q 412 880 394 871 q 476 895 436 895 l 516 895 l 516 920 l 26 920 l 26 895 l 56 895 q 118 881 95 895 q 148 850 140 868 q 155 762 155 833 l 155 157 q 148 72 155 88 q 121 39 138 49 q 56 25 96 25 l 26 25 l 26 0 l 842 0 l 877 323 "},"ľ":{"ha":651,"x_min":28,"x_max":633,"o":"m 399 489 q 574 600 515 524 q 633 772 633 675 q 591 896 633 850 q 492 941 549 941 q 409 907 443 941 q 376 828 376 873 q 405 755 376 786 q 474 724 434 724 q 523 735 503 724 q 535 740 532 740 q 545 734 541 740 q 549 718 549 728 q 514 607 549 661 q 399 519 478 553 l 399 489 m 294 920 l 28 920 l 28 895 q 89 873 73 892 q 104 788 104 854 l 104 132 q 91 49 104 64 q 28 24 71 26 l 28 0 l 371 0 l 371 24 q 310 46 326 27 q 294 132 294 64 l 294 920 "},"Ŀ":{"ha":926,"x_min":26,"x_max":877,"o":"m 877 323 l 849 323 q 782 159 817 214 q 697 77 746 103 q 575 52 648 52 l 498 52 q 416 58 433 52 q 385 86 393 67 q 376 176 376 106 l 376 762 q 384 848 376 831 q 412 880 394 871 q 476 895 436 895 l 516 895 l 516 920 l 26 920 l 26 895 l 56 895 q 118 881 95 895 q 148 850 140 868 q 155 762 155 833 l 155 157 q 148 72 155 88 q 121 39 138 49 q 56 25 96 25 l 26 25 l 26 0 l 842 0 l 877 323 m 469 538 q 406 512 432 538 q 380 450 380 486 q 406 386 380 412 q 469 360 432 360 q 532 386 506 360 q 559 450 559 412 q 533 512 559 486 q 469 538 507 538 "},"ŀ":{"ha":549,"x_min":29,"x_max":550,"o":"m 295 920 l 29 920 l 29 895 q 90 873 74 892 q 105 788 105 854 l 105 132 q 92 49 105 64 q 29 24 71 26 l 29 0 l 372 0 l 372 24 q 311 46 326 27 q 295 132 295 64 l 295 920 m 460 549 q 397 523 423 549 q 371 460 371 496 q 397 396 371 422 q 460 370 423 370 q 524 396 497 370 q 550 460 550 422 q 524 523 550 496 q 460 549 498 549 "},"Ń":{"ha":1003,"x_min":20,"x_max":970,"o":"m 346 920 l 20 920 l 20 895 q 84 882 62 893 q 136 833 106 870 l 155 809 l 155 160 q 125 56 155 87 q 20 25 96 26 l 20 0 l 346 0 l 346 25 l 324 25 q 241 53 277 25 q 205 160 205 81 l 205 745 l 827 -21 l 850 -21 l 850 745 q 861 837 850 810 q 892 875 872 863 q 970 895 912 887 l 970 920 l 667 920 l 667 895 q 776 857 743 896 q 800 745 800 827 l 800 349 l 346 920 m 700 1234 l 496 1234 l 417 998 l 475 998 l 700 1234 "},"ń":{"ha":772,"x_min":47,"x_max":732,"o":"m 306 634 l 47 634 l 47 609 q 103 586 90 604 q 116 496 116 568 l 116 138 q 104 50 116 65 q 47 24 87 28 l 47 0 l 368 0 l 368 24 q 319 48 332 29 q 306 138 306 67 l 306 478 q 414 562 356 562 q 447 550 432 562 q 467 519 461 539 q 473 420 473 498 l 473 138 q 463 54 473 71 q 411 24 447 29 l 411 0 l 732 0 l 732 24 q 676 47 690 29 q 663 138 663 65 l 663 385 q 652 534 663 495 q 598 619 639 585 q 496 653 557 653 q 399 629 444 653 q 306 552 355 605 l 306 634 m 578 951 l 374 951 l 296 715 l 354 715 l 578 951 "},"Ň":{"ha":1003,"x_min":20,"x_max":970,"o":"m 346 920 l 20 920 l 20 895 q 84 882 62 893 q 136 833 106 870 l 155 809 l 155 160 q 125 56 155 87 q 20 25 96 26 l 20 0 l 346 0 l 346 25 l 324 25 q 241 53 277 25 q 205 160 205 81 l 205 745 l 827 -21 l 850 -21 l 850 745 q 861 837 850 810 q 892 875 872 863 q 970 895 912 887 l 970 920 l 667 920 l 667 895 q 776 857 743 896 q 800 745 800 827 l 800 349 l 346 920 m 431 979 l 584 979 l 729 1234 l 673 1234 l 507 1098 l 345 1238 l 294 1238 l 431 979 "},"ň":{"ha":772,"x_min":47,"x_max":732,"o":"m 306 634 l 47 634 l 47 609 q 103 586 90 604 q 116 496 116 568 l 116 138 q 104 50 116 65 q 47 24 87 28 l 47 0 l 368 0 l 368 24 q 319 48 332 29 q 306 138 306 67 l 306 478 q 414 562 356 562 q 447 550 432 562 q 467 519 461 539 q 473 420 473 498 l 473 138 q 463 54 473 71 q 411 24 447 29 l 411 0 l 732 0 l 732 24 q 676 47 690 29 q 663 138 663 65 l 663 385 q 652 534 663 495 q 598 619 639 585 q 496 653 557 653 q 399 629 444 653 q 306 552 355 605 l 306 634 m 309 709 l 463 709 l 608 964 l 552 964 l 386 828 l 224 968 l 172 968 l 309 709 "},"Ő":{"ha":1080,"x_min":54,"x_max":1031,"o":"m 536 932 q 194 804 333 941 q 54 463 54 667 q 161 147 54 280 q 545 -21 297 -21 q 928 155 793 -21 q 1031 463 1031 288 q 893 804 1031 668 q 536 932 756 941 m 545 889 q 666 852 613 889 q 752 724 718 814 q 786 451 786 633 q 753 202 786 298 q 660 64 720 107 q 543 30 613 30 q 382 109 439 30 q 299 456 299 221 q 353 760 299 654 q 545 889 418 889 m 607 1233 l 466 1233 l 387 999 l 441 999 l 607 1233 m 823 1233 l 683 1233 l 606 999 l 659 999 l 823 1233 "},"ő":{"ha":694,"x_min":50,"x_max":645,"o":"m 346 653 q 129 552 208 653 q 50 314 50 450 q 127 81 50 182 q 348 -19 205 -19 q 576 91 494 -19 q 645 317 645 182 q 608 489 645 410 q 500 610 571 568 q 346 653 429 653 m 349 605 q 395 591 377 605 q 433 528 420 571 q 446 370 446 485 q 432 109 446 174 q 397 45 423 68 q 346 28 376 28 q 290 53 315 28 q 258 126 266 78 q 249 262 249 189 q 257 476 249 399 q 289 579 264 553 q 349 605 314 605 m 412 951 l 271 951 l 192 717 l 246 717 l 412 951 m 627 951 l 488 951 l 410 717 l 464 717 l 627 951 "},"Ŕ":{"ha":1003,"x_min":26,"x_max":1015,"o":"m 369 419 l 429 419 l 726 0 l 1015 0 l 1015 25 q 951 48 979 27 q 889 123 932 63 l 668 435 q 799 498 752 456 q 872 666 872 564 q 823 811 872 749 q 697 897 774 873 q 453 920 620 920 l 26 920 l 26 895 q 112 883 89 895 q 144 852 135 871 q 153 758 153 833 l 153 161 q 144 68 153 87 q 112 37 135 49 q 26 25 90 25 l 26 0 l 496 0 l 496 25 q 410 37 433 25 q 378 67 387 48 q 369 161 369 87 l 369 419 m 369 870 l 441 870 q 600 820 551 870 q 649 665 649 770 q 622 547 649 592 q 549 485 595 502 q 408 467 502 467 l 369 467 l 369 870 m 701 1234 l 497 1234 l 418 998 l 477 998 l 701 1234 "},"ŕ":{"ha":616,"x_min":51,"x_max":595,"o":"m 310 634 l 51 634 l 51 609 q 96 597 83 606 q 116 569 109 588 q 121 500 121 554 l 121 149 q 107 47 121 66 q 51 24 92 28 l 51 0 l 393 0 l 393 24 q 339 35 355 26 q 315 62 323 43 q 311 111 311 73 l 310 149 l 310 295 q 332 440 310 374 q 374 506 346 483 q 411 521 391 521 q 427 517 420 521 q 458 491 431 514 q 520 468 484 468 q 573 493 551 468 q 595 564 595 518 q 573 630 595 606 q 512 653 550 653 q 420 621 468 653 q 310 490 373 589 l 310 634 m 512 951 l 308 951 l 229 715 l 288 715 l 512 951 "},"Ř":{"ha":1003,"x_min":26,"x_max":1015,"o":"m 369 419 l 429 419 l 726 0 l 1015 0 l 1015 25 q 951 48 979 27 q 889 123 932 63 l 668 435 q 799 498 752 456 q 872 666 872 564 q 823 811 872 749 q 697 897 774 873 q 453 920 620 920 l 26 920 l 26 895 q 112 883 89 895 q 144 852 135 871 q 153 758 153 833 l 153 161 q 144 68 153 87 q 112 37 135 49 q 26 25 90 25 l 26 0 l 496 0 l 496 25 q 410 37 433 25 q 378 67 387 48 q 369 161 369 87 l 369 419 m 369 870 l 441 870 q 600 820 551 870 q 649 665 649 770 q 622 547 649 592 q 549 485 595 502 q 408 467 502 467 l 369 467 l 369 870 m 424 979 l 577 979 l 722 1234 l 667 1234 l 500 1098 l 338 1238 l 287 1238 l 424 979 "},"ř":{"ha":616,"x_min":51,"x_max":595,"o":"m 310 634 l 51 634 l 51 609 q 96 597 83 606 q 116 569 109 588 q 121 500 121 554 l 121 149 q 107 47 121 66 q 51 24 92 28 l 51 0 l 393 0 l 393 24 q 339 35 355 26 q 315 62 323 43 q 311 111 311 73 l 310 149 l 310 295 q 332 440 310 374 q 374 506 346 483 q 411 521 391 521 q 427 517 420 521 q 458 491 431 514 q 520 468 484 468 q 573 493 551 468 q 595 564 595 518 q 573 630 595 606 q 512 653 550 653 q 420 621 468 653 q 310 490 373 589 l 310 634 m 243 709 l 396 709 l 541 964 l 486 964 l 319 828 l 157 968 l 106 968 l 243 709 "},"Ś":{"ha":772,"x_min":72,"x_max":717,"o":"m 652 941 l 632 941 q 613 888 623 899 q 585 878 603 878 q 521 900 567 878 q 444 930 475 922 q 357 941 401 941 q 153 863 234 941 q 73 676 73 786 q 102 558 73 612 q 186 461 132 505 q 367 356 241 418 q 492 284 456 312 q 544 227 527 257 q 562 163 562 196 q 516 67 562 109 q 395 26 471 26 q 212 103 297 26 q 97 326 127 180 l 72 326 l 72 -21 l 97 -21 q 129 20 109 7 q 166 34 149 34 q 220 20 187 34 q 317 -13 278 -4 q 399 -22 355 -22 q 627 61 537 -22 q 717 260 717 144 q 661 421 717 351 q 444 571 605 492 q 296 650 328 628 q 233 713 253 682 q 219 768 219 737 q 259 853 219 816 q 369 890 300 890 q 535 820 458 890 q 632 634 612 749 l 660 634 l 652 941 m 583 1234 l 378 1234 l 300 998 l 358 998 l 583 1234 "},"ś":{"ha":541,"x_min":55,"x_max":491,"o":"m 448 652 l 425 652 q 401 623 408 628 q 381 618 393 618 q 351 628 370 618 q 252 653 303 653 q 105 594 156 653 q 55 461 55 534 q 100 338 55 394 q 234 229 130 300 q 325 157 304 180 q 345 100 345 133 q 325 52 345 72 q 271 32 304 32 q 171 77 224 32 q 87 211 117 121 l 64 211 l 75 -17 l 97 -17 q 134 17 112 17 q 162 9 142 17 q 283 -19 238 -19 q 390 8 342 -19 q 465 86 438 35 q 491 190 491 137 q 459 295 491 248 q 328 410 428 342 q 207 505 229 477 q 193 541 193 522 q 213 584 193 565 q 260 602 233 602 q 349 567 304 602 q 435 435 393 532 l 458 435 l 448 652 m 462 951 l 258 951 l 179 715 l 237 715 l 462 951 "},"Ţ":{"ha":926,"x_min":50,"x_max":876,"o":"m 876 920 l 50 920 l 50 671 l 76 671 q 151 827 92 772 q 286 867 193 867 l 352 867 l 352 157 q 345 72 352 88 q 317 39 334 49 q 252 25 292 25 l 222 25 l 222 0 l 703 0 l 703 25 l 673 25 q 611 38 633 25 q 580 69 588 52 q 572 157 572 87 l 572 867 l 641 867 q 731 854 705 867 q 804 794 777 832 q 852 671 830 757 l 876 671 l 876 920 m 450 8 l 370 -106 q 415 -120 399 -106 q 431 -154 431 -134 q 407 -207 431 -188 q 315 -229 383 -227 l 315 -261 q 471 -245 420 -262 q 525 -204 504 -233 q 546 -140 546 -175 q 525 -74 546 -100 q 463 -41 503 -48 l 494 8 l 450 8 "},"ţ":{"ha":463,"x_min":26,"x_max":449,"o":"m 298 866 l 276 866 q 171 718 231 784 q 26 591 111 651 l 26 567 l 109 567 l 109 224 q 115 100 109 123 q 169 25 127 58 q 271 -9 210 -9 q 449 121 394 -9 l 429 136 q 345 69 389 69 q 321 79 334 69 q 303 105 309 89 q 298 176 298 121 l 298 567 l 449 567 l 449 634 l 298 634 l 298 866 m 253 8 l 173 -106 q 219 -120 203 -106 q 235 -154 235 -134 q 211 -207 235 -188 q 119 -229 186 -227 l 119 -261 q 275 -245 223 -262 q 328 -204 307 -233 q 349 -140 349 -175 q 328 -74 349 -100 q 266 -41 307 -48 l 298 8 l 253 8 "},"Ť":{"ha":926,"x_min":50,"x_max":876,"o":"m 876 920 l 50 920 l 50 671 l 76 671 q 151 827 92 772 q 286 867 193 867 l 352 867 l 352 157 q 345 72 352 88 q 317 39 334 49 q 252 25 292 25 l 222 25 l 222 0 l 703 0 l 703 25 l 673 25 q 611 38 633 25 q 580 69 588 52 q 572 157 572 87 l 572 867 l 641 867 q 731 854 705 867 q 804 794 777 832 q 852 671 830 757 l 876 671 l 876 920 m 382 979 l 536 979 l 681 1234 l 625 1234 l 459 1098 l 297 1238 l 245 1238 l 382 979 "},"ť":{"ha":724,"x_min":25,"x_max":707,"o":"m 474 489 q 648 600 590 524 q 707 772 707 675 q 665 896 707 850 q 566 941 624 941 q 484 907 517 941 q 450 828 450 873 q 479 755 450 786 q 549 724 509 724 q 597 735 578 724 q 610 740 606 740 q 620 734 615 740 q 624 718 624 728 q 588 607 624 661 q 474 519 553 553 l 474 489 m 298 866 l 275 866 q 171 718 231 784 q 25 591 111 651 l 25 567 l 108 567 l 108 224 q 115 100 108 123 q 168 25 126 58 q 270 -9 210 -9 q 448 121 393 -9 l 428 136 q 345 69 389 69 q 321 79 334 69 q 303 105 308 89 q 298 176 298 121 l 298 567 l 448 567 l 448 634 l 298 634 l 298 866 "},"Ů":{"ha":1003,"x_min":33,"x_max":979,"o":"m 33 920 l 33 895 q 113 884 91 895 q 143 853 134 872 q 152 754 152 833 l 152 304 q 189 121 152 189 q 314 10 225 54 q 498 -22 379 -22 q 724 39 642 -22 q 828 171 807 99 q 850 405 850 243 l 850 754 q 859 832 850 810 q 896 879 870 863 q 960 895 922 895 l 979 895 l 979 920 l 661 920 l 661 895 q 747 879 717 895 q 780 842 767 869 q 793 754 793 816 l 793 379 q 767 174 793 233 q 688 81 741 115 q 561 47 635 47 q 453 74 496 47 q 392 140 410 100 q 373 304 373 180 l 373 754 q 381 852 373 833 q 410 883 390 872 q 484 895 430 895 l 507 895 l 507 920 l 33 920 m 516 1260 q 416 1219 457 1260 q 374 1118 374 1177 q 416 1018 374 1059 q 516 976 458 976 q 617 1018 575 976 q 659 1118 659 1059 q 617 1219 659 1177 q 516 1260 576 1260 m 517 1208 q 580 1182 554 1208 q 606 1118 606 1156 q 580 1055 606 1081 q 517 1029 553 1029 q 453 1055 479 1029 q 427 1118 427 1081 q 453 1182 427 1156 q 517 1208 479 1208 "},"ů":{"ha":772,"x_min":43,"x_max":728,"o":"m 659 634 l 401 634 l 401 609 q 456 586 443 604 q 469 496 469 568 l 469 157 q 404 86 431 104 q 360 73 385 73 q 328 83 342 73 q 308 113 314 94 q 301 201 301 133 l 301 634 l 43 634 l 43 609 q 98 586 85 604 q 111 496 111 568 l 111 245 q 125 91 111 135 q 181 14 140 47 q 277 -19 223 -19 q 378 6 333 -19 q 469 85 424 31 l 469 0 l 728 0 l 728 24 q 673 47 686 29 q 659 138 659 65 l 659 634 m 385 975 q 285 933 326 975 q 243 833 243 892 q 285 732 243 774 q 385 690 327 690 q 486 732 444 690 q 528 833 528 774 q 486 933 528 892 q 385 975 445 975 m 386 922 q 449 896 423 922 q 475 833 475 870 q 449 769 475 795 q 386 743 422 743 q 322 769 349 743 q 296 833 296 795 q 322 896 296 870 q 386 922 348 922 "},"Ű":{"ha":1003,"x_min":33,"x_max":979,"o":"m 33 920 l 33 895 q 113 884 91 895 q 143 853 134 872 q 152 754 152 833 l 152 304 q 189 121 152 189 q 314 10 225 54 q 498 -22 379 -22 q 724 39 642 -22 q 828 171 807 99 q 850 405 850 243 l 850 754 q 859 832 850 810 q 896 879 870 863 q 960 895 922 895 l 979 895 l 979 920 l 661 920 l 661 895 q 747 879 717 895 q 780 842 767 869 q 793 754 793 816 l 793 379 q 767 174 793 233 q 688 81 741 115 q 561 47 635 47 q 453 74 496 47 q 392 140 410 100 q 373 304 373 180 l 373 754 q 381 852 373 833 q 410 883 390 872 q 484 895 430 895 l 507 895 l 507 920 l 33 920 m 555 1233 l 414 1233 l 335 999 l 389 999 l 555 1233 m 770 1233 l 631 1233 l 553 999 l 607 999 l 770 1233 "},"ű":{"ha":772,"x_min":43,"x_max":728,"o":"m 659 634 l 401 634 l 401 609 q 456 586 443 604 q 469 496 469 568 l 469 157 q 404 86 431 104 q 360 73 385 73 q 328 83 342 73 q 308 113 314 94 q 301 201 301 133 l 301 634 l 43 634 l 43 609 q 98 586 85 604 q 111 496 111 568 l 111 245 q 125 91 111 135 q 181 14 140 47 q 277 -19 223 -19 q 378 6 333 -19 q 469 85 424 31 l 469 0 l 728 0 l 728 24 q 673 47 686 29 q 659 138 659 65 l 659 634 m 450 951 l 309 951 l 230 717 l 284 717 l 450 951 m 665 951 l 526 951 l 448 717 l 502 717 l 665 951 "},"Ź":{"ha":926,"x_min":22,"x_max":902,"o":"m 848 920 l 121 920 l 96 650 l 121 650 q 164 760 137 717 q 234 830 192 804 q 323 865 275 856 q 427 869 348 869 l 564 869 l 22 0 l 865 0 l 902 332 l 876 332 q 795 157 853 222 q 656 67 736 92 q 482 52 606 52 l 307 52 l 848 920 m 684 1234 l 479 1234 l 401 998 l 459 998 l 684 1234 "},"ź":{"ha":616,"x_min":14,"x_max":594,"o":"m 566 0 l 585 217 l 566 217 q 479 81 537 118 q 292 43 422 43 l 248 43 l 594 616 l 594 634 l 60 634 l 60 450 l 84 450 q 121 543 103 517 q 167 581 138 569 q 261 593 195 593 l 363 593 l 14 15 l 14 0 l 566 0 m 526 951 l 321 951 l 243 715 l 301 715 l 526 951 "},"Ż":{"ha":926,"x_min":22,"x_max":902,"o":"m 848 920 l 121 920 l 96 650 l 121 650 q 164 760 137 717 q 234 830 192 804 q 323 865 275 856 q 427 869 348 869 l 564 869 l 22 0 l 865 0 l 902 332 l 876 332 q 795 157 853 222 q 656 67 736 92 q 482 52 606 52 l 307 52 l 848 920 m 479 1190 q 408 1161 437 1190 q 379 1090 379 1132 q 408 1020 379 1049 q 479 991 437 991 q 549 1020 520 991 q 578 1090 578 1049 q 549 1161 578 1132 q 479 1190 520 1190 "},"ż":{"ha":616,"x_min":14,"x_max":594,"o":"m 566 0 l 585 217 l 566 217 q 479 81 537 118 q 292 43 422 43 l 248 43 l 594 616 l 594 634 l 60 634 l 60 450 l 84 450 q 121 543 103 517 q 167 581 138 569 q 261 593 195 593 l 363 593 l 14 15 l 14 0 l 566 0 m 337 928 q 267 899 296 928 q 237 828 237 869 q 267 758 237 787 q 337 728 296 728 q 408 758 378 728 q 437 828 437 787 q 408 899 437 869 q 337 928 378 928 "},"Γ":{"ha":884,"x_min":28,"x_max":839,"o":"m 28 920 l 28 895 l 57 895 q 139 868 121 895 q 157 780 157 842 l 157 145 q 135 48 157 71 q 54 25 113 25 l 28 25 l 28 0 l 507 0 l 507 25 l 484 25 q 400 46 423 25 q 378 145 378 68 l 378 860 l 565 860 q 710 849 673 860 q 772 800 747 838 q 814 670 798 762 l 839 670 l 839 920 l 28 920 "},"Θ":{"ha":1080,"x_min":52,"x_max":1029,"o":"m 543 941 q 296 881 408 941 q 118 713 184 821 q 52 463 52 605 q 111 220 52 332 q 280 44 170 109 q 543 -21 391 -21 q 897 121 764 -21 q 1029 463 1029 263 q 893 802 1029 663 q 543 941 758 941 m 543 889 q 784 451 784 889 q 720 135 784 240 q 541 30 656 30 q 359 141 421 30 q 297 456 297 252 q 362 782 297 675 q 543 889 427 889 m 423 285 q 435 339 423 317 q 469 367 447 360 q 553 374 491 374 q 659 285 659 374 l 684 285 l 684 623 l 659 623 q 634 554 659 574 q 541 534 609 534 q 447 554 471 534 q 423 623 423 574 l 397 623 l 397 285 l 423 285 "},"Φ":{"ha":1152,"x_min":53,"x_max":1099,"o":"m 815 25 q 711 46 736 25 q 686 132 686 68 q 1004 245 909 141 q 1099 468 1099 350 q 999 693 1099 592 q 686 800 899 793 q 714 876 689 858 q 815 895 740 895 l 815 920 l 335 920 l 335 895 q 437 875 411 895 q 465 800 463 855 q 146 686 239 788 q 53 468 53 585 q 146 247 53 351 q 465 132 240 142 q 440 47 464 68 q 335 25 416 26 l 335 0 l 815 0 l 815 25 m 465 747 l 465 184 q 274 460 274 196 q 465 747 274 742 m 686 184 l 686 747 q 878 467 878 743 q 829 252 878 318 q 686 184 780 185 "},"α":{"ha":775,"x_min":59,"x_max":745,"o":"m 520 634 l 491 498 q 414 617 453 582 q 320 653 376 653 q 135 547 212 653 q 59 295 59 440 q 136 68 59 156 q 338 -19 213 -19 q 570 117 495 -19 q 659 -19 596 -19 q 719 23 694 -19 q 745 185 744 65 l 720 185 q 662 85 717 85 q 622 109 642 85 q 597 168 603 132 q 642 334 618 226 l 706 634 l 520 634 m 473 414 l 435 235 q 379 60 404 91 q 326 28 353 28 q 272 87 286 28 q 258 277 258 146 q 280 552 258 505 q 338 599 302 599 q 405 563 376 599 q 473 414 434 526 "},"δ":{"ha":721,"x_min":50,"x_max":664,"o":"m 336 589 q 50 289 50 519 q 138 66 50 151 q 347 -19 226 -19 q 570 75 476 -19 q 664 309 664 168 q 625 482 664 405 q 532 595 585 559 q 355 684 479 631 q 236 750 269 721 q 203 814 203 779 q 232 870 203 852 q 295 889 260 889 q 408 825 354 889 q 511 760 464 760 q 559 777 539 760 q 580 823 580 793 q 513 909 580 878 q 344 941 446 941 q 199 900 244 941 q 153 804 153 860 q 170 739 153 770 q 234 669 186 707 l 336 589 m 366 551 q 463 260 463 426 q 349 30 463 30 q 274 78 299 30 q 248 291 248 126 q 278 475 248 424 q 366 551 307 526 "},"ε":{"ha":593,"x_min":44,"x_max":573,"o":"m 281 330 q 96 263 147 310 q 44 160 44 216 q 124 32 44 82 q 342 -19 204 -19 q 509 19 446 -19 q 573 112 573 58 q 553 164 573 142 q 496 185 533 185 q 446 169 467 185 q 425 124 425 153 q 429 90 425 112 q 431 75 431 81 q 407 42 431 56 q 355 28 384 28 q 256 170 256 28 q 352 313 256 313 q 375 313 362 313 q 422 310 410 310 q 458 335 458 310 q 420 362 458 362 q 401 361 413 362 q 347 358 365 358 q 279 381 299 358 q 259 477 259 404 q 355 606 259 606 q 423 572 423 606 q 419 547 423 565 q 415 524 415 530 q 434 489 415 507 q 488 472 452 472 q 543 492 524 472 q 562 538 562 511 q 512 619 562 585 q 349 653 462 653 q 138 605 201 653 q 75 489 75 557 q 281 330 75 364 "},"σ":{"ha":755,"x_min":50,"x_max":725,"o":"m 725 634 l 526 634 q 242 602 334 634 q 100 501 151 569 q 50 335 50 433 q 138 90 50 199 q 379 -19 226 -19 q 589 56 508 -19 q 669 237 669 132 q 492 474 669 386 l 725 474 l 725 634 m 427 474 q 482 245 482 365 q 457 84 482 143 q 385 26 431 26 q 286 97 332 26 q 239 267 239 168 q 290 427 239 382 q 427 474 340 473 "},"τ":{"ha":640,"x_min":1,"x_max":610,"o":"m 395 474 l 610 474 l 610 634 l 288 634 q 148 624 184 634 q 70 561 111 613 q 1 414 29 509 l 24 404 q 78 459 46 445 q 173 474 111 474 l 265 474 l 241 302 q 227 143 227 207 q 353 -19 227 -19 q 474 37 431 -19 q 519 186 518 94 l 494 186 q 435 84 486 84 q 384 222 384 84 q 386 294 384 248 l 395 474 "},"φ":{"ha":867,"x_min":54,"x_max":812,"o":"m 488 -297 l 488 -18 q 658 35 582 -16 q 773 167 734 85 q 812 336 812 249 q 724 565 812 477 q 538 653 635 653 q 445 626 486 653 q 389 553 404 598 q 375 429 375 507 l 375 25 q 240 321 240 49 q 268 538 240 467 q 359 627 296 608 l 359 653 q 138 552 221 650 q 54 325 54 454 q 137 97 54 198 q 375 -18 220 -5 l 375 -297 l 488 -297 m 488 25 l 488 399 q 495 543 488 510 q 526 576 503 576 q 592 517 560 576 q 624 311 624 459 q 488 25 624 51 "},"‗":{"ha":694,"x_min":-13,"x_max":707,"o":"m -13 -72 l -13 -160 l 707 -160 l 707 -72 l -13 -72 m -13 -211 l -13 -300 l 707 -300 l 707 -211 l -13 -211 "},"‼":{"ha":839,"x_min":119,"x_max":720,"o":"m 247 299 q 275 486 256 408 l 311 634 q 345 827 345 775 q 312 908 345 876 q 231 941 280 941 q 150 909 181 941 q 119 825 119 877 q 151 634 119 767 l 186 486 q 217 299 212 376 l 247 299 m 233 202 q 155 170 186 202 q 123 92 123 137 q 155 14 123 46 q 233 -18 187 -18 q 310 14 278 -18 q 342 92 342 46 q 310 170 342 138 q 233 202 278 202 m 622 299 q 650 486 631 408 l 686 634 q 720 827 720 775 q 687 908 720 876 q 606 941 655 941 q 525 909 556 941 q 494 825 494 877 q 526 634 494 767 l 561 486 q 592 299 587 376 l 622 299 m 608 202 q 530 170 562 202 q 498 92 498 137 q 530 14 498 46 q 608 -18 562 -18 q 685 14 653 -18 q 718 92 718 46 q 685 170 718 138 q 608 202 653 202 "},"ⁿ":{"ha":483,"x_min":29,"x_max":463,"o":"m 195 760 l 29 760 l 29 736 q 67 722 60 730 q 73 674 73 714 l 73 463 q 67 415 73 422 q 29 400 60 406 l 29 376 l 233 376 l 233 400 q 201 414 208 405 q 195 463 195 423 l 195 661 q 260 707 224 707 q 282 701 273 707 q 294 685 291 695 q 298 629 298 674 l 298 463 q 294 421 298 429 q 284 408 291 412 q 258 400 271 400 l 258 376 l 463 376 l 463 400 q 425 415 432 406 q 419 463 419 422 l 419 608 q 409 708 419 680 q 373 753 399 736 q 312 771 347 771 q 195 712 252 771 l 195 760 "},"₧":{"ha":1345,"x_min":26,"x_max":1324,"o":"m 26 920 l 26 896 q 87 863 65 890 q 102 766 102 842 l 102 155 q 90 63 102 84 q 26 24 71 31 l 26 0 l 429 0 l 429 24 q 362 28 378 24 q 321 59 335 36 q 307 150 307 83 l 307 419 l 338 419 q 526 441 452 418 q 655 509 600 464 l 655 178 q 672 63 655 100 q 723 5 689 26 q 799 -17 758 -17 q 867 0 837 -17 q 914 47 890 13 l 918 -17 l 940 -17 q 980 21 957 21 q 1007 13 988 21 q 1131 -18 1076 -18 q 1268 39 1212 -18 q 1324 178 1324 96 q 1303 269 1324 227 q 1251 338 1282 311 q 1138 418 1221 366 q 1040 490 1056 469 q 1023 530 1023 511 q 1044 570 1023 551 q 1097 588 1065 588 q 1196 544 1145 588 q 1265 427 1247 500 l 1288 427 l 1278 637 l 1255 637 q 1215 604 1239 604 q 1164 617 1200 604 q 1115 632 1128 629 q 1082 635 1102 635 q 1014 621 1050 635 l 837 621 l 837 844 l 814 844 q 727 709 780 760 q 681 813 712 777 q 564 892 637 865 q 378 920 492 920 l 26 920 m 307 870 l 329 870 q 418 853 386 870 q 476 788 451 836 q 500 667 500 741 q 451 515 500 565 q 307 467 401 465 l 307 870 m 837 557 l 934 557 q 899 450 899 507 q 916 370 899 405 q 961 310 933 334 q 1065 238 989 285 q 1165 162 1141 192 q 1190 106 1190 132 q 1167 52 1190 74 q 1107 30 1144 30 q 1018 66 1063 30 q 928 205 973 103 l 905 205 l 911 95 q 873 64 892 64 q 858 69 864 64 q 843 92 848 77 q 837 149 837 112 l 837 557 "},"←":{"ha":1389,"x_min":54,"x_max":1335,"o":"m 334 594 q 178 445 244 496 q 54 368 113 393 l 54 338 q 184 255 121 305 q 334 106 247 204 l 387 106 q 253 316 323 243 l 1335 316 l 1335 385 l 253 385 q 325 482 305 450 q 385 594 345 514 l 334 594 "},"↑":{"ha":694,"x_min":104,"x_max":591,"o":"m 104 628 l 104 576 q 216 637 184 616 q 313 709 248 657 l 313 -291 l 382 -291 l 382 709 q 591 575 455 639 l 591 627 q 443 778 494 715 q 361 908 393 841 l 330 908 q 253 784 304 850 q 104 628 202 718 "},"→":{"ha":1389,"x_min":54,"x_max":1335,"o":"m 1055 594 l 1003 594 q 1063 482 1043 514 q 1135 385 1084 450 l 54 385 l 54 316 l 1135 316 q 1002 106 1065 243 l 1054 106 q 1204 255 1141 204 q 1335 338 1267 305 l 1335 368 q 1211 445 1276 393 q 1055 594 1145 496 "},"↓":{"ha":694,"x_min":104,"x_max":591,"o":"m 104 -11 q 253 -167 202 -101 q 330 -291 304 -233 l 361 -291 q 443 -161 393 -224 q 591 -10 494 -98 l 591 42 q 382 -92 455 -22 l 382 908 l 313 908 l 313 -92 q 216 -20 248 -40 q 104 41 184 1 l 104 -11 "},"↔":{"ha":1389,"x_min":54,"x_max":1335,"o":"m 1335 366 q 1209 445 1271 396 q 1059 595 1147 494 l 1005 595 q 1137 385 1052 479 l 252 385 q 383 595 336 479 l 329 595 q 179 445 241 494 q 54 366 117 396 l 54 336 q 179 257 117 307 q 329 107 241 208 l 383 107 q 252 318 336 224 l 1137 318 q 1005 107 1052 224 l 1059 107 q 1209 257 1147 208 q 1335 336 1271 307 l 1335 366 "},"↕":{"ha":694,"x_min":103,"x_max":591,"o":"m 332 992 q 253 866 302 928 q 103 716 203 804 l 103 662 q 314 794 219 709 l 314 -92 q 103 40 219 -6 l 103 -14 q 253 -164 203 -102 q 332 -290 302 -226 l 362 -290 q 441 -164 392 -226 q 591 -14 490 -102 l 591 40 q 380 -92 475 -6 l 380 794 q 591 662 475 709 l 591 716 q 441 866 490 804 q 362 992 392 928 l 332 992 "},"↨":{"ha":694,"x_min":103,"x_max":591,"o":"m 332 992 q 253 866 302 928 q 103 716 203 804 l 103 662 q 314 794 219 709 l 314 -92 q 103 40 219 -6 l 103 -14 q 253 -164 203 -102 q 332 -290 302 -226 l 362 -290 q 441 -164 392 -226 q 591 -14 490 -102 l 591 40 q 380 -92 475 -6 l 380 794 q 591 662 475 709 l 591 716 q 441 866 490 804 q 362 992 392 928 l 332 992 m 104 -354 l 104 -420 l 591 -420 l 591 -354 l 104 -354 "},"∟":{"ha":1360,"x_min":245,"x_max":1114,"o":"m 245 867 l 245 0 l 1114 0 l 1114 68 l 313 68 l 313 867 l 245 867 "},"∩":{"ha":998,"x_min":123,"x_max":875,"o":"m 211 0 l 211 408 q 214 578 211 542 q 233 697 218 646 q 285 790 248 747 q 381 858 322 832 q 499 884 439 884 q 615 860 559 884 q 707 797 671 835 q 760 715 743 758 q 784 597 777 671 q 788 408 788 555 l 788 0 l 875 0 l 875 404 q 872 601 875 566 q 843 746 865 688 q 769 857 821 804 q 647 939 717 909 q 500 969 576 969 q 348 938 419 969 q 228 855 277 906 q 158 752 180 804 q 127 618 136 699 q 123 404 123 572 l 123 0 l 211 0 "},"≡":{"ha":791,"x_min":25,"x_max":767,"o":"m 25 724 l 25 635 l 767 635 l 767 724 l 25 724 m 25 502 l 25 414 l 767 414 l 767 502 l 25 502 m 25 280 l 25 192 l 767 192 l 767 280 l 25 280 "},"⌂":{"ha":833,"x_min":104,"x_max":730,"o":"m 104 0 l 730 0 l 730 430 l 416 782 l 104 430 l 104 0 m 159 55 l 159 407 l 416 696 l 675 407 l 675 55 l 159 55 "},"⌐":{"ha":791,"x_min":24,"x_max":766,"o":"m 766 612 l 24 612 l 24 303 l 111 303 l 111 526 l 766 525 l 766 612 "},"⌠":{"ha":839,"x_min":370,"x_max":662,"o":"m 469 -349 l 469 987 q 473 1082 469 1059 q 483 1100 476 1095 q 504 1108 492 1108 q 535 1083 519 1108 q 564 1052 551 1059 q 602 1042 582 1042 q 645 1059 627 1042 q 662 1104 662 1077 q 638 1156 662 1134 q 568 1178 614 1178 q 431 1103 492 1178 q 370 879 370 1027 l 370 -349 l 469 -349 "},"⌡":{"ha":839,"x_min":177,"x_max":469,"o":"m 370 1178 l 370 -159 q 366 -252 370 -231 q 356 -272 363 -267 q 335 -279 347 -279 q 304 -255 319 -279 q 276 -224 288 -231 q 236 -213 257 -213 q 194 -231 212 -213 q 177 -275 177 -248 q 201 -327 177 -305 q 271 -349 225 -349 q 408 -274 347 -349 q 469 -50 469 -199 l 469 1178 l 370 1178 "},"─":{"ha":984,"x_min":-16,"x_max":999,"o":"m 999 362 l 999 481 l -16 481 l -16 362 l 999 362 "},"│":{"ha":984,"x_min":304,"x_max":422,"o":"m 304 -421 l 422 -421 l 422 1264 l 304 1264 l 304 -421 "},"┌":{"ha":984,"x_min":433,"x_max":1000,"o":"m 1000 481 l 433 481 l 433 -421 l 551 -421 l 551 362 l 1000 362 l 1000 481 "},"┐":{"ha":984,"x_min":-16,"x_max":551,"o":"m 432 362 l 432 -421 l 551 -421 l 551 481 l -16 481 l -16 362 l 432 362 "},"└":{"ha":984,"x_min":433,"x_max":1000,"o":"m 433 362 l 1000 362 l 1000 481 l 551 481 l 551 1264 l 433 1264 l 433 362 "},"┘":{"ha":984,"x_min":-16,"x_max":551,"o":"m 551 362 l 551 1264 l 432 1264 l 432 481 l -16 481 l -16 362 l 551 362 "},"├":{"ha":984,"x_min":433,"x_max":1000,"o":"m 433 -421 l 551 -421 l 551 362 l 1000 362 l 1000 481 l 551 481 l 551 1264 l 433 1264 l 433 -421 "},"┤":{"ha":984,"x_min":-16,"x_max":551,"o":"m 432 -421 l 551 -421 l 551 1264 l 432 1264 l 432 481 l -16 481 l -16 362 l 432 362 l 432 -421 "},"┬":{"ha":984,"x_min":-16,"x_max":999,"o":"m 432 362 l 432 -421 l 551 -421 l 551 362 l 999 362 l 999 481 l -16 481 l -16 362 l 432 362 "},"┴":{"ha":984,"x_min":-16,"x_max":999,"o":"m 999 362 l 999 481 l 551 481 l 551 1264 l 432 1264 l 432 481 l -16 481 l -16 362 l 999 362 "},"┼":{"ha":984,"x_min":-16,"x_max":999,"o":"m 432 362 l 432 -421 l 551 -421 l 551 362 l 999 362 l 999 481 l 551 481 l 551 1264 l 432 1264 l 432 481 l -16 481 l -16 362 l 432 362 "},"═":{"ha":984,"x_min":-16,"x_max":999,"o":"m 999 491 l 999 610 l -16 610 l -16 491 l 999 491 m 999 233 l 999 352 l -16 352 l -16 233 l 999 233 "},"║":{"ha":984,"x_min":304,"x_max":680,"o":"m 562 -421 l 680 -421 l 680 1264 l 562 1264 l 562 -421 m 304 -421 l 422 -421 l 422 1264 l 304 1264 l 304 -421 "},"╒":{"ha":984,"x_min":433,"x_max":1000,"o":"m 433 -421 l 551 -421 l 551 233 l 1000 233 l 1000 352 l 551 352 l 551 491 l 1000 491 l 1000 610 l 433 610 l 433 -421 "},"╓":{"ha":984,"x_min":304,"x_max":1000,"o":"m 304 -421 l 422 -421 l 422 352 l 562 352 l 562 -421 l 680 -421 l 680 362 l 1000 362 l 1000 481 l 304 481 l 304 -421 "},"╔":{"ha":984,"x_min":304,"x_max":999,"o":"m 422 -421 l 422 491 l 999 491 l 999 610 l 304 610 l 304 -421 l 422 -421 m 680 233 l 999 233 l 999 352 l 562 352 l 562 -421 l 680 -421 l 680 233 "},"╕":{"ha":984,"x_min":-16,"x_max":551,"o":"m 432 233 l 432 -421 l 551 -421 l 551 610 l -16 610 l -16 491 l 432 491 l 432 352 l -16 352 l -16 233 l 432 233 "},"╖":{"ha":984,"x_min":-16,"x_max":680,"o":"m 303 -421 l 422 -421 l 422 362 l 561 362 l 561 -421 l 680 -421 l 680 481 l -16 481 l -16 362 l 304 362 l 303 -421 "},"╗":{"ha":984,"x_min":-16,"x_max":680,"o":"m 561 -421 l 680 -421 l 680 610 l -16 610 l -16 491 l 561 491 l 561 -421 m 303 233 l 303 -421 l 422 -421 l 422 352 l -16 352 l -16 233 l 303 233 "},"╘":{"ha":984,"x_min":433,"x_max":1000,"o":"m 433 233 l 1000 233 l 1000 352 l 551 352 l 551 491 l 1000 491 l 1000 610 l 551 610 l 551 1264 l 433 1264 l 433 233 "},"╙":{"ha":984,"x_min":304,"x_max":1000,"o":"m 1000 362 l 1000 481 l 680 481 l 680 1264 l 562 1264 l 562 481 l 422 481 l 422 1264 l 304 1264 l 304 362 l 1000 362 "},"╚":{"ha":984,"x_min":304,"x_max":999,"o":"m 422 1264 l 304 1264 l 304 233 l 999 233 l 999 352 l 422 352 l 422 1264 m 680 610 l 680 1264 l 562 1264 l 562 491 l 999 491 l 999 610 l 680 610 "},"╛":{"ha":984,"x_min":-16,"x_max":551,"o":"m 551 233 l 551 1264 l 432 1264 l 432 610 l -16 610 l -16 491 l 432 491 l 432 352 l -16 352 l -16 233 l 551 233 "},"╜":{"ha":984,"x_min":-16,"x_max":680,"o":"m 680 362 l 680 1264 l 561 1264 l 561 481 l 422 481 l 422 1264 l 303 1264 l 303 481 l -16 481 l -16 362 l 680 362 "},"╝":{"ha":984,"x_min":-16,"x_max":680,"o":"m 561 1264 l 561 352 l -16 352 l -16 233 l 680 233 l 680 1264 l 561 1264 m 303 610 l -16 610 l -16 491 l 422 491 l 422 1264 l 303 1264 l 303 610 "},"╞":{"ha":984,"x_min":433,"x_max":1000,"o":"m 433 -421 l 551 -421 l 551 233 l 1000 233 l 1000 352 l 551 352 l 551 491 l 1000 491 l 1000 610 l 551 610 l 551 1264 l 433 1264 l 433 -421 "},"╟":{"ha":984,"x_min":304,"x_max":1000,"o":"m 562 -421 l 680 -421 l 680 362 l 1000 362 l 1000 481 l 680 481 l 680 1264 l 562 1264 l 562 -421 m 304 -421 l 422 -421 l 422 1264 l 304 1264 l 304 -421 "},"╠":{"ha":984,"x_min":304,"x_max":1000,"o":"m 304 -421 l 422 -421 l 422 1264 l 304 1264 l 304 -421 m 562 491 l 1000 491 l 1000 610 l 680 610 l 680 1264 l 562 1264 l 562 491 m 562 -421 l 680 -421 l 680 233 l 1000 233 l 1000 352 l 562 352 l 562 -421 "},"╡":{"ha":984,"x_min":-16,"x_max":551,"o":"m 432 233 l 432 -421 l 551 -421 l 551 1264 l 432 1264 l 432 610 l -16 610 l -16 491 l 432 491 l 433 352 l -16 352 l -16 233 l 432 233 "},"╢":{"ha":984,"x_min":-16,"x_max":680,"o":"m 303 -421 l 422 -421 l 422 1264 l 303 1264 l 303 481 l -16 481 l -16 362 l 304 362 l 303 -421 m 561 -421 l 680 -421 l 680 1264 l 561 1264 l 561 -421 "},"╣":{"ha":984,"x_min":-16,"x_max":680,"o":"m 561 -421 l 680 -421 l 680 1264 l 561 1264 l 561 -421 m 422 1264 l 303 1264 l 303 610 l -16 610 l -16 491 l 422 491 l 422 1264 m 303 233 l 303 -421 l 422 -421 l 422 352 l -16 352 l -16 233 l 303 233 "},"╤":{"ha":984,"x_min":-16,"x_max":999,"o":"m 999 491 l 999 610 l -16 610 l -16 491 l 999 491 m 432 233 l 432 -421 l 551 -421 l 551 233 l 999 233 l 999 352 l -16 352 l -16 233 l 432 233 "},"╥":{"ha":984,"x_min":-16,"x_max":999,"o":"m 303 -421 l 422 -421 l 422 352 l 561 352 l 561 -421 l 680 -421 l 680 362 l 999 362 l 999 481 l -16 481 l -16 362 l 304 362 l 303 -421 "},"╦":{"ha":984,"x_min":-16,"x_max":999,"o":"m 999 491 l 999 610 l -16 610 l -16 491 l 999 491 m 303 233 l 303 -421 l 422 -421 l 422 352 l -16 352 l -16 233 l 303 233 m 561 -421 l 680 -421 l 680 233 l 999 233 l 999 352 l 561 352 l 561 -421 "},"╧":{"ha":984,"x_min":-16,"x_max":999,"o":"m 999 491 l 999 610 l 551 610 l 551 1264 l 432 1264 l 432 610 l -16 610 l -16 491 l 999 491 m 999 233 l 999 352 l -16 352 l -16 233 l 999 233 "},"╨":{"ha":984,"x_min":-16,"x_max":999,"o":"m 999 362 l 999 481 l 680 481 l 680 1264 l 561 1264 l 561 481 l 422 481 l 422 1264 l 303 1264 l 303 481 l -16 481 l -16 362 l 999 362 "},"╩":{"ha":984,"x_min":-16,"x_max":999,"o":"m 422 491 l 422 1264 l 303 1264 l 303 610 l -16 610 l -16 491 l 422 491 m 999 491 l 999 610 l 680 610 l 680 1264 l 561 1264 l 561 491 l 999 491 m 999 233 l 999 352 l -16 352 l -16 233 l 999 233 "},"╪":{"ha":984,"x_min":-16,"x_max":999,"o":"m 432 233 l 432 -421 l 551 -421 l 551 233 l 999 233 l 999 352 l 551 352 l 551 491 l 999 491 l 999 610 l 551 610 l 551 1264 l 432 1264 l 432 610 l -16 610 l -16 491 l 432 491 l 432 352 l -16 352 l -16 233 l 432 233 "},"╫":{"ha":984,"x_min":-16,"x_max":999,"o":"m 303 -421 l 422 -421 l 422 362 l 561 362 l 561 -421 l 680 -421 l 680 362 l 999 362 l 999 481 l 680 481 l 680 1264 l 561 1264 l 561 481 l 422 481 l 422 1264 l 303 1264 l 303 481 l -16 481 l -16 362 l 304 362 l 303 -421 "},"╬":{"ha":984,"x_min":-16,"x_max":999,"o":"m 680 610 l 680 1264 l 562 1264 l 562 491 l 999 491 l 999 610 l 680 610 m 303 610 l -16 610 l -16 491 l 422 491 l 422 1264 l 303 1264 l 303 610 m 303 233 l 303 -421 l 422 -421 l 422 352 l -16 352 l -16 233 l 303 233 m 680 233 l 999 233 l 999 352 l 562 352 l 562 -421 l 680 -421 l 680 233 "},"▀":{"ha":984,"x_min":-16,"x_max":999,"o":"m 999 421 l 999 1264 l -16 1264 l -16 421 l 999 421 "},"▄":{"ha":984,"x_min":-16,"x_max":999,"o":"m 999 -421 l 999 421 l -16 421 l -16 -421 l 999 -421 "},"█":{"ha":984,"x_min":-16,"x_max":999,"o":"m -16 -421 l 999 -421 l 999 1264 l -16 1264 l -16 -421 "},"▌":{"ha":984,"x_min":-16,"x_max":492,"o":"m -16 -421 l 492 -421 l 492 1264 l -16 1264 l -16 -421 "},"▐":{"ha":984,"x_min":492,"x_max":1000,"o":"m 492 -421 l 1000 -421 l 1000 1264 l 492 1264 l 492 -421 "},"░":{"ha":984,"x_min":69,"x_max":999,"o":"m 69 1264 l 69 1179 l 154 1179 l 154 1264 l 69 1264 m 407 1264 l 407 1179 l 492 1179 l 492 1264 l 407 1264 m 745 1264 l 745 1179 l 830 1179 l 830 1264 l 745 1264 m 238 1095 l 238 1010 l 323 1010 l 323 1095 l 238 1095 m 576 1095 l 576 1010 l 661 1010 l 661 1095 l 576 1095 m 914 1095 l 914 1010 l 999 1010 l 999 1095 l 914 1095 m 745 926 l 745 842 l 830 842 l 830 926 l 745 926 m 407 926 l 407 842 l 492 842 l 492 926 l 407 926 m 69 926 l 69 842 l 154 842 l 154 926 l 69 926 m 914 757 l 914 673 l 999 673 l 999 757 l 914 757 m 576 757 l 576 673 l 661 673 l 661 757 l 576 757 m 238 757 l 238 673 l 323 673 l 323 757 l 238 757 m 69 588 l 69 503 l 154 503 l 154 588 l 69 588 m 407 588 l 407 503 l 492 503 l 492 588 l 407 588 m 745 588 l 745 503 l 830 503 l 830 588 l 745 588 m 914 419 l 914 334 l 999 334 l 999 419 l 914 419 m 576 419 l 576 334 l 661 334 l 661 419 l 576 419 m 238 419 l 238 334 l 323 334 l 323 419 l 238 419 m 69 250 l 69 165 l 154 165 l 154 250 l 69 250 m 407 250 l 407 165 l 492 165 l 492 250 l 407 250 m 745 250 l 745 165 l 830 165 l 830 250 l 745 250 m 238 81 l 238 -3 l 323 -3 l 323 81 l 238 81 m 576 81 l 576 -3 l 661 -3 l 661 81 l 576 81 m 914 81 l 914 -3 l 999 -3 l 999 81 l 914 81 m 745 -88 l 745 -173 l 830 -173 l 830 -88 l 745 -88 m 407 -88 l 407 -173 l 492 -173 l 492 -88 l 407 -88 m 69 -88 l 69 -173 l 154 -173 l 154 -88 l 69 -88 m 238 -257 l 238 -342 l 323 -342 l 323 -257 l 238 -257 m 576 -257 l 576 -342 l 661 -342 l 661 -257 l 576 -257 m 914 -257 l 914 -342 l 999 -342 l 999 -257 l 914 -257 "},"▒":{"ha":984,"x_min":-15,"x_max":999,"o":"m 70 1264 l 70 1179 l 154 1179 l 154 1264 l 70 1264 m 239 1264 l 239 1179 l 323 1179 l 323 1264 l 239 1264 m 408 1264 l 408 1179 l 492 1179 l 492 1264 l 408 1264 m 576 1264 l 576 1179 l 661 1179 l 661 1264 l 576 1264 m 746 1264 l 746 1179 l 830 1179 l 830 1264 l 746 1264 m 915 1264 l 915 1179 l 999 1179 l 999 1264 l 915 1264 m -15 1095 l -15 1010 l 70 1010 l 70 1095 l -15 1095 m 154 1095 l 154 1010 l 239 1010 l 239 1095 l 154 1095 m 323 1095 l 323 1010 l 408 1010 l 408 1095 l 323 1095 m 492 1095 l 492 1010 l 576 1010 l 576 1095 l 492 1095 m 661 1095 l 661 1010 l 746 1010 l 746 1095 l 661 1095 m 830 1095 l 830 1010 l 915 1010 l 915 1095 l 830 1095 m 70 926 l 70 842 l 154 842 l 154 926 l 70 926 m 239 926 l 239 842 l 323 842 l 323 926 l 239 926 m 408 926 l 408 842 l 492 842 l 492 926 l 408 926 m 576 926 l 576 842 l 661 842 l 661 926 l 576 926 m 746 926 l 746 842 l 830 842 l 830 926 l 746 926 m 915 926 l 915 842 l 999 842 l 999 926 l 915 926 m 154 757 l 154 673 l 239 673 l 239 757 l 154 757 m 323 757 l 323 673 l 408 673 l 408 757 l 323 757 m 492 757 l 492 673 l 576 673 l 576 757 l 492 757 m 661 757 l 661 673 l 746 673 l 746 757 l 661 757 m 830 757 l 830 673 l 915 673 l 915 757 l 830 757 m -15 757 l -15 673 l 70 673 l 70 757 l -15 757 m 70 588 l 70 503 l 154 503 l 154 588 l 70 588 m 239 588 l 239 503 l 323 503 l 323 588 l 239 588 m 408 588 l 408 503 l 492 503 l 492 588 l 408 588 m 576 588 l 576 503 l 661 503 l 661 588 l 576 588 m 746 588 l 746 503 l 830 503 l 830 588 l 746 588 m 915 588 l 915 503 l 999 503 l 999 588 l 915 588 m -15 419 l -15 334 l 70 334 l 70 419 l -15 419 m 323 419 l 323 334 l 408 334 l 408 419 l 323 419 m 492 419 l 492 334 l 576 334 l 576 419 l 492 419 m 661 419 l 661 334 l 746 334 l 746 419 l 661 419 m 830 419 l 830 334 l 915 334 l 915 419 l 830 419 m 154 419 l 154 334 l 239 334 l 239 419 l 154 419 m 915 250 l 915 165 l 999 165 l 999 250 l 915 250 m 746 250 l 746 165 l 830 165 l 830 250 l 746 250 m 576 250 l 576 165 l 661 165 l 661 250 l 576 250 m 408 250 l 408 165 l 492 165 l 492 250 l 408 250 m 239 250 l 239 165 l 323 165 l 323 250 l 239 250 m 70 250 l 70 165 l 154 165 l 154 250 l 70 250 m -15 81 l -15 -3 l 70 -3 l 70 81 l -15 81 m 154 81 l 154 -3 l 239 -3 l 239 81 l 154 81 m 323 81 l 323 -3 l 408 -3 l 408 81 l 323 81 m 492 81 l 492 -3 l 576 -3 l 576 81 l 492 81 m 661 81 l 661 -3 l 746 -3 l 746 81 l 661 81 m 830 81 l 830 -3 l 915 -3 l 915 81 l 830 81 m 915 -88 l 915 -173 l 999 -173 l 999 -88 l 915 -88 m 746 -88 l 746 -173 l 830 -173 l 830 -88 l 746 -88 m 576 -88 l 576 -173 l 661 -173 l 661 -88 l 576 -88 m 408 -88 l 408 -173 l 492 -173 l 492 -88 l 408 -88 m 239 -88 l 239 -173 l 323 -173 l 323 -88 l 239 -88 m 70 -88 l 70 -173 l 154 -173 l 154 -88 l 70 -88 m -15 -257 l -15 -342 l 70 -342 l 70 -257 l -15 -257 m 154 -257 l 154 -342 l 239 -342 l 239 -257 l 154 -257 m 323 -257 l 323 -342 l 408 -342 l 408 -257 l 323 -257 m 492 -257 l 492 -342 l 576 -342 l 576 -257 l 492 -257 m 661 -257 l 661 -342 l 746 -342 l 746 -257 l 661 -257 m 830 -257 l 830 -342 l 915 -342 l 915 -257 l 830 -257 "},"▓":{"ha":1013,"x_min":-1,"x_max":1013,"o":"m 1013 1010 l 929 1010 l 929 1095 l 1013 1095 l 1013 1264 l 929 1264 l 929 1179 l 844 1179 l 844 1264 l 760 1264 l 760 1179 l 675 1179 l 675 1264 l 591 1264 l 591 1179 l 507 1179 l 507 1264 l 422 1264 l 422 1179 l 337 1179 l 337 1264 l 253 1264 l 253 1179 l 168 1179 l 168 1264 l 84 1264 l 84 1179 l -1 1179 l -1 926 l 84 926 l 84 842 l -1 842 l -1 588 l 84 588 l 84 503 l -1 503 l -1 250 l 84 250 l 84 165 l -1 165 l -1 -88 l 84 -88 l 84 -173 l -1 -173 l -1 -426 l 1013 -426 l 1013 -342 l 929 -342 l 929 -257 l 1013 -257 l 1013 -3 l 929 -3 l 929 81 l 1013 81 l 1013 334 l 929 334 l 929 419 l 1013 419 l 1013 673 l 929 673 l 929 757 l 1013 757 l 1013 1010 m 84 1095 l 168 1095 l 168 1010 l 84 1010 l 84 1095 m 253 1095 l 337 1095 l 337 1010 l 253 1010 l 253 1095 m 422 1095 l 507 1095 l 507 1010 l 422 1010 l 422 1095 m 591 1095 l 675 1095 l 675 1010 l 591 1010 l 591 1095 m 760 1095 l 844 1095 l 844 1010 l 760 1010 l 760 1095 m 929 926 l 929 842 l 844 842 l 844 926 l 929 926 m 760 926 l 760 842 l 675 842 l 675 926 l 760 926 m 591 926 l 591 842 l 507 842 l 507 926 l 591 926 m 422 926 l 422 842 l 337 842 l 337 926 l 422 926 m 253 926 l 253 842 l 168 842 l 168 926 l 253 926 m 84 757 l 168 757 l 168 673 l 84 673 l 84 757 m 253 757 l 337 757 l 337 673 l 253 673 l 253 757 m 422 757 l 507 757 l 507 673 l 422 673 l 422 757 m 591 757 l 675 757 l 675 673 l 591 673 l 591 757 m 760 757 l 844 757 l 844 673 l 760 673 l 760 757 m 253 588 l 253 503 l 168 503 l 168 588 l 253 588 m 337 588 l 422 588 l 422 503 l 337 503 l 337 588 m 507 588 l 591 588 l 591 503 l 507 503 l 507 588 m 675 588 l 760 588 l 760 503 l 675 503 l 675 588 m 844 588 l 929 588 l 929 503 l 844 503 l 844 588 m 84 419 l 168 419 l 168 334 l 84 334 l 84 419 m 422 419 l 507 419 l 507 334 l 422 334 l 422 419 m 337 334 l 253 334 l 253 419 l 337 419 l 337 334 m 591 419 l 675 419 l 675 334 l 591 334 l 591 419 m 760 419 l 844 419 l 844 334 l 760 334 l 760 419 m 929 165 l 844 165 l 844 250 l 929 250 l 929 165 m 760 165 l 675 165 l 675 250 l 760 250 l 760 165 m 591 165 l 507 165 l 507 250 l 591 250 l 591 165 m 422 165 l 337 165 l 337 250 l 422 250 l 422 165 m 253 165 l 168 165 l 168 250 l 253 250 l 253 165 m 84 81 l 168 81 l 168 -3 l 84 -3 l 84 81 m 253 81 l 337 81 l 337 -3 l 253 -3 l 253 81 m 422 81 l 507 81 l 507 -3 l 422 -3 l 422 81 m 591 81 l 675 81 l 675 -3 l 591 -3 l 591 81 m 760 81 l 844 81 l 844 -3 l 760 -3 l 760 81 m 929 -173 l 844 -173 l 844 -88 l 929 -88 l 929 -173 m 760 -173 l 675 -173 l 675 -88 l 760 -88 l 760 -173 m 591 -173 l 507 -173 l 507 -88 l 591 -88 l 591 -173 m 422 -173 l 337 -173 l 337 -88 l 422 -88 l 422 -173 m 253 -173 l 168 -173 l 168 -88 l 253 -88 l 253 -173 m 84 -257 l 168 -257 l 168 -342 l 84 -342 l 84 -257 m 253 -257 l 337 -257 l 337 -342 l 253 -342 l 253 -257 m 422 -257 l 507 -257 l 507 -342 l 422 -342 l 422 -257 m 591 -257 l 675 -257 l 675 -342 l 591 -342 l 591 -257 m 760 -257 l 844 -257 l 844 -342 l 760 -342 l 760 -257 "},"■":{"ha":839,"x_min":99,"x_max":739,"o":"m 99 640 l 99 0 l 739 0 l 739 640 l 99 640 "},"▬":{"ha":1389,"x_min":0,"x_max":1388,"o":"m 0 477 l 0 215 l 1388 215 l 1388 477 l 0 477 "},"▲":{"ha":1375,"x_min":206,"x_max":1169,"o":"m 206 0 l 1169 0 l 688 962 l 206 0 "},"►":{"ha":1375,"x_min":195,"x_max":1179,"o":"m 195 961 l 195 -21 l 1179 470 l 195 961 "},"▼":{"ha":1375,"x_min":206,"x_max":1169,"o":"m 1169 941 l 206 941 l 688 -21 l 1169 941 "},"◄":{"ha":1375,"x_min":195,"x_max":1179,"o":"m 1179 961 l 195 470 l 1179 -21 l 1179 961 "},"○":{"ha":839,"x_min":121,"x_max":718,"o":"m 420 690 q 273 652 345 690 q 161 542 201 613 q 121 392 121 470 q 208 180 121 268 q 420 93 296 93 q 631 180 543 93 q 718 392 718 268 q 678 541 718 469 q 566 652 638 613 q 420 690 494 690 m 420 639 q 541 607 482 639 q 633 515 600 575 q 667 392 667 456 q 594 217 667 290 q 420 144 522 144 q 245 217 317 144 q 172 392 172 290 q 205 515 172 456 q 298 607 239 575 q 420 639 357 639 "},"◘":{"ha":839,"x_min":87,"x_max":751,"o":"m 87 0 l 751 0 l 751 665 l 87 665 l 87 0 m 419 469 q 516 429 476 469 q 556 332 556 389 q 516 236 556 276 q 419 195 476 195 q 322 236 363 195 q 282 332 282 276 q 322 429 282 389 q 419 469 362 469 "},"◙":{"ha":839,"x_min":28,"x_max":812,"o":"m 28 0 l 812 0 l 812 783 l 28 783 l 28 0 m 420 690 q 567 652 496 690 q 679 541 639 613 q 719 391 719 469 q 631 180 719 268 q 420 93 544 93 q 209 180 296 93 q 121 391 121 268 q 161 541 121 469 q 273 652 201 613 q 420 690 345 690 m 420 639 q 299 607 358 639 q 206 516 239 575 q 173 391 173 456 q 245 217 173 289 q 420 144 317 144 q 595 217 523 144 q 667 391 667 289 q 634 516 667 456 q 542 607 601 575 q 420 639 482 639 "},"☺":{"ha":1418,"x_min":277,"x_max":1142,"o":"m 709 784 q 496 728 600 784 q 335 568 393 672 q 277 351 277 464 q 334 137 277 239 q 494 -23 391 34 q 709 -81 597 -81 q 924 -23 821 -81 q 1085 137 1027 34 q 1142 351 1142 239 q 1084 568 1142 464 q 922 728 1025 672 q 709 784 818 784 m 709 721 q 891 673 802 721 q 1029 536 979 625 q 1079 351 1079 448 q 1030 168 1079 256 q 893 31 981 80 q 709 -18 805 -18 q 526 31 614 -18 q 389 168 437 80 q 340 351 340 256 q 390 536 340 448 q 528 673 439 625 q 709 721 616 721 m 543 496 q 505 480 521 496 q 488 441 488 464 q 505 402 488 418 q 543 386 521 386 q 582 402 566 386 q 598 441 598 418 q 582 480 598 464 q 543 496 566 496 m 875 496 q 836 480 852 496 q 820 441 820 464 q 836 402 820 418 q 875 386 852 386 q 914 402 898 386 q 930 441 930 418 q 914 480 930 464 q 875 496 898 496 m 510 212 q 593 114 544 148 q 709 80 643 80 q 825 114 775 80 q 909 212 875 148 l 866 237 q 709 139 813 139 q 552 237 606 139 l 510 212 "},"☻":{"ha":1461,"x_min":298,"x_max":1164,"o":"m 731 784 q 518 728 622 784 q 356 568 414 672 q 298 351 298 464 q 356 137 298 239 q 516 -23 413 34 q 731 -81 618 -81 q 946 -23 843 -81 q 1106 137 1049 34 q 1164 351 1164 239 q 1105 568 1164 464 q 943 728 1047 672 q 731 784 840 784 m 565 496 q 604 480 588 496 q 620 441 620 464 q 604 402 620 418 q 565 386 588 386 q 526 402 543 386 q 510 441 510 418 q 526 480 510 464 q 565 496 543 496 m 897 496 q 936 480 920 496 q 951 441 951 464 q 936 402 951 418 q 897 386 920 386 q 858 402 874 386 q 842 441 842 418 q 858 480 842 464 q 897 496 873 496 m 532 212 l 574 237 q 731 139 627 139 q 888 237 835 139 l 930 212 q 847 114 897 148 q 731 80 797 80 q 615 114 665 80 q 532 212 566 148 "},"☼":{"ha":1273,"x_min":11,"x_max":1263,"o":"m 612 1099 l 612 871 q 496 845 549 865 q 374 777 443 824 l 176 968 l 144 929 l 336 734 q 267 624 290 677 q 239 498 245 570 l 11 498 l 11 451 l 239 451 q 269 323 246 379 q 337 211 292 268 l 144 17 l 178 -18 l 378 171 q 484 109 432 130 q 612 77 536 87 l 612 -151 l 663 -151 l 663 77 q 785 105 736 85 q 901 173 835 124 l 1093 -18 l 1132 16 l 939 213 q 1036 448 1023 320 l 1263 448 l 1263 495 l 1035 495 q 1008 623 1034 558 q 938 738 987 673 l 1132 932 l 1097 968 l 900 775 q 786 845 840 823 q 663 871 732 866 l 663 1099 l 612 1099 m 635 821 q 806 777 723 821 q 937 648 890 732 q 983 474 983 564 q 937 301 983 384 q 808 172 891 218 q 635 126 726 126 q 463 172 545 126 q 334 301 380 218 q 288 474 288 384 q 335 648 288 564 q 465 777 381 732 q 635 821 548 821 "},"♀":{"ha":1042,"x_min":165,"x_max":876,"o":"m 540 313 q 778 422 681 319 q 876 667 876 525 q 829 843 876 759 q 697 975 782 928 q 521 1022 613 1022 q 344 975 428 1022 q 213 844 260 928 q 165 667 165 759 q 215 487 165 572 q 347 357 264 401 q 500 313 430 313 l 500 40 l 188 40 l 188 0 l 500 0 l 500 -298 l 540 -298 l 540 0 l 851 0 l 851 40 l 540 40 l 540 313 m 520 984 q 677 943 601 984 q 796 825 753 902 q 839 666 839 749 q 746 440 839 534 q 520 347 652 347 q 295 440 389 347 q 202 666 202 534 q 245 825 202 749 q 364 943 288 902 q 520 984 440 984 "},"♂":{"ha":1042,"x_min":75,"x_max":960,"o":"m 825 1099 l 408 893 l 425 857 l 789 1037 l 545 514 q 432 532 485 532 q 179 429 283 532 q 75 178 75 325 q 122 1 75 85 q 253 -131 169 -83 q 430 -178 338 -178 q 607 -131 523 -178 q 739 1 692 -83 q 785 178 785 85 q 734 362 785 276 q 582 499 682 448 l 825 1020 l 921 626 l 960 636 l 849 1088 l 825 1099 m 430 496 q 587 455 511 496 q 706 337 663 414 q 749 178 749 260 q 655 -48 749 45 q 430 -141 562 -141 q 205 -48 298 -141 q 112 178 112 45 q 155 337 112 260 q 274 455 197 414 q 430 496 350 496 "},"♠":{"ha":738,"x_min":39,"x_max":699,"o":"m 370 835 q 335 731 357 775 q 262 631 312 687 q 160 538 229 594 q 61 425 92 481 q 39 335 39 385 q 83 231 39 275 q 189 186 127 186 q 290 219 245 186 q 366 315 335 251 q 299 98 368 171 q 106 25 231 25 l 101 0 l 638 0 l 633 25 q 485 65 541 31 q 404 157 429 98 q 378 315 378 216 q 446 225 410 254 q 551 186 495 186 q 655 230 612 186 q 699 338 699 273 q 673 430 699 385 q 554 561 648 476 q 424 704 460 646 q 370 835 387 762 "},"♣":{"ha":911,"x_min":37,"x_max":873,"o":"m 745 0 l 739 23 q 588 72 630 44 q 495 176 526 113 q 463 347 465 239 q 522 262 498 287 q 601 207 555 227 q 688 186 646 186 q 819 241 764 186 q 873 378 873 296 q 824 510 873 456 q 706 563 774 563 q 665 557 683 563 q 596 527 653 554 q 643 653 643 593 q 588 782 643 728 q 454 835 534 835 q 320 782 374 835 q 267 650 267 728 q 275 598 267 623 q 312 527 283 574 q 201 562 242 562 q 87 508 138 562 q 37 375 37 454 q 92 240 37 295 q 226 185 147 185 q 347 224 288 185 q 448 347 406 262 q 448 315 448 326 q 413 172 448 240 q 323 70 378 104 q 175 23 287 47 l 170 0 l 745 0 "},"♥":{"ha":825,"x_min":43,"x_max":782,"o":"m 414 -16 q 475 133 435 62 q 637 363 526 223 q 752 538 723 472 q 782 665 782 604 q 731 785 782 734 q 606 835 680 835 q 476 780 532 835 q 414 664 435 740 q 347 781 388 742 q 218 834 292 834 q 93 783 143 834 q 43 657 43 732 q 57 577 43 616 q 102 490 71 537 q 203 352 121 460 q 354 134 315 204 q 414 -16 393 64 "},"♦":{"ha":709,"x_min":43,"x_max":666,"o":"m 353 835 q 220 632 300 739 q 43 410 112 488 q 168 255 150 279 q 304 66 249 147 q 354 -16 336 19 q 502 205 410 81 q 666 410 616 357 q 502 615 604 479 q 353 835 414 732 "},"♪":{"ha":694,"x_min":25,"x_max":669,"o":"m 330 924 l 330 263 q 212 294 264 294 q 77 246 128 294 q 25 126 25 197 q 68 17 25 58 q 185 -25 111 -25 q 300 2 248 -25 q 375 76 353 30 q 397 203 397 121 l 397 770 l 416 770 q 526 748 476 770 q 583 699 564 731 q 602 621 602 667 l 602 591 l 669 591 l 669 661 q 652 782 669 730 q 604 863 634 834 q 509 915 563 901 q 355 924 472 924 l 330 924 "},"♫":{"ha":1042,"x_min":58,"x_max":902,"o":"m 362 862 l 362 201 q 244 232 297 232 q 109 183 161 232 q 58 64 58 135 q 101 -45 58 -3 q 218 -87 144 -87 q 333 -60 280 -87 q 408 13 386 -33 q 429 141 429 59 l 429 708 l 833 833 l 833 342 q 765 367 786 362 q 718 372 745 372 q 583 322 635 372 q 530 205 530 273 q 574 96 530 138 q 692 54 618 54 q 808 81 757 54 q 881 152 859 109 q 902 279 902 195 l 902 1030 l 362 862 "},"Ĳ":{"ha":1143,"x_min":28,"x_max":1137,"o":"m 509 25 l 478 25 q 417 38 439 25 q 386 69 394 52 q 378 157 378 87 l 378 762 q 386 848 378 831 q 414 880 396 871 q 478 895 438 895 l 509 895 l 509 920 l 28 920 l 28 895 l 58 895 q 120 881 97 895 q 150 850 142 868 q 157 762 157 833 l 157 157 q 150 72 157 88 q 123 39 140 49 q 58 25 98 25 l 28 25 l 28 0 l 509 0 l 509 25 m 648 895 l 687 895 q 748 881 726 895 q 779 850 771 868 q 787 762 787 833 l 787 271 q 779 95 787 127 q 752 49 771 64 q 704 34 733 34 q 637 53 663 34 q 619 83 619 66 q 638 122 619 95 q 659 157 656 150 q 664 190 664 171 q 636 255 664 229 q 566 281 608 281 q 495 252 524 281 q 466 175 466 222 q 537 40 466 101 q 725 -21 609 -21 q 887 19 820 -21 q 981 120 955 60 q 1008 312 1008 180 l 1008 762 q 1015 848 1008 831 q 1042 880 1025 871 q 1107 895 1067 895 l 1137 895 l 1137 920 l 648 920 l 648 895 "},"ĳ":{"ha":767,"x_min":28,"x_max":667,"o":"m 199 941 q 125 910 156 941 q 95 836 95 880 q 125 762 95 793 q 199 732 156 732 q 274 762 243 732 q 304 836 304 793 q 274 910 304 880 q 199 941 243 941 m 294 634 l 28 634 l 28 609 q 89 588 73 606 q 104 502 104 569 l 104 132 q 91 49 104 64 q 28 24 71 26 l 28 0 l 371 0 l 371 24 q 310 46 326 27 q 294 132 294 64 l 294 634 m 564 941 q 490 910 520 941 q 460 838 460 880 q 490 764 460 794 q 564 733 521 733 q 637 764 606 733 q 667 838 667 794 q 637 910 667 880 q 564 941 607 941 m 659 634 l 394 634 l 394 609 q 455 588 441 604 q 470 530 470 572 l 469 494 l 469 102 l 471 -58 q 479 -149 472 -74 q 483 -204 483 -191 q 472 -243 483 -229 q 445 -256 460 -256 q 417 -245 428 -256 q 406 -210 406 -233 q 408 -190 406 -204 q 408 -171 408 -179 q 393 -125 408 -140 q 353 -110 378 -110 q 304 -132 325 -110 q 283 -184 283 -154 q 323 -266 283 -232 q 446 -300 363 -300 q 579 -261 529 -300 q 647 -159 630 -222 q 659 -22 659 -115 l 659 634 "},"ŉ":{"ha":1013,"x_min":103,"x_max":1099,"o":"m 127 489 q 301 600 243 524 q 360 772 360 675 q 319 896 360 850 q 219 941 277 941 q 137 907 171 941 q 103 828 103 873 q 133 755 103 786 q 202 724 162 724 q 251 735 231 724 q 263 740 259 740 q 273 734 268 740 q 277 718 277 728 q 242 607 277 661 q 127 519 206 553 l 127 489 m 673 634 l 414 634 l 414 609 q 470 586 456 604 q 483 496 483 568 l 483 138 q 471 50 483 65 q 414 24 454 28 l 414 0 l 735 0 l 735 24 q 686 48 699 29 q 673 138 673 67 l 673 478 q 781 562 723 562 q 813 550 799 562 q 834 519 828 539 q 840 420 840 498 l 840 138 q 829 54 840 71 q 778 24 814 29 l 778 0 l 1099 0 l 1099 24 q 1043 47 1057 29 q 1030 138 1030 65 l 1030 385 q 1019 534 1030 495 q 965 619 1006 585 q 863 653 924 653 q 766 629 811 653 q 673 552 722 605 l 673 634 "},"′":{"ha":391,"x_min":134,"x_max":355,"o":"m 167 490 l 309 749 q 355 871 355 833 q 334 921 355 901 q 281 941 313 941 q 180 893 222 941 q 138 749 138 846 l 134 490 l 167 490 "},"″":{"ha":767,"x_min":134,"x_max":682,"o":"m 167 490 l 309 749 q 355 871 355 833 q 334 921 355 901 q 281 941 313 941 q 180 893 222 941 q 138 749 138 846 l 134 490 l 167 490 m 494 490 l 635 749 q 682 871 682 833 q 661 921 682 901 q 608 941 640 941 q 507 893 549 941 q 465 749 465 846 l 461 490 l 494 490 "},"℅":{"ha":1157,"x_min":37,"x_max":1122,"o":"m 935 941 l 843 941 l 191 -39 l 281 -39 l 935 941 m 413 581 q 361 538 382 549 q 315 526 339 526 q 226 574 260 526 q 172 763 172 646 q 197 881 172 842 q 239 906 214 906 q 265 894 254 906 q 280 850 277 882 q 304 780 285 800 q 353 761 323 761 q 397 778 380 761 q 414 823 414 795 q 372 904 414 868 q 257 941 330 941 q 101 870 165 941 q 37 686 37 800 q 97 513 37 578 q 242 448 157 448 q 347 477 298 448 q 429 570 396 507 l 413 581 m 902 479 q 748 411 810 479 q 685 231 685 342 q 747 53 685 120 q 904 -14 810 -14 q 1060 53 998 -14 q 1122 233 1122 119 q 1059 413 1122 346 q 902 479 996 479 m 905 444 q 953 418 936 444 q 976 271 976 383 q 960 61 976 102 q 902 20 943 20 q 852 52 873 20 q 831 192 831 83 q 847 404 831 363 q 905 444 863 444 "},"ℓ":{"ha":521,"x_min":18,"x_max":498,"o":"m 18 225 l 42 202 l 109 273 l 109 195 q 160 36 109 91 q 289 -19 212 -19 q 419 31 364 -19 q 498 194 475 81 l 464 194 q 422 98 450 125 q 364 71 394 71 q 313 98 334 71 q 293 214 293 126 l 293 467 q 427 654 402 600 q 461 793 461 727 q 419 899 461 858 q 308 941 376 941 q 172 879 234 941 q 109 652 110 818 l 109 323 l 18 225 m 293 516 l 293 676 q 318 842 293 802 q 367 873 337 873 q 405 852 389 873 q 421 782 421 831 q 293 516 421 665 "},"□":{"ha":839,"x_min":99,"x_max":739,"o":"m 99 640 l 99 0 l 739 0 l 739 640 l 99 640 m 151 589 l 688 589 l 688 52 l 151 52 l 151 589 "},"▪":{"ha":492,"x_min":62,"x_max":431,"o":"m 431 643 l 62 643 l 62 275 l 431 275 l 431 643 "},"▫":{"ha":492,"x_min":62,"x_max":431,"o":"m 431 643 l 62 643 l 62 275 l 431 275 l 431 643 m 379 591 l 379 326 l 114 326 l 114 591 l 379 591 "},"●":{"ha":839,"x_min":121,"x_max":718,"o":"m 420 690 q 273 652 345 690 q 161 542 201 613 q 121 392 121 470 q 208 180 121 268 q 420 93 296 93 q 631 180 543 93 q 718 392 718 268 q 678 541 718 469 q 566 652 638 613 q 420 690 494 690 "},"◦":{"ha":492,"x_min":52,"x_max":439,"o":"m 246 652 q 109 596 165 652 q 52 458 52 539 q 109 321 52 378 q 246 264 165 264 q 383 321 326 264 q 439 458 439 378 q 383 596 439 539 q 246 652 327 652 m 246 601 q 347 559 305 601 q 389 458 389 517 q 347 358 389 399 q 246 316 305 316 q 145 358 187 316 q 104 458 104 399 q 145 559 104 517 q 246 601 186 601 "},"Ā":{"ha":1003,"x_min":11,"x_max":987,"o":"m 578 262 l 627 147 q 647 96 646 102 q 651 71 651 83 q 636 40 651 51 q 561 25 614 25 l 543 25 l 543 0 l 987 0 l 987 25 q 922 50 945 28 q 844 184 892 77 l 513 939 l 500 939 l 171 205 q 92 66 124 100 q 11 25 60 33 l 11 0 l 317 0 l 317 25 q 227 41 245 31 q 195 98 195 60 q 214 172 195 127 l 253 262 l 578 262 m 555 312 l 277 312 l 418 629 l 555 312 m 283 1133 l 283 1023 l 719 1023 l 719 1133 l 283 1133 "},"ā":{"ha":694,"x_min":62,"x_max":671,"o":"m 397 94 q 434 17 404 42 q 519 -9 465 -9 q 601 14 565 -9 q 671 87 637 37 l 651 103 q 615 78 633 78 q 600 83 606 78 q 589 100 593 89 q 586 155 586 111 l 586 401 q 576 532 586 503 q 508 615 561 576 q 366 653 456 653 q 222 629 291 653 q 114 561 153 606 q 75 468 75 517 q 104 408 75 433 q 176 382 133 382 q 240 405 216 382 q 265 462 265 429 q 239 518 265 489 q 220 553 220 539 q 238 582 220 570 q 311 602 267 602 q 359 588 338 602 q 389 555 381 574 q 397 465 397 536 l 397 401 q 125 247 187 304 q 62 116 62 189 q 98 27 62 62 q 189 -9 134 -9 q 397 94 281 -9 m 397 143 q 318 105 352 105 q 271 123 288 105 q 248 178 248 147 q 275 252 248 216 q 397 355 315 307 l 397 143 m 125 850 l 125 740 l 561 740 l 561 850 l 125 850 "},"Ĉ":{"ha":1003,"x_min":55,"x_max":927,"o":"m 927 941 l 901 941 q 880 890 896 906 q 842 874 864 874 q 763 899 825 874 q 558 941 655 941 q 310 876 427 941 q 124 692 193 810 q 55 443 55 574 q 117 208 55 318 q 293 38 179 97 q 555 -21 408 -21 q 750 15 667 -21 q 911 132 834 52 l 911 212 q 759 81 831 119 q 600 43 687 43 q 428 95 494 43 q 330 248 361 146 q 299 473 299 349 q 342 701 299 598 q 447 830 375 781 q 605 880 519 880 q 789 813 708 880 q 901 622 871 747 l 927 622 l 927 941 m 613 1266 l 460 1266 l 315 1011 l 371 1011 l 537 1147 l 699 1007 l 751 1007 l 613 1266 "},"ĉ":{"ha":616,"x_min":53,"x_max":585,"o":"m 564 163 q 494 104 524 120 q 431 89 464 89 q 342 118 380 89 q 264 240 293 158 q 236 411 236 321 q 271 571 236 519 q 327 606 294 606 q 363 589 348 606 q 383 529 379 572 q 415 435 389 461 q 481 408 441 408 q 543 431 519 408 q 566 493 566 454 q 508 604 566 554 q 352 653 450 653 q 122 534 205 653 q 53 307 53 436 q 129 77 53 172 q 332 -19 205 -19 q 474 22 407 -19 q 585 147 541 63 l 564 163 m 398 968 l 245 968 l 100 713 l 156 713 l 322 848 l 484 709 l 536 709 l 398 968 "},"Ċ":{"ha":1003,"x_min":55,"x_max":927,"o":"m 927 941 l 901 941 q 880 890 896 906 q 842 874 864 874 q 763 899 825 874 q 558 941 655 941 q 310 876 427 941 q 124 692 193 810 q 55 443 55 574 q 117 208 55 318 q 293 38 179 97 q 555 -21 408 -21 q 750 15 667 -21 q 911 132 834 52 l 911 212 q 759 81 831 119 q 600 43 687 43 q 428 95 494 43 q 330 248 361 146 q 299 473 299 349 q 342 701 299 598 q 447 830 375 781 q 605 880 519 880 q 789 813 708 880 q 901 622 871 747 l 927 622 l 927 941 m 527 1210 q 456 1181 486 1210 q 427 1110 427 1152 q 456 1040 427 1069 q 527 1010 486 1010 q 597 1040 568 1010 q 627 1110 627 1069 q 597 1181 627 1152 q 527 1210 568 1210 "},"ċ":{"ha":616,"x_min":53,"x_max":585,"o":"m 564 163 q 494 104 524 120 q 431 89 464 89 q 342 118 380 89 q 264 240 293 158 q 236 411 236 321 q 271 571 236 519 q 327 606 294 606 q 363 589 348 606 q 383 529 379 572 q 415 435 389 461 q 481 408 441 408 q 543 431 519 408 q 566 493 566 454 q 508 604 566 554 q 352 653 450 653 q 122 534 205 653 q 53 307 53 436 q 129 77 53 172 q 332 -19 205 -19 q 474 22 407 -19 q 585 147 541 63 l 564 163 m 328 928 q 257 899 286 928 q 228 828 228 869 q 257 758 228 787 q 328 728 286 728 q 398 758 369 728 q 427 828 427 787 q 398 899 427 869 q 328 928 369 928 "},"Ē":{"ha":926,"x_min":28,"x_max":864,"o":"m 378 867 l 473 867 q 616 854 578 867 q 716 791 681 834 q 772 648 752 747 l 798 648 l 798 920 l 28 920 l 28 895 l 58 895 q 129 876 103 895 q 154 839 147 863 q 157 762 157 825 l 157 157 q 150 72 157 88 q 123 39 140 49 q 58 25 98 25 l 28 25 l 28 0 l 823 0 l 864 292 l 839 292 q 727 111 805 170 q 521 51 650 51 l 466 51 q 409 62 427 51 q 385 90 391 73 q 378 182 378 106 l 378 441 q 479 424 444 441 q 539 357 513 407 q 574 228 566 307 l 600 228 l 600 709 l 574 709 q 524 547 563 602 q 397 492 484 492 l 378 492 l 378 867 m 245 1133 l 245 1023 l 681 1023 l 681 1133 l 245 1133 "},"ē":{"ha":616,"x_min":54,"x_max":584,"o":"m 584 340 q 508 574 578 495 q 340 653 437 653 q 139 559 225 653 q 54 307 54 465 q 112 90 54 177 q 326 -19 184 -19 q 470 25 408 -19 q 584 174 532 68 l 561 189 q 490 107 523 130 q 416 84 456 84 q 303 140 350 84 q 236 340 242 214 l 584 340 m 417 385 l 233 385 l 233 409 q 273 574 233 514 q 330 609 295 609 q 368 597 354 609 q 405 535 393 576 q 417 385 417 494 m 90 850 l 90 740 l 526 740 l 526 850 l 90 850 "},"Ĕ":{"ha":926,"x_min":28,"x_max":864,"o":"m 378 867 l 473 867 q 616 854 578 867 q 716 791 681 834 q 772 648 752 747 l 798 648 l 798 920 l 28 920 l 28 895 l 58 895 q 129 876 103 895 q 154 839 147 863 q 157 762 157 825 l 157 157 q 150 72 157 88 q 123 39 140 49 q 58 25 98 25 l 28 25 l 28 0 l 823 0 l 864 292 l 839 292 q 727 111 805 170 q 521 51 650 51 l 466 51 q 409 62 427 51 q 385 90 391 73 q 378 182 378 106 l 378 441 q 479 424 444 441 q 539 357 513 407 q 574 228 566 307 l 600 228 l 600 709 l 574 709 q 524 547 563 602 q 397 492 484 492 l 378 492 l 378 867 m 625 1227 q 570 1162 606 1183 q 459 1141 534 1141 q 356 1163 393 1141 q 303 1227 320 1185 l 258 1227 q 326 1071 264 1131 q 465 1010 387 1010 q 604 1071 543 1010 q 669 1227 664 1131 l 625 1227 "},"ĕ":{"ha":616,"x_min":54,"x_max":584,"o":"m 584 340 q 508 574 578 495 q 340 653 437 653 q 139 559 225 653 q 54 307 54 465 q 112 90 54 177 q 326 -19 184 -19 q 470 25 408 -19 q 584 174 532 68 l 561 189 q 490 107 523 130 q 416 84 456 84 q 303 140 350 84 q 236 340 242 214 l 584 340 m 417 385 l 233 385 l 233 409 q 273 574 233 514 q 330 609 295 609 q 368 597 354 609 q 405 535 393 576 q 417 385 417 494 m 477 941 q 422 876 458 897 q 311 854 387 854 q 209 876 245 854 q 155 941 172 898 l 111 941 q 178 784 117 844 q 317 724 239 724 q 456 784 395 724 q 521 941 516 844 l 477 941 "},"Ė":{"ha":926,"x_min":28,"x_max":864,"o":"m 378 867 l 473 867 q 616 854 578 867 q 716 791 681 834 q 772 648 752 747 l 798 648 l 798 920 l 28 920 l 28 895 l 58 895 q 129 876 103 895 q 154 839 147 863 q 157 762 157 825 l 157 157 q 150 72 157 88 q 123 39 140 49 q 58 25 98 25 l 28 25 l 28 0 l 823 0 l 864 292 l 839 292 q 727 111 805 170 q 521 51 650 51 l 466 51 q 409 62 427 51 q 385 90 391 73 q 378 182 378 106 l 378 441 q 479 424 444 441 q 539 357 513 407 q 574 228 566 307 l 600 228 l 600 709 l 574 709 q 524 547 563 602 q 397 492 484 492 l 378 492 l 378 867 m 464 1210 q 393 1181 422 1210 q 364 1110 364 1152 q 393 1040 364 1069 q 464 1010 422 1010 q 534 1040 505 1010 q 564 1110 564 1069 q 534 1181 564 1152 q 464 1210 505 1210 "},"ė":{"ha":616,"x_min":54,"x_max":584,"o":"m 584 340 q 508 574 578 495 q 340 653 437 653 q 139 559 225 653 q 54 307 54 465 q 112 90 54 177 q 326 -19 184 -19 q 470 25 408 -19 q 584 174 532 68 l 561 189 q 490 107 523 130 q 416 84 456 84 q 303 140 350 84 q 236 340 242 214 l 584 340 m 417 385 l 233 385 l 233 409 q 273 574 233 514 q 330 609 295 609 q 368 597 354 609 q 405 535 393 576 q 417 385 417 494 m 321 928 q 251 899 280 928 q 222 828 222 869 q 251 758 222 787 q 321 728 280 728 q 392 758 363 728 q 421 828 421 787 q 392 899 421 869 q 321 928 363 928 "},"Ĝ":{"ha":1080,"x_min":56,"x_max":1066,"o":"m 958 941 l 933 941 q 903 888 920 902 q 868 874 887 874 q 789 900 856 874 q 692 930 722 925 q 569 941 637 941 q 202 798 348 941 q 56 448 56 655 q 104 238 56 332 q 207 107 141 165 q 360 14 273 50 q 577 -22 446 -22 q 775 -2 680 -22 q 958 58 870 18 l 958 249 q 964 312 958 299 q 995 347 975 336 q 1066 361 1015 357 l 1066 386 l 619 386 l 619 361 l 643 361 q 700 348 676 361 q 730 319 723 335 q 738 249 738 303 l 738 58 q 666 37 701 44 q 598 30 631 30 q 433 77 503 30 q 332 223 363 123 q 301 455 301 323 q 330 668 301 564 q 427 830 358 772 q 598 888 495 888 q 797 819 706 888 q 933 616 888 749 l 958 616 l 958 941 m 649 1251 l 496 1251 l 351 996 l 407 996 l 573 1131 l 734 991 l 787 991 l 649 1251 "},"ĝ":{"ha":694,"x_min":52,"x_max":669,"o":"m 454 627 q 323 653 387 653 q 128 585 204 653 q 52 424 52 517 q 93 298 52 353 q 224 211 134 244 q 111 134 146 178 q 75 43 75 90 q 163 -77 75 -34 q 76 -119 99 -94 q 52 -175 52 -144 q 83 -237 52 -208 q 184 -283 113 -267 q 340 -300 254 -300 q 541 -267 454 -300 q 634 -197 599 -244 q 669 -92 669 -150 q 593 41 669 -2 q 397 73 539 73 l 279 71 q 219 87 237 71 q 200 127 200 102 q 221 175 200 155 q 272 195 241 195 q 353 191 349 191 q 468 219 404 191 q 571 297 533 248 q 608 415 608 347 q 592 492 608 455 q 546 552 579 519 l 667 552 l 667 627 l 454 627 m 336 611 q 397 578 376 611 q 428 413 428 534 q 401 268 428 305 q 333 231 374 231 q 270 268 296 231 q 243 407 243 306 q 270 571 243 532 q 336 611 297 611 m 296 -94 q 493 -101 456 -94 q 549 -129 530 -109 q 559 -157 559 -140 q 505 -228 559 -203 q 357 -253 451 -253 q 206 -225 246 -253 q 166 -162 166 -197 q 205 -105 166 -126 q 296 -94 227 -94 m 427 968 l 274 968 l 130 713 l 185 713 l 351 848 l 513 709 l 565 709 l 427 968 "},"Ġ":{"ha":1080,"x_min":56,"x_max":1066,"o":"m 958 941 l 933 941 q 903 888 920 902 q 868 874 887 874 q 789 900 856 874 q 692 930 722 925 q 569 941 637 941 q 202 798 348 941 q 56 448 56 655 q 104 238 56 332 q 207 107 141 165 q 360 14 273 50 q 577 -22 446 -22 q 775 -2 680 -22 q 958 58 870 18 l 958 249 q 964 312 958 299 q 995 347 975 336 q 1066 361 1015 357 l 1066 386 l 619 386 l 619 361 l 643 361 q 700 348 676 361 q 730 319 723 335 q 738 249 738 303 l 738 58 q 666 37 701 44 q 598 30 631 30 q 433 77 503 30 q 332 223 363 123 q 301 455 301 323 q 330 668 301 564 q 427 830 358 772 q 598 888 495 888 q 797 819 706 888 q 933 616 888 749 l 958 616 l 958 941 m 547 1210 q 476 1181 505 1210 q 447 1110 447 1152 q 476 1040 447 1069 q 547 1010 505 1010 q 617 1040 588 1010 q 646 1110 646 1069 q 617 1181 646 1152 q 547 1210 588 1210 "}}}
